<svg width="20" height="20" viewBox="0 0 20 20" fill="none" xmlns="http://www.w3.org/2000/svg">
<g id="icon-step">
<g id="Vector">
<path d="M4.75 6C4.75 6.27614 4.52614 6.5 4.25 6.5C3.97386 6.5 3.75 6.27614 3.75 6C3.75 5.72386 3.97386 5.5 4.25 5.5C4.52614 5.5 4.75 5.72386 4.75 6Z" fill="url(#paint0_linear_9_1695)"/>
<path d="M4.75 11C4.75 11.2761 4.52614 11.5 4.25 11.5C3.97386 11.5 3.75 11.2761 3.75 11C3.75 10.7239 3.97386 10.5 4.25 10.5C4.52614 10.5 4.75 10.7239 4.75 11Z" fill="url(#paint1_linear_9_1695)"/>
<path d="M14.75 6C14.75 6.27614 14.5261 6.5 14.25 6.5C13.9739 6.5 13.75 6.27614 13.75 6C13.75 5.72386 13.9739 5.5 14.25 5.5C14.5261 5.5 14.75 5.72386 14.75 6Z" fill="url(#paint2_linear_9_1695)"/>
<path d="M1.25 4.75C1.25 3.7835 2.0335 3 3 3H15.5C16.4665 3 17.25 3.7835 17.25 4.75V9H15.75V4.75C15.75 4.61193 15.6381 4.5 15.5 4.5H3C2.86193 4.5 2.75 4.61193 2.75 4.75V12.25C2.75 12.3881 2.86193 12.5 3 12.5H13V14H3C2.0335 14 1.25 13.2165 1.25 12.25V4.75Z" fill="url(#paint3_linear_9_1695)"/>
<path fill-rule="evenodd" clip-rule="evenodd" d="M9.25 10.5C10.3546 10.5 11.25 9.60457 11.25 8.5C11.25 7.39543 10.3546 6.5 9.25 6.5C8.14543 6.5 7.25 7.39543 7.25 8.5C7.25 9.60457 8.14543 10.5 9.25 10.5ZM9.25 9.25C9.66421 9.25 10 8.91421 10 8.5C10 8.08579 9.66421 7.75 9.25 7.75C8.83579 7.75 8.5 8.08579 8.5 8.5C8.5 8.91421 8.83579 9.25 9.25 9.25Z" fill="url(#paint4_linear_9_1695)"/>
<path d="M15.75 11.75C15.75 12.1642 15.4142 12.5 15 12.5C14.5858 12.5 14.25 12.1642 14.25 11.75C14.25 11.3358 14.5858 11 15 11C15.4142 11 15.75 11.3358 15.75 11.75Z" fill="url(#paint5_linear_9_1695)"/>
<path d="M19.25 15.25C19.25 15.6642 18.9142 16 18.5 16C18.0858 16 17.75 15.6642 17.75 15.25C17.75 14.8358 18.0858 14.5 18.5 14.5C18.9142 14.5 19.25 14.8358 19.25 15.25Z" fill="url(#paint6_linear_9_1695)"/>
<path d="M18.3964 11.1464L14.3964 15.1464L15.1036 15.8536L19.1036 11.8536L18.3964 11.1464Z" fill="url(#paint7_linear_9_1695)"/>
</g>
</g>
<defs>
<linearGradient id="paint0_linear_9_1695" x1="10.25" y1="3" x2="10.25" y2="16" gradientUnits="userSpaceOnUse">
<stop stop-color="#338464"/>
<stop offset="1" stop-color="#338449"/>
</linearGradient>
<linearGradient id="paint1_linear_9_1695" x1="10.25" y1="3" x2="10.25" y2="16" gradientUnits="userSpaceOnUse">
<stop stop-color="#338464"/>
<stop offset="1" stop-color="#338449"/>
</linearGradient>
<linearGradient id="paint2_linear_9_1695" x1="10.25" y1="3" x2="10.25" y2="16" gradientUnits="userSpaceOnUse">
<stop stop-color="#338464"/>
<stop offset="1" stop-color="#338449"/>
</linearGradient>
<linearGradient id="paint3_linear_9_1695" x1="10.25" y1="3" x2="10.25" y2="16" gradientUnits="userSpaceOnUse">
<stop stop-color="#338464"/>
<stop offset="1" stop-color="#338449"/>
</linearGradient>
<linearGradient id="paint4_linear_9_1695" x1="10.25" y1="3" x2="10.25" y2="16" gradientUnits="userSpaceOnUse">
<stop stop-color="#338464"/>
<stop offset="1" stop-color="#338449"/>
</linearGradient>
<linearGradient id="paint5_linear_9_1695" x1="10.25" y1="3" x2="10.25" y2="16" gradientUnits="userSpaceOnUse">
<stop stop-color="#338464"/>
<stop offset="1" stop-color="#338449"/>
</linearGradient>
<linearGradient id="paint6_linear_9_1695" x1="10.25" y1="3" x2="10.25" y2="16" gradientUnits="userSpaceOnUse">
<stop stop-color="#338464"/>
<stop offset="1" stop-color="#338449"/>
</linearGradient>
<linearGradient id="paint7_linear_9_1695" x1="10.25" y1="3" x2="10.25" y2="16" gradientUnits="userSpaceOnUse">
<stop stop-color="#338464"/>
<stop offset="1" stop-color="#338449"/>
</linearGradient>
</defs>
</svg>
