<svg width="32" height="32" viewBox="0 0 32 32" fill="none" xmlns="http://www.w3.org/2000/svg">
<g id="Type=pools">
<g id="Vector">
<path d="M18.1768 6.82322C18.2744 6.72558 18.2744 6.56729 18.1768 6.46966L16.1768 4.46966C16.0791 4.37203 15.9208 4.37203 15.8232 4.46966L13.8232 6.46966C13.7256 6.56729 13.7256 6.72558 13.8232 6.82322L14.1768 7.17677C14.2744 7.2744 14.4327 7.2744 14.5303 7.17677L15.5 6.2071V22.8483C15.5 22.9208 15.4385 22.9782 15.3662 22.9717C14.3291 22.8786 13.3571 22.5593 12.5 22.0635V15.2071L12.9696 15.6768C13.0673 15.7744 13.2256 15.7744 13.3232 15.6768L13.6768 15.3232C13.7744 15.2256 13.7744 15.0673 13.6768 14.9697L12.1768 13.4697C12.0791 13.372 11.9208 13.372 11.8232 13.4697L10.3232 14.9697C10.2256 15.0673 10.2256 15.2256 10.3232 15.3232L10.6768 15.6768C10.7744 15.7744 10.9327 15.7744 11.0303 15.6768L11.5 15.2071V21.3621C9.97152 20.078 9 18.1525 9 16C9 13.7149 10.095 11.6855 11.7889 10.4079C11.9193 10.3094 12 10.1573 12 9.99382V9.50368C12 9.31113 11.792 9.19207 11.6308 9.29736C9.44468 10.7253 8 13.1939 8 16C8 20.4183 11.5817 24 16 24C16.0101 24 16.0201 24 16.0302 23.9999C16.2944 23.999 16.5 23.7787 16.5 23.5145V6.2071L17.4696 7.17677C17.5673 7.2744 17.7256 7.2744 17.8232 7.17677L18.1768 6.82322Z" fill="#ADADAD"/>
<path d="M20 9.99382C20 10.1573 20.0807 10.3094 20.2112 10.4079C21.905 11.6855 23 13.7149 23 16C23 18.056 22.1136 19.905 20.7021 21.1857C20.6234 21.257 20.5 21.2001 20.5 21.0939V17.7071L20.9696 18.1768C21.0673 18.2744 21.2256 18.2744 21.3232 18.1768L21.6768 17.8232C21.7744 17.7256 21.7744 17.5673 21.6768 17.4697L20.1768 15.9697C20.0791 15.872 19.9208 15.872 19.8232 15.9697L18.3232 17.4697C18.2256 17.5673 18.2256 17.7256 18.3232 17.8232L18.6768 18.1768C18.7744 18.2744 18.9327 18.2744 19.0303 18.1768L19.5 17.7071V22.3959C19.5 22.7654 19.886 23.0042 20.2003 22.8099C22.4806 21.4005 24 18.8777 24 16C24 13.194 22.5553 10.7253 20.3692 9.29737C20.208 9.19207 20 9.31114 20 9.50368V9.99382Z" fill="#ADADAD"/>
</g>
</g>
</svg>
