<svg width="20" height="20" viewBox="0 0 20 20" fill="none" xmlns="http://www.w3.org/2000/svg">
<path fill-rule="evenodd" clip-rule="evenodd" d="M4.25 4.5V7.25V8C4.25 8.41421 3.91421 8.75 3.5 8.75C3.08579 8.75 2.75 8.41421 2.75 8V3.75C2.75 3.19772 3.19772 2.75 3.75 2.75H7C7.41421 2.75 7.75 3.08579 7.75 3.5C7.75 3.91421 7.41421 4.25 7 4.25H4.5C4.36193 4.25 4.25 4.36193 4.25 4.5ZM11.5 8C11.5 8.82843 10.8284 9.5 10 9.5C9.17157 9.5 8.5 8.82843 8.5 8C8.5 7.17157 9.17157 6.5 10 6.5C10.8284 6.5 11.5 7.17157 11.5 8ZM13 8C13 9.65685 11.6569 11 10 11C8.34315 11 7 9.65685 7 8C7 6.34315 8.34315 5 10 5C11.6569 5 13 6.34315 13 8ZM4.25 15.25V12.5V11.75C4.25 11.3358 3.91421 11 3.5 11C3.08579 11 2.75 11.3358 2.75 11.75V16C2.75 16.5523 3.19772 17 3.75 17H7C7.41421 17 7.75 16.6642 7.75 16.25C7.75 15.8358 7.41421 15.5 7 15.5H4.5C4.36193 15.5 4.25 15.3881 4.25 15.25ZM15.5 4.25H13C12.5858 4.25 12.25 3.91421 12.25 3.5C12.25 3.08579 12.5858 2.75 13 2.75H16.25C16.8023 2.75 17.25 3.19772 17.25 3.75V8C17.25 8.41421 16.9142 8.75 16.5 8.75C16.0858 8.75 15.75 8.41421 15.75 8V4.5C15.75 4.36193 15.6381 4.25 15.5 4.25ZM15.5 15.5H13C12.5858 15.5 12.25 15.8358 12.25 16.25C12.25 16.6642 12.5858 17 13 17H16.25C16.8023 17 17.25 16.5523 17.25 16V11.75C17.25 11.3358 16.9142 11 16.5 11C16.0858 11 15.75 11.3358 15.75 11.75V15.25C15.75 15.3881 15.6381 15.5 15.5 15.5Z" fill="url(#paint0_linear_2776_10941)"/>
<rect x="6.5" y="12.25" width="7" height="1.5" rx="0.75" fill="url(#paint1_linear_2776_10941)"/>
<defs>
<linearGradient id="paint0_linear_2776_10941" x1="10" y1="2.75" x2="10" y2="17" gradientUnits="userSpaceOnUse">
<stop stop-color="#338464"/>
<stop offset="1" stop-color="#338449"/>
</linearGradient>
<linearGradient id="paint1_linear_2776_10941" x1="10" y1="12.25" x2="10" y2="13.75" gradientUnits="userSpaceOnUse">
<stop stop-color="#338464"/>
<stop offset="1" stop-color="#338449"/>
</linearGradient>
</defs>
</svg>
