<svg width="24" height="24" viewBox="0 0 24 24" fill="none" xmlns="http://www.w3.org/2000/svg">
<path d="M14.3528 11.097L15.8864 8.40532L20.02 15.0648L20.022 16.3429L20.0085 7.54839C19.9987 7.33341 19.8883 7.13676 19.7123 7.02077L12.2702 2.59287C12.0962 2.50433 11.8753 2.50536 11.7015 2.59567C11.6781 2.60777 11.656 2.62103 11.635 2.63549L11.609 2.65235L4.38528 6.98225L4.35728 6.99542C4.32124 7.01254 4.28476 7.03434 4.25061 7.05966C4.11362 7.16123 4.02269 7.31148 3.99327 7.48C3.98884 7.50554 3.98557 7.53152 3.98406 7.55782L3.99542 14.7245L7.84569 8.55164C8.33048 7.73315 9.38661 7.4695 10.3671 7.48383L11.5178 7.51524L4.73751 18.7625L5.53677 19.2384L12.3982 7.52667L15.431 7.51529L8.58726 19.5226L11.4393 21.2193L11.78 21.422C11.9241 21.4826 12.0941 21.4857 12.2394 21.4314L19.7861 16.9077L18.3433 17.7725L14.3528 11.097ZM14.9378 19.8138L12.0573 15.1375L13.8157 12.0512L17.5988 18.2188L14.9378 19.8138Z" fill="#2D374B"/>
<path d="M12.0574 15.1375L14.9378 19.8138L17.5988 18.2187L13.8157 12.0511L12.0574 15.1375Z" fill="#28A0F0"/>
<path d="M20.022 16.3428L20.02 15.0648L15.8863 8.40527L14.3528 11.0969L18.3432 17.7724L19.786 16.9076C19.9275 16.7887 20.0132 16.6142 20.0222 16.426L20.022 16.3428Z" fill="#28A0F0"/>
<path d="M2.70004 17.5481L4.7375 18.7625L11.5177 7.51529L10.367 7.48388C9.38655 7.46955 8.33038 7.7332 7.84563 8.55169L3.99536 14.7245L2.70004 16.7831V17.5481Z" fill="white"/>
<path d="M15.431 7.51529L12.3982 7.52668L5.53675 19.2384L7.93505 20.6667L8.58725 19.5226L15.431 7.51529Z" fill="white"/>
<path d="M21.3 7.49914C21.2746 6.84308 20.9312 6.24251 20.3933 5.89286L12.8536 1.408C12.3215 1.13087 11.6568 1.13052 11.1237 1.40783C11.0607 1.4407 3.79162 5.80134 3.79162 5.80134C3.69101 5.85126 3.5941 5.9107 3.50296 5.97819C3.02277 6.33416 2.73007 6.88735 2.7 7.49509V16.7831L3.99532 14.7245L3.98401 7.55786C3.98552 7.53166 3.9887 7.50585 3.99322 7.48041C4.02251 7.31179 4.11352 7.16137 4.25056 7.05971C4.28475 7.03439 11.6781 2.60782 11.7015 2.59568C11.8753 2.5054 12.0962 2.50434 12.2702 2.59287L19.7123 7.02069C19.8883 7.13667 19.9987 7.33332 20.0085 7.5483V16.426C19.9995 16.6142 19.9276 16.7887 19.786 16.9076L18.3432 17.7724L17.5988 18.2187L14.9378 19.8138L12.2394 21.4313C12.094 21.4856 11.9241 21.4825 11.7799 21.422L8.58721 19.5225L7.93501 20.6667L10.8042 22.3754C10.8991 22.4312 10.9836 22.4807 11.053 22.521C11.1604 22.5832 11.2336 22.6249 11.2595 22.6379C11.4634 22.7404 11.7568 22.8 12.0212 22.8C12.2636 22.8 12.5 22.754 12.7237 22.6633L20.5616 17.9682C21.0115 17.6077 21.2762 17.0639 21.3 16.4749V7.49914Z" fill="#96BEDC"/>
</svg>
