<svg width="32" height="32" viewBox="0 0 32 32" fill="none" xmlns="http://www.w3.org/2000/svg">
<g id="Type=rewards">
<g id="Union">
<path fill-rule="evenodd" clip-rule="evenodd" d="M10.1992 5.25C10.0699 4.85673 10 4.43653 10 4H12C13.7726 4 15.2759 5.15303 15.8008 6.75C15.9301 7.14327 16 7.56347 16 8H14C12.2274 8 10.7241 6.84697 10.1992 5.25ZM14.4501 6.75C13.995 5.85958 13.0687 5.25 12 5.25H11.5499C12.005 6.14042 12.9313 6.75 14 6.75H14.4501Z" fill="#ADADAD"/>
<path fill-rule="evenodd" clip-rule="evenodd" d="M16 8H18C19.7726 8 21.2759 6.84697 21.8008 5.25C21.9301 4.85673 22 4.43653 22 4H20C18.2274 4 16.7241 5.15303 16.1992 6.75C16.0699 7.14327 16 7.56347 16 8ZM20 5.25C18.9313 5.25 18.005 5.85958 17.5499 6.75H18C19.0687 6.75 19.995 6.14042 20.4501 5.25H20Z" fill="#ADADAD"/>
<path fill-rule="evenodd" clip-rule="evenodd" d="M10 24C8.89543 24 8 23.1046 8 22L8 15C6.89543 15 6 14.1046 6 13V11C6 9.89543 6.89543 9 8 9H24C25.1046 9 26 9.89543 26 11V13C26 14.1046 25.1046 15 24 15V22C24 23.1046 23.1046 24 22 24H10ZM24.8636 11.25C24.8636 10.6977 24.4159 10.25 23.8636 10.25H16.625V13.75H23.8636C24.4159 13.75 24.8636 13.3023 24.8636 12.75V11.25ZM15.375 13.75H8.13636C7.58408 13.75 7.13636 13.3023 7.13636 12.75V11.25C7.13636 10.6977 7.58408 10.25 8.13636 10.25H15.375V13.75ZM15.375 15V23.0385H10.1111C9.55883 23.0385 9.11111 22.5907 9.11111 22.0385V15H15.375ZM16.625 23.0385V15H22.8889V22.0385C22.8889 22.5907 22.4412 23.0385 21.8889 23.0385H16.625Z" fill="#ADADAD"/>
</g>
</g>
</svg>
