<svg width="32" height="32" viewBox="0 0 32 32" fill="none" xmlns="http://www.w3.org/2000/svg">
<g id="Type=referrals">
<g id="Union">
<path fill-rule="evenodd" clip-rule="evenodd" d="M19 8C19 9.65685 17.6569 11 16 11C14.3431 11 13 9.65685 13 8C13 6.34315 14.3431 5 16 5C17.6569 5 19 6.34315 19 8ZM17.75 8C17.75 8.9665 16.9665 9.75 16 9.75C15.0335 9.75 14.25 8.9665 14.25 8C14.25 7.0335 15.0335 6.25 16 6.25C16.9665 6.25 17.75 7.0335 17.75 8Z" fill="#ADADAD"/>
<path d="M11 15C11 13.276 11.8726 11.7557 13.2002 10.8568C13.5287 11.1788 13.9125 11.4445 14.3359 11.6385C13.1702 12.2167 12.3482 13.3834 12.2582 14.75H19.7418C19.6518 13.3834 18.8298 12.2167 17.6641 11.6385C18.0875 11.4445 18.4713 11.1788 18.7998 10.8568C20.1274 11.7557 21 13.276 21 15C21 15.5523 20.5523 16 20 16H12C11.4477 16 11 15.5523 11 15Z" fill="#ADADAD"/>
<path d="M9.5 19.25C9.29289 19.25 9.125 19.4179 9.125 19.625V21H7.875V19.625C7.875 18.7275 8.60254 18 9.5 18H22.5C23.3975 18 24.125 18.7275 24.125 19.625V21H22.875V19.625C22.875 19.4179 22.7071 19.25 22.5 19.25H16.625V21H15.375V19.25H9.5Z" fill="#ADADAD"/>
<path d="M10 23.125C10 23.9534 9.32843 24.625 8.5 24.625C7.67157 24.625 7 23.9534 7 23.125C7 22.2966 7.67157 21.625 8.5 21.625C9.32843 21.625 10 22.2966 10 23.125Z" fill="#ADADAD"/>
<path d="M17.5 23.125C17.5 23.9534 16.8284 24.625 16 24.625C15.1716 24.625 14.5 23.9534 14.5 23.125C14.5 22.2966 15.1716 21.625 16 21.625C16.8284 21.625 17.5 22.2966 17.5 23.125Z" fill="#ADADAD"/>
<path d="M25 23.125C25 23.9534 24.3284 24.625 23.5 24.625C22.6716 24.625 22 23.9534 22 23.125C22 22.2966 22.6716 21.625 23.5 21.625C24.3284 21.625 25 22.2966 25 23.125Z" fill="#ADADAD"/>
</g>
</g>
</svg>
