<svg width="38" height="20" viewBox="0 0 38 20" fill="none" xmlns="http://www.w3.org/2000/svg">
<rect y="4" width="38" height="12" rx="4" fill="url(#paint0_linear_36_2053)"/>
<path d="M6 11.6134L6.91849 11.1724C6.99995 11.376 7.08421 11.5329 7.17129 11.6431C7.29487 11.7958 7.45076 11.9074 7.63896 11.9781C7.82996 12.0459 8.07573 12.0799 8.37628 12.0799C8.81726 12.0799 9.14028 11.9993 9.34532 11.8382C9.51947 11.7053 9.60655 11.5216 9.60655 11.2869C9.60655 11.0212 9.46751 10.8191 9.18943 10.6806C9.04337 10.6071 8.69087 10.4827 8.13191 10.3074C7.58138 10.135 7.16145 9.93286 6.87214 9.70106C6.507 9.41555 6.32442 9.04099 6.32442 8.57739C6.32442 8.10813 6.50419 7.73074 6.86372 7.44523C7.23729 7.14841 7.73586 7 8.35942 7C9.25825 7 9.93658 7.32509 10.3944 7.97527L9.57284 8.50106C9.31443 8.09965 8.90153 7.89894 8.33414 7.89894C8.02798 7.89894 7.78782 7.95689 7.61368 8.07279C7.43953 8.18869 7.35246 8.34841 7.35246 8.55194C7.35246 8.78375 7.45919 8.96325 7.67266 9.09046C7.77097 9.14982 7.86085 9.19505 7.94231 9.22615C8.02377 9.25442 8.2583 9.33074 8.64592 9.45512C9.25263 9.64735 9.70907 9.8424 10.0152 10.0403C10.4394 10.3145 10.6514 10.7173 10.6514 11.2488C10.6514 11.5767 10.5714 11.8792 10.4113 12.1562C10.0826 12.7187 9.4001 13 8.36364 13C7.49009 13 6.84406 12.7908 6.42554 12.3724C6.24577 12.1943 6.10393 11.9413 6 11.6134Z" fill="#121212"/>
<path d="M14.6582 7C15.734 7 16.5767 7.30671 17.1862 7.92014C17.7143 8.45442 17.9783 9.147 17.9783 9.99788C17.9783 10.8516 17.7143 11.5456 17.1862 12.0799C16.8491 12.4219 16.432 12.6678 15.9349 12.8177C15.5248 12.9392 15.102 13 14.6667 13C13.5768 13 12.73 12.6933 12.1261 12.0799C11.598 11.5428 11.334 10.836 11.334 9.95972C11.334 9.44523 11.4449 8.97456 11.6668 8.5477C11.9674 7.9682 12.4449 7.54558 13.0993 7.27986C13.5628 7.09329 14.0824 7 14.6582 7ZM14.6582 7.92014C13.9251 7.92014 13.3521 8.13357 12.9392 8.56042C12.5937 8.91661 12.421 9.38728 12.421 9.97244C12.421 10.5943 12.5937 11.0834 12.9392 11.4396C13.3493 11.8664 13.9251 12.0799 14.6667 12.0799C15.3942 12.0799 15.9629 11.8664 16.373 11.4396C16.7185 11.0834 16.8913 10.6028 16.8913 9.99788C16.8913 9.39576 16.7185 8.91661 16.373 8.56042C15.9629 8.13357 15.3913 7.92014 14.6582 7.92014Z" fill="#121212"/>
<path d="M22.0567 7C23.1325 7 23.9752 7.30671 24.5847 7.92014C25.1127 8.45442 25.3768 9.147 25.3768 9.99788C25.3768 10.8516 25.1127 11.5456 24.5847 12.0799C24.2476 12.4219 23.8305 12.6678 23.3333 12.8177C22.9232 12.9392 22.5005 13 22.0651 13C20.9753 13 20.1284 12.6933 19.5245 12.0799C18.9965 11.5428 18.7325 10.836 18.7325 9.95972C18.7325 9.44523 18.8434 8.97456 19.0653 8.5477C19.3659 7.9682 19.8434 7.54558 20.4978 7.27986C20.9613 7.09329 21.4809 7 22.0567 7ZM22.0567 7.92014C21.3236 7.92014 20.7506 8.13357 20.3377 8.56042C19.9922 8.91661 19.8195 9.38728 19.8195 9.97244C19.8195 10.5943 19.9922 11.0834 20.3377 11.4396C20.7478 11.8664 21.3236 12.0799 22.0651 12.0799C22.7926 12.0799 23.3614 11.8664 23.7715 11.4396C24.117 11.0834 24.2897 10.6028 24.2897 9.99788C24.2897 9.39576 24.117 8.91661 23.7715 8.56042C23.3614 8.13357 22.7898 7.92014 22.0567 7.92014Z" fill="#121212"/>
<path d="M26.5017 12.894V7.09329H27.2306L30.9846 11.1555V7.10601H32V12.9618H31.3427L27.5171 8.74276V12.894H26.5017Z" fill="#121212"/>
<defs>
<linearGradient id="paint0_linear_36_2053" x1="19" y1="4" x2="19" y2="16" gradientUnits="userSpaceOnUse">
<stop stop-color="#9D8B43"/>
<stop offset="1" stop-color="#9D7343"/>
</linearGradient>
</defs>
</svg>
