<svg width="32" height="32" viewBox="0 0 32 32" fill="none" xmlns="http://www.w3.org/2000/svg">
<path fill-rule="evenodd" clip-rule="evenodd" d="M11 8.5V5.5C11 4.94772 11.4477 4.5 12 4.5H24C24.5523 4.5 25 4.94772 25 5.5V20.5C25 21.0523 24.5523 21.5 24 21.5H21V24.5C21 25.0523 20.5523 25.5 20 25.5H8C7.44772 25.5 7 25.0523 7 24.5V12.7071C7 12.5745 7.05268 12.4473 7.14645 12.3536L11 8.5ZM23.5 5.5C23.7761 5.5 24 5.72386 24 6V20C24 20.2761 23.7761 20.5 23.5 20.5H21V9.5C21 8.94772 20.5523 8.5 20 8.5H12V6C12 5.72386 12.2239 5.5 12.5 5.5H23.5ZM8 13.5V24C8 24.2761 8.22386 24.5 8.5 24.5H19.5C19.7761 24.5 20 24.2761 20 24V10C20 9.72386 19.7761 9.5 19.5 9.5H12V12.5C12 13.0523 11.5523 13.5 11 13.5H8ZM11 9.91421L8.41421 12.5H10.5C10.7761 12.5 11 12.2761 11 12V9.91421Z" fill="#ADADAD"/>
</svg>
