<svg width="20" height="20" viewBox="0 0 20 20" fill="none" xmlns="http://www.w3.org/2000/svg">
<path d="M15.5 7C15.5 7.69223 15.2947 8.36892 14.9101 8.94449C14.5256 9.52007 13.9789 9.96867 13.3394 10.2336C12.6999 10.4985 11.9961 10.5678 11.3172 10.4327C10.6383 10.2977 10.0146 9.96436 9.52513 9.47487C9.03564 8.98539 8.7023 8.36175 8.56725 7.68281C8.4322 7.00388 8.50152 6.30015 8.76642 5.66061C9.03133 5.02107 9.47993 4.47444 10.0555 4.08986C10.6311 3.70527 11.3078 3.5 12 3.5V7H15.5Z" fill="url(#paint0_linear_735_678)"/>
<path d="M13 2.5C13.4596 2.5 13.9148 2.59053 14.3394 2.76642C14.764 2.94231 15.1499 3.20012 15.4749 3.52513C15.7999 3.85013 16.0577 4.23597 16.2336 4.66061C16.4095 5.08525 16.5 5.54037 16.5 6L13 6V2.5Z" fill="url(#paint1_linear_735_678)"/>
<path fill-rule="evenodd" clip-rule="evenodd" d="M3.5 5.35185C3.5 3.77682 4.78475 2.5 6.36957 2.5H7.93478V4.05556H6.36957C5.64919 4.05556 5.06522 4.63593 5.06522 5.35185V12.6481C5.06522 13.3641 5.64919 13.9444 6.36957 13.9444H12.6304C13.3508 13.9444 13.9348 13.3641 13.9348 12.6481V12.0926H15.5V12.6481C15.5 14.2232 14.2153 15.5 12.6304 15.5H6.36957C4.78475 15.5 3.5 14.2232 3.5 12.6481V5.35185Z" fill="url(#paint2_linear_735_678)"/>
<defs>
<linearGradient id="paint0_linear_735_678" x1="10" y1="2.5" x2="10" y2="15.5" gradientUnits="userSpaceOnUse">
<stop stop-color="#338464"/>
<stop offset="1" stop-color="#338449"/>
</linearGradient>
<linearGradient id="paint1_linear_735_678" x1="10" y1="2.5" x2="10" y2="15.5" gradientUnits="userSpaceOnUse">
<stop stop-color="#338464"/>
<stop offset="1" stop-color="#338449"/>
</linearGradient>
<linearGradient id="paint2_linear_735_678" x1="10" y1="2.5" x2="10" y2="15.5" gradientUnits="userSpaceOnUse">
<stop stop-color="#338464"/>
<stop offset="1" stop-color="#338449"/>
</linearGradient>
</defs>
</svg>
