<svg width="24" height="24" viewBox="0 0 24 24" fill="none" xmlns="http://www.w3.org/2000/svg">
<path fill-rule="evenodd" clip-rule="evenodd" d="M8.5 5.5H6C5.72386 5.5 5.5 5.72386 5.5 6V8.5H8.5V5.5ZM6 4C4.89543 4 4 4.89543 4 6V10H10V4H6Z" fill="#4A8251"/>
<path fill-rule="evenodd" clip-rule="evenodd" d="M8.5 15.5H5.5V18C5.5 18.2761 5.72386 18.5 6 18.5H8.5V15.5ZM4 14V18C4 19.1046 4.89543 20 6 20H10V14H4Z" fill="#8F4C4F"/>
<path fill-rule="evenodd" clip-rule="evenodd" d="M18 5.5H15.5V8.5H18.5V6C18.5 5.72386 18.2761 5.5 18 5.5ZM14 4V10H20V6C20 4.89543 19.1046 4 18 4H14Z" fill="#9A8C4E"/>
<path fill-rule="evenodd" clip-rule="evenodd" d="M18.5 15.5H15.5V18.5H18C18.2761 18.5 18.5 18.2761 18.5 18V15.5ZM14 14V20H18C19.1046 20 20 19.1046 20 18V14H14Z" fill="#5C4D90"/>
</svg>
