<svg width="32" height="32" viewBox="0 0 32 32" fill="none" xmlns="http://www.w3.org/2000/svg">
<path d="M8.75024 7.30029C8.34985 6.8999 7.70069 6.8999 7.30029 7.30029C6.8999 7.70069 6.8999 8.34985 7.30029 8.75025L14.5501 16L7.30034 23.2498C6.89995 23.6501 6.89995 24.2993 7.30034 24.6997C7.70073 25.1001 8.3499 25.1001 8.75029 24.6997L16 17.45L23.2497 24.6997C23.6501 25.1001 24.2993 25.1001 24.6997 24.6997C25.1 24.2993 25.1 23.6501 24.6997 23.2498L17.4499 16L24.6997 8.75025C25.1001 8.34985 25.1001 7.70069 24.6997 7.30029C24.2993 6.8999 23.6502 6.8999 23.2498 7.30029L16 14.5501L8.75024 7.30029Z" fill="#ADADAD"/>
</svg>
