<svg width="32" height="32" viewBox="0 0 32 32" fill="none" xmlns="http://www.w3.org/2000/svg">
<path fill-rule="evenodd" clip-rule="evenodd" d="M16 18C18.7614 18 21 15.7614 21 13C21 10.2386 18.7614 8 16 8C13.2386 8 11 10.2386 11 13C11 15.7614 13.2386 18 16 18ZM16 19C19.3137 19 22 16.3137 22 13C22 9.68629 19.3137 7 16 7C12.6863 7 10 9.68629 10 13C10 16.3137 12.6863 19 16 19Z" fill="#ADADAD"/>
<path d="M8 24.5C8 24.2239 8.22386 24 8.5 24H23.5C23.7761 24 24 24.2239 24 24.5C24 24.7761 23.7761 25 23.5 25H8.5C8.22386 25 8 24.7761 8 24.5Z" fill="#ADADAD"/>
<path d="M10 21.5C10 21.2239 10.2239 21 10.5 21H21.5C21.7761 21 22 21.2239 22 21.5C22 21.7761 21.7761 22 21.5 22H10.5C10.2239 22 10 21.7761 10 21.5Z" fill="#ADADAD"/>
</svg>
