<svg width="20" height="20" viewBox="0 0 20 20" fill="none" xmlns="http://www.w3.org/2000/svg">
<g id="icon-step">
<g id="Vector">
<path fill-rule="evenodd" clip-rule="evenodd" d="M8 18.5L14 14.5H16C17.1046 14.5 18 13.6046 18 12.5V4.5C18 3.39543 17.1046 2.5 16 2.5H4C2.89543 2.5 2 3.39543 2 4.5V12.5C2 13.6046 2.89543 14.5 4 14.5H8.5L8 18.5ZM9.89493 15.4339L13.5458 13H16C16.2761 13 16.5 12.7761 16.5 12.5V4.5C16.5 4.22386 16.2761 4 16 4H4C3.72386 4 3.5 4.22386 3.5 4.5V12.5C3.5 12.7761 3.72386 13 4 13H10.1992L9.89493 15.4339Z" fill="url(#paint0_linear_9_1678)"/>
<path d="M7.75 8.5C7.75 8.91421 7.41421 9.25 7 9.25C6.58579 9.25 6.25 8.91421 6.25 8.5C6.25 8.08579 6.58579 7.75 7 7.75C7.41421 7.75 7.75 8.08579 7.75 8.5Z" fill="url(#paint1_linear_9_1678)"/>
<path d="M10.75 8.5C10.75 8.91421 10.4142 9.25 10 9.25C9.58579 9.25 9.25 8.91421 9.25 8.5C9.25 8.08579 9.58579 7.75 10 7.75C10.4142 7.75 10.75 8.08579 10.75 8.5Z" fill="url(#paint2_linear_9_1678)"/>
<path d="M13.75 8.5C13.75 8.91421 13.4142 9.25 13 9.25C12.5858 9.25 12.25 8.91421 12.25 8.5C12.25 8.08579 12.5858 7.75 13 7.75C13.4142 7.75 13.75 8.08579 13.75 8.5Z" fill="url(#paint3_linear_9_1678)"/>
</g>
</g>
<defs>
<linearGradient id="paint0_linear_9_1678" x1="10" y1="2.5" x2="10" y2="18.5" gradientUnits="userSpaceOnUse">
<stop stop-color="#338464"/>
<stop offset="1" stop-color="#338449"/>
</linearGradient>
<linearGradient id="paint1_linear_9_1678" x1="10" y1="2.5" x2="10" y2="18.5" gradientUnits="userSpaceOnUse">
<stop stop-color="#338464"/>
<stop offset="1" stop-color="#338449"/>
</linearGradient>
<linearGradient id="paint2_linear_9_1678" x1="10" y1="2.5" x2="10" y2="18.5" gradientUnits="userSpaceOnUse">
<stop stop-color="#338464"/>
<stop offset="1" stop-color="#338449"/>
</linearGradient>
<linearGradient id="paint3_linear_9_1678" x1="10" y1="2.5" x2="10" y2="18.5" gradientUnits="userSpaceOnUse">
<stop stop-color="#338464"/>
<stop offset="1" stop-color="#338449"/>
</linearGradient>
</defs>
</svg>
