<svg width="32" height="32" viewBox="0 0 32 32" fill="none" xmlns="http://www.w3.org/2000/svg">
<path fill-rule="evenodd" clip-rule="evenodd" d="M16 8H12C9.79086 8 8 9.79086 8 12V20C8 22.2091 9.79086 24 12 24H20C22.2091 24 24 22.2091 24 20V16H23V20C23 21.6569 21.6569 23 20 23H12C10.3431 23 9 21.6569 9 20V12C9 10.3431 10.3431 9 12 9H16V8Z" fill="#ADADAD"/>
<path fill-rule="evenodd" clip-rule="evenodd" d="M22.2929 9H19V8H24V13H23V9.70711L16.3536 16.3536L15.6464 15.6464L22.2929 9Z" fill="#ADADAD"/>
</svg>
