<svg width="28" height="28" viewBox="0 0 28 28" fill="none" xmlns="http://www.w3.org/2000/svg">
<g clip-path="url(#clip0_126_339)">
<path d="M28 5.45227C27.0218 5.90138 25.971 6.20484 24.8663 6.342C25.9932 5.64284 26.8578 4.5334 27.2655 3.21275C26.2111 3.86094 25.0432 4.3319 23.8002 4.58438C22.8044 3.48708 21.3869 2.80005 19.8171 2.80005C16.804 2.80005 14.3603 5.3321 14.3603 8.45649C14.3603 8.89833 14.4095 9.32802 14.5009 9.74315C9.96367 9.50646 5.94426 7.2548 3.25216 3.83423C2.78356 4.67177 2.51412 5.64284 2.51412 6.67702C2.51412 8.63857 3.47826 10.3707 4.94146 11.3843C4.04643 11.3539 3.2053 11.1002 2.4696 10.6766V10.7494C2.4696 13.489 4.34985 15.7747 6.84748 16.2942C6.38826 16.4228 5.90677 16.4908 5.41006 16.4908C5.05861 16.4908 4.71536 16.4568 4.38265 16.3913C5.07735 18.6369 7.09233 20.2731 9.48101 20.3168C7.61247 21.8341 5.25893 22.7384 2.70273 22.7384C2.26224 22.7384 1.82762 22.7117 1.40002 22.6595C3.81565 24.2654 6.68347 25.2 9.76451 25.2C19.8042 25.2 25.2927 16.5843 25.2927 9.11196C25.2927 8.8692 25.2868 8.624 25.2763 8.38124C26.3424 7.58254 27.2678 6.58841 27.9977 5.45591L28 5.45227Z" fill="#EBEBEB"/>
</g>
<defs>
<clipPath id="clip0_126_339">
<rect width="28" height="28" fill="white"/>
</clipPath>
</defs>
</svg>
