<svg width="22" height="24" viewBox="0 0 22 24" fill="none" xmlns="http://www.w3.org/2000/svg">
<path d="M1 7.67162C1 7.31877 1.18596 6.99203 1.48934 6.81184L10.4893 1.46638C10.8041 1.27943 11.1959 1.27943 11.5107 1.46638L20.5107 6.81184C20.814 6.99203 21 7.31877 21 7.67162V12V16.3284C21 16.6812 20.814 17.008 20.5107 17.1882L11.5107 22.5336C11.1959 22.7206 10.8041 22.7206 10.4893 22.5336L1.48934 17.1882C1.18596 17.008 1 16.6812 1 16.3284V12V7.67162Z" fill="url(#paint0_linear_448_642)" stroke="url(#paint1_linear_448_642)" stroke-width="2"/>
<path d="M14.3334 7C13.9652 7 13.6667 7.29848 13.6667 7.66667V15.3333C13.6667 15.7015 13.9652 16 14.3334 16C14.7016 16 15.0001 15.7015 15.0001 15.3333V7.66667C15.0001 7.29848 14.7016 7 14.3334 7Z" fill="#8C7103"/>
<path d="M10.3333 10.2381C10.3333 9.86987 10.6317 9.57139 10.9999 9.57139C11.3681 9.57139 11.6666 9.86987 11.6666 10.2381V15.3333C11.6666 15.7015 11.3681 16 10.9999 16C10.6317 16 10.3333 15.7015 10.3333 15.3333V10.2381Z" fill="#8C7103"/>
<path d="M7 12.8096C7 12.4414 7.29848 12.1429 7.66667 12.1429C8.03486 12.1429 8.33333 12.4414 8.33333 12.8096V15.3334C8.33333 15.7016 8.03486 16 7.66667 16C7.29848 16 7 15.7016 7 15.3334V12.8096Z" fill="#8C7103"/>
<defs>
<linearGradient id="paint0_linear_448_642" x1="11" y1="0" x2="11" y2="24" gradientUnits="userSpaceOnUse">
<stop stop-color="#EBC66F"/>
<stop offset="1" stop-color="#E4B13A"/>
</linearGradient>
<linearGradient id="paint1_linear_448_642" x1="11" y1="0" x2="11" y2="24" gradientUnits="userSpaceOnUse">
<stop stop-color="#C59E1B"/>
<stop offset="1" stop-color="#907314"/>
</linearGradient>
</defs>
</svg>
