<svg width="32" height="32" viewBox="0 0 32 32" fill="none" xmlns="http://www.w3.org/2000/svg">
<g id="menu-Icon">
<g id="Union">
<path fill-rule="evenodd" clip-rule="evenodd" d="M22 11C22 14.3137 19.3137 17 16 17C12.6863 17 10 14.3137 10 11C10 7.68629 12.6863 5 16 5C19.3137 5 22 7.68629 22 11ZM21 11C21 13.7614 18.7614 16 16 16C13.2386 16 11 13.7614 11 11C11 8.23858 13.2386 6 16 6C18.7614 6 21 8.23858 21 11Z" fill="#ADADAD"/>
<path d="M10.7364 17.4511C10.8938 17.3286 11.1129 17.3374 11.2737 17.4553C11.546 17.655 11.5481 18.0815 11.2837 18.2915C9.92294 19.3725 9.03329 21.0491 9.00091 23H22.9991C22.9667 21.0491 22.0771 19.3725 20.7163 18.2915C20.4519 18.0815 20.454 17.655 20.7263 17.4553C20.8871 17.3374 21.1062 17.3286 21.2636 17.4511C22.9405 18.7556 24 20.8197 24 23.1429C24 23.6162 23.6162 24 23.1429 24H8.85714C8.38376 24 8 23.6162 8 23.1429C8 20.8197 9.05953 18.7556 10.7364 17.4511Z" fill="#ADADAD"/>
</g>
</g>
</svg>
