<svg width="20" height="20" viewBox="0 0 20 20" fill="none" xmlns="http://www.w3.org/2000/svg">
<g id="icon-ref-dashboard">
<path id="Union" fill-rule="evenodd" clip-rule="evenodd" d="M15 6.5C16.3807 6.5 17.5 5.38071 17.5 4C17.5 2.61929 16.3807 1.5 15 1.5C13.6193 1.5 12.5 2.61929 12.5 4C12.5 4.29165 12.5499 4.57163 12.6417 4.83187L6.84319 8.311C6.38616 7.81252 5.72958 7.5 5 7.5C3.61929 7.5 2.5 8.61929 2.5 10C2.5 11.3807 3.61929 12.5 5 12.5C5.72958 12.5 6.38616 12.1875 6.84318 11.689L12.6417 15.1681C12.5499 15.4284 12.5 15.7084 12.5 16C12.5 17.3807 13.6193 18.5 15 18.5C16.3807 18.5 17.5 17.3807 17.5 16C17.5 14.6193 16.3807 13.5 15 13.5C14.2704 13.5 13.6138 13.8125 13.1568 14.311L7.35826 10.8319C7.45006 10.5716 7.5 10.2916 7.5 10C7.5 9.70835 7.45006 9.42837 7.35827 9.16814L13.1568 5.68901C13.6138 6.18748 14.2704 6.5 15 6.5Z" fill="url(#paint0_linear_14_5498)"/>
</g>
<defs>
<linearGradient id="paint0_linear_14_5498" x1="10" y1="1.5" x2="10" y2="18.5" gradientUnits="userSpaceOnUse">
<stop stop-color="#338464"/>
<stop offset="1" stop-color="#338449"/>
</linearGradient>
</defs>
</svg>
