<svg width="40" height="40" viewBox="0 0 40 40" fill="none" xmlns="http://www.w3.org/2000/svg">
<rect x="0.5" y="0.5" width="39" height="39" rx="11.5" stroke="#333333"/>
<path fill-rule="evenodd" clip-rule="evenodd" d="M20.5189 26.5012C19.8728 26.6637 19.1965 26.75 18.5 26.75C13.9437 26.75 10.25 23.0563 10.25 18.5C10.25 13.9437 13.9437 10.25 18.5 10.25C23.0563 10.25 26.75 13.9437 26.75 18.5C26.75 19.1965 26.6637 19.8728 26.5012 20.5189C26.6658 20.5064 26.8322 20.5 27 20.5C27.2637 20.5 27.5236 20.5157 27.7791 20.5462C27.9238 19.8872 28 19.2025 28 18.5C28 13.2533 23.7467 9 18.5 9C13.2533 9 9 13.2533 9 18.5C9 23.7467 13.2533 28 18.5 28C19.2025 28 19.8872 27.9238 20.5462 27.7791C20.5157 27.5236 20.5 27.2637 20.5 27C20.5 26.8322 20.5064 26.6658 20.5189 26.5012ZM17.25 18.5V14H18.75V18.1597L22.4939 21.4356L21.5061 22.5644L17.5061 19.0644L17.25 18.8403V18.5ZM32 27C32 29.7614 29.7614 32 27 32C24.2386 32 22 29.7614 22 27C22 24.2386 24.2386 22 27 22C29.7614 22 32 24.2386 32 27ZM25.5 27C25.5 27.5523 25.0523 28 24.5 28C23.9477 28 23.5 27.5523 23.5 27C23.5 26.4477 23.9477 26 24.5 26C25.0523 26 25.5 26.4477 25.5 27ZM27 28C27.5523 28 28 27.5523 28 27C28 26.4477 27.5523 26 27 26C26.4477 26 26 26.4477 26 27C26 27.5523 26.4477 28 27 28ZM30.5 27C30.5 27.5523 30.0523 28 29.5 28C28.9477 28 28.5 27.5523 28.5 27C28.5 26.4477 28.9477 26 29.5 26C30.0523 26 30.5 26.4477 30.5 27Z" fill="#333333"/>
</svg>
