<svg width="20" height="20" viewBox="0 0 20 20" fill="none" xmlns="http://www.w3.org/2000/svg">
<path d="M6.66671 11.6666C6.66671 11.2064 7.0398 10.8333 7.50004 10.8333H15.8334C16.2936 10.8333 16.6667 11.2064 16.6667 11.6666C16.6667 12.1269 16.2936 12.5 15.8334 12.5H7.50004C7.0398 12.5 6.66671 12.1269 6.66671 11.6666Z" fill="url(#paint0_linear_947_769)"/>
<path d="M6.66671 15C6.66671 14.5397 7.0398 14.1666 7.50004 14.1666H15.8334C16.2936 14.1666 16.6667 14.5397 16.6667 15C16.6667 15.4602 16.2936 15.8333 15.8334 15.8333H7.50004C7.0398 15.8333 6.66671 15.4602 6.66671 15Z" fill="url(#paint1_linear_947_769)"/>
<path d="M6.66671 8.33329C6.66671 7.87306 7.0398 7.49996 7.50004 7.49996H15.8334C16.2936 7.49996 16.6667 7.87306 16.6667 8.33329C16.6667 8.79353 16.2936 9.16663 15.8334 9.16663H7.50004C7.0398 9.16663 6.66671 8.79353 6.66671 8.33329Z" fill="url(#paint2_linear_947_769)"/>
<path d="M6.66671 4.99996C6.66671 4.53972 7.0398 4.16663 7.50004 4.16663H15.8334C16.2936 4.16663 16.6667 4.53972 16.6667 4.99996C16.6667 5.4602 16.2936 5.83329 15.8334 5.83329H7.50004C7.0398 5.83329 6.66671 5.4602 6.66671 4.99996Z" fill="url(#paint3_linear_947_769)"/>
<path d="M5.00004 4.99996C5.00004 5.4602 4.62694 5.83329 4.16671 5.83329C3.70647 5.83329 3.33337 5.4602 3.33337 4.99996C3.33337 4.53972 3.70647 4.16663 4.16671 4.16663C4.62694 4.16663 5.00004 4.53972 5.00004 4.99996Z" fill="url(#paint4_linear_947_769)"/>
<path d="M5.00004 8.33329C5.00004 8.79353 4.62694 9.16663 4.16671 9.16663C3.70647 9.16663 3.33337 8.79353 3.33337 8.33329C3.33337 7.87306 3.70647 7.49996 4.16671 7.49996C4.62694 7.49996 5.00004 7.87306 5.00004 8.33329Z" fill="url(#paint5_linear_947_769)"/>
<path d="M5.00004 11.6666C5.00004 12.1269 4.62694 12.5 4.16671 12.5C3.70647 12.5 3.33337 12.1269 3.33337 11.6666C3.33337 11.2064 3.70647 10.8333 4.16671 10.8333C4.62694 10.8333 5.00004 11.2064 5.00004 11.6666Z" fill="url(#paint6_linear_947_769)"/>
<path d="M5.00004 15C5.00004 15.4602 4.62694 15.8333 4.16671 15.8333C3.70647 15.8333 3.33337 15.4602 3.33337 15C3.33337 14.5397 3.70647 14.1666 4.16671 14.1666C4.62694 14.1666 5.00004 14.5397 5.00004 15Z" fill="url(#paint7_linear_947_769)"/>
<defs>
<linearGradient id="paint0_linear_947_769" x1="10" y1="4.16663" x2="10" y2="15.8333" gradientUnits="userSpaceOnUse">
<stop stop-color="#338464"/>
<stop offset="1" stop-color="#338449"/>
</linearGradient>
<linearGradient id="paint1_linear_947_769" x1="10" y1="4.16663" x2="10" y2="15.8333" gradientUnits="userSpaceOnUse">
<stop stop-color="#338464"/>
<stop offset="1" stop-color="#338449"/>
</linearGradient>
<linearGradient id="paint2_linear_947_769" x1="10" y1="4.16663" x2="10" y2="15.8333" gradientUnits="userSpaceOnUse">
<stop stop-color="#338464"/>
<stop offset="1" stop-color="#338449"/>
</linearGradient>
<linearGradient id="paint3_linear_947_769" x1="10" y1="4.16663" x2="10" y2="15.8333" gradientUnits="userSpaceOnUse">
<stop stop-color="#338464"/>
<stop offset="1" stop-color="#338449"/>
</linearGradient>
<linearGradient id="paint4_linear_947_769" x1="10" y1="4.16663" x2="10" y2="15.8333" gradientUnits="userSpaceOnUse">
<stop stop-color="#338464"/>
<stop offset="1" stop-color="#338449"/>
</linearGradient>
<linearGradient id="paint5_linear_947_769" x1="10" y1="4.16663" x2="10" y2="15.8333" gradientUnits="userSpaceOnUse">
<stop stop-color="#338464"/>
<stop offset="1" stop-color="#338449"/>
</linearGradient>
<linearGradient id="paint6_linear_947_769" x1="10" y1="4.16663" x2="10" y2="15.8333" gradientUnits="userSpaceOnUse">
<stop stop-color="#338464"/>
<stop offset="1" stop-color="#338449"/>
</linearGradient>
<linearGradient id="paint7_linear_947_769" x1="10" y1="4.16663" x2="10" y2="15.8333" gradientUnits="userSpaceOnUse">
<stop stop-color="#338464"/>
<stop offset="1" stop-color="#338449"/>
</linearGradient>
</defs>
</svg>
