<svg width="24" height="24" viewBox="0 0 24 24" fill="none" xmlns="http://www.w3.org/2000/svg">
<path d="M8.97894 8.28567C8.91836 8.99506 8.87585 10.2505 9.25738 10.7848C9.25738 10.7848 9.07778 9.40575 10.6878 7.67547C11.3361 6.97892 11.486 6.03152 11.2596 5.32097C11.131 4.91845 10.8961 4.58592 10.6921 4.35374C10.5731 4.21723 10.6645 3.99205 10.8377 4.00022C11.8856 4.05155 13.5838 4.37124 14.3054 6.35938C14.6221 7.2321 14.6455 8.134 14.4946 9.05106C14.399 9.63677 14.0589 10.9389 14.8347 11.0987C15.3884 11.213 15.6562 10.73 15.7763 10.3823C15.8262 10.2376 15.9995 10.2015 16.093 10.317C17.0282 11.4849 17.1079 12.8605 16.9145 14.0447C16.5404 16.3339 14.4287 18 12.3309 18C9.71011 18 7.62393 16.3537 7.08299 13.3739C6.86513 12.1709 6.97565 9.79078 8.66543 8.11066C8.79083 7.98465 8.99594 8.09666 8.97894 8.28567Z" fill="url(#paint0_radial_46_548)"/>
<path d="M13.452 13.0295C12.3096 11.5298 12.8211 9.81863 13.1014 9.13673C13.1391 9.047 13.0385 8.96241 12.9594 9.01752C12.4679 9.35848 11.4612 10.1609 10.9924 11.2901C10.3578 12.8167 10.403 13.564 10.7788 14.4766C11.005 15.0265 10.7423 15.1431 10.6104 15.1636C10.4822 15.1842 10.364 15.097 10.2698 15.006C9.99956 14.7432 9.80476 14.401 9.71175 14.0318C9.69165 13.9524 9.58984 13.9306 9.54334 13.9959C9.19144 14.492 9.0092 15.288 9.0004 15.8507C8.97275 17.59 10.3816 19 12.0859 19C14.2338 19 15.7985 16.5774 14.5643 14.5522C14.2061 13.9626 13.8693 13.5768 13.452 13.0295Z" fill="url(#paint1_radial_46_548)"/>
<defs>
<radialGradient id="paint0_radial_46_548" cx="0" cy="0" r="1" gradientUnits="userSpaceOnUse" gradientTransform="translate(11.8118 18.0363) rotate(-179.727) scale(7.50173 13.5133)">
<stop offset="0.320277" stop-color="#FF9800"/>
<stop offset="0.6616" stop-color="#FF6D00"/>
<stop offset="0.9715" stop-color="#F44336"/>
</radialGradient>
<radialGradient id="paint1_radial_46_548" cx="0" cy="0" r="1" gradientUnits="userSpaceOnUse" gradientTransform="translate(12.204 10.0351) rotate(90.5675) scale(9.46671 6.98566)">
<stop offset="0.2141" stop-color="#FFF176"/>
<stop offset="0.3275" stop-color="#FFF27D"/>
<stop offset="0.4868" stop-color="#FFF48F"/>
<stop offset="0.6722" stop-color="#FFF7AD"/>
<stop offset="0.7931" stop-color="#FFF9C4"/>
<stop offset="0.8221" stop-color="#FFF8BD" stop-opacity="0.804"/>
<stop offset="0.8627" stop-color="#FFF6AB" stop-opacity="0.529"/>
<stop offset="0.9101" stop-color="#FFF38D" stop-opacity="0.2088"/>
<stop offset="0.9409" stop-color="#FFF176" stop-opacity="0"/>
</radialGradient>
</defs>
</svg>
