<svg width="20" height="20" viewBox="0 0 20 20" fill="none" xmlns="http://www.w3.org/2000/svg">
<path d="M17 9.63044V14.2222C17 14.4285 16.9181 14.6263 16.7722 14.7722C16.6263 14.9181 16.4285 15 16.2222 15H11.5488C11.6592 14.9028 11.765 14.804 11.8653 14.7052L13.1448 13.4444H15.4444V11.1634L17 9.63044ZM17 4.60933C16.5631 4.43939 16.0864 4.39926 15.6272 4.49377C15.168 4.58829 14.7459 4.81342 14.4116 5.14211L13.5412 6H4.55556V13.4444H6.9C6.6749 13.9299 6.59832 14.4711 6.67989 15H3.77778C3.5715 15 3.37367 14.9181 3.22781 14.7722C3.08194 14.6263 3 14.4285 3 14.2222V4.11111C3 3.90483 3.08194 3.707 3.22781 3.56114C3.37367 3.41528 3.5715 3.33333 3.77778 3.33333H6.11111V2.77778C6.11111 2.5715 6.19306 2.37367 6.33892 2.22781C6.48478 2.08194 6.68261 2 6.88889 2C7.09517 2 7.293 2.08194 7.43886 2.22781C7.58472 2.37367 7.66667 2.5715 7.66667 2.77778V3.33333H12.3333V2.77778C12.3333 2.5715 12.4153 2.37367 12.5611 2.22781C12.707 2.08194 12.9048 2 13.1111 2C13.3174 2 13.5152 2.08194 13.6611 2.22781C13.8069 2.37367 13.8889 2.5715 13.8889 2.77778V3.33333H16.2222C16.4285 3.33333 16.6263 3.41528 16.7722 3.56114C16.9181 3.707 17 3.90483 17 4.11111V4.60933Z" fill="url(#paint0_linear_139_305)"/>
<path d="M16.7472 7.7L10.7694 13.6C10.4296 13.9352 8.62122 15.1594 8.28055 14.8219C7.93989 14.4843 9.18978 12.711 9.525 12.3758L15.5028 6.47578C15.6686 6.31462 15.8911 6.22499 16.1224 6.22615C16.3536 6.22732 16.5752 6.31918 16.7394 6.482C16.8206 6.56107 16.8853 6.65548 16.9297 6.75975C16.974 6.86401 16.9973 6.97606 16.998 7.08937C16.9987 7.20269 16.9769 7.31502 16.9339 7.41985C16.8908 7.52467 16.8274 7.6199 16.7472 7.7Z" fill="url(#paint1_linear_139_305)"/>
<defs>
<linearGradient id="paint0_linear_139_305" x1="10" y1="2" x2="10" y2="15" gradientUnits="userSpaceOnUse">
<stop stop-color="#338464"/>
<stop offset="1" stop-color="#338449"/>
</linearGradient>
<linearGradient id="paint1_linear_139_305" x1="10" y1="2" x2="10" y2="15" gradientUnits="userSpaceOnUse">
<stop stop-color="#338464"/>
<stop offset="1" stop-color="#338449"/>
</linearGradient>
</defs>
</svg>
