<svg width="32" height="32" viewBox="0 0 32 32" fill="none" xmlns="http://www.w3.org/2000/svg">
<path fill-rule="evenodd" clip-rule="evenodd" d="M24 15.5C24 15.2239 23.7761 15 23.5 15H8.5C8.22386 15 8 15.2239 8 15.5V22.5C8 22.7761 8.22386 23 8.5 23H23.5C23.7761 23 24 22.7761 24 22.5V15.5ZM8 14C7.44772 14 7 14.4477 7 15V23C7 23.5523 7.44772 24 8 24H24C24.5523 24 25 23.5523 25 23V15C25 14.4477 24.5523 14 24 14H8Z" fill="#ADADAD"/>
<path d="M10 11.5C10 11.2239 10.2239 11 10.5 11H21.5C21.7761 11 22 11.2239 22 11.5V13H23V11C23 10.4477 22.5523 10 22 10H10C9.44772 10 9 10.4477 9 11V13H10V11.5Z" fill="#ADADAD"/>
<path d="M12 7.5C12 7.22386 12.2239 7 12.5 7H19.5C19.7761 7 20 7.22386 20 7.5V9H21V7C21 6.44772 20.5523 6 20 6H12C11.4477 6 11 6.44772 11 7V9H12V7.5Z" fill="#ADADAD"/>
<path fill-rule="evenodd" clip-rule="evenodd" d="M16 20C16.5523 20 17 19.5523 17 19C17 18.4477 16.5523 18 16 18C15.4477 18 15 18.4477 15 19C15 19.5523 15.4477 20 16 20ZM16 21C17.1046 21 18 20.1046 18 19C18 17.8954 17.1046 17 16 17C14.8954 17 14 17.8954 14 19C14 20.1046 14.8954 21 16 21Z" fill="#ADADAD"/>
<path d="M10 16H9V17H10V16Z" fill="#ADADAD"/>
<path d="M10 22H9V21H10V22Z" fill="#ADADAD"/>
<path d="M23 16H22V17H23V16Z" fill="#ADADAD"/>
<path d="M22 22H23V21H22V22Z" fill="#ADADAD"/>
</svg>
