<svg width="48" height="48" viewBox="0 0 48 48" fill="none" xmlns="http://www.w3.org/2000/svg">
<path d="M24 21.6492L17.3508 15L15 17.3508L21.6492 24L15 30.6492L17.3508 33L24 26.3508L30.6492 33L33 30.6492L26.3508 24L33 17.3508L30.6492 15L24 21.6492Z" fill="#999999"/>
<path fill-rule="evenodd" clip-rule="evenodd" d="M44 24C44 35.0457 35.0457 44 24 44C12.9543 44 4 35.0457 4 24C4 12.9543 12.9543 4 24 4C35.0457 4 44 12.9543 44 24ZM41 24C41 33.3888 33.3888 41 24 41C14.6112 41 7 33.3888 7 24C7 14.6112 14.6112 7 24 7C33.3888 7 41 14.6112 41 24Z" fill="#999999"/>
</svg>
