<svg width="20" height="20" viewBox="0 0 20 20" fill="none" xmlns="http://www.w3.org/2000/svg">
<path d="M15.6 5.3H14.9V9.5C14.9 10.5 14 11.6 13 11.6H5.8V12.3C5.8 13.07 6.43 13.7 7.2 13.7H14.2L17 16.5V6.7C17 5.93 16.37 5.3 15.6 5.3ZM13.5 8.5V3.9C13.5 3.13 12.87 2.5 12.1 2.5H4.4C3.63 2.5 3 3.13 3 3.9V13L5.8 10.2H12C13 10.2 13.5 9.5 13.5 8.5Z" fill="url(#paint0_linear_137_287)"/>
<defs>
<linearGradient id="paint0_linear_137_287" x1="10" y1="2.5" x2="10" y2="16.5" gradientUnits="userSpaceOnUse">
<stop stop-color="#338464"/>
<stop offset="1" stop-color="#338449"/>
</linearGradient>
</defs>
</svg>
