<svg width="20" height="20" viewBox="0 0 20 20" fill="none" xmlns="http://www.w3.org/2000/svg">
<rect width="20" height="20" rx="10" fill="#C17F33"/>
<path fill-rule="evenodd" clip-rule="evenodd" d="M13.9359 7.85062C13.8082 6.58054 12.7221 6.13365 11.3531 5.98493L11.3434 4.22659L10.2834 4.20526L10.2928 5.91724C10.0142 5.91164 9.72933 5.91144 9.44635 5.91142L9.43706 4.18809L8.37758 4.16663V5.88443H6.25L6.25655 7.02753C6.25655 7.02753 7.03927 7.02831 7.02633 7.0426C7.45571 7.05142 7.59683 7.30592 7.63867 7.52392L7.66498 12.3408C7.64689 12.4768 7.56865 12.6928 7.26867 12.6872C7.2823 12.6996 6.4981 12.6714 6.4981 12.6714L6.29448 13.9454L7.67398 13.9732C7.93069 13.9787 8.18331 13.9882 8.43129 13.9948L8.4415 15.7732L9.5004 15.7948L9.49072 14.0352C9.7815 14.0472 10.0629 14.0552 10.3376 14.0605L10.3467 15.812L11.4068 15.8333L11.3974 14.0581C13.1789 13.9909 14.4238 13.5628 14.5694 11.8763C14.687 10.5182 14.0498 9.89827 13.0368 9.63252C13.6496 9.32898 14.0308 8.78001 13.9359 7.85062ZM9.49586 10.3853L9.50851 12.7415C10.3766 12.7712 12.4809 12.8424 12.4737 11.6231C12.4669 10.3763 10.3851 10.3821 9.49586 10.3853C9.56809 10.3868 9.39649 10.3857 9.49586 10.3853ZM9.48991 9.30678C10.0883 9.31884 11.9687 9.49796 11.9624 8.28888C11.9554 7.02777 10.0767 7.18188 9.47826 7.16982L9.48991 9.30678Z" fill="#EBEBEB"/>
</svg>
