<svg width="16" height="16" viewBox="0 0 16 16" fill="none" xmlns="http://www.w3.org/2000/svg">
<g id="Frame">
<g id="Clip path group">
<mask id="mask0_1169_731" style="mask-type:luminance" maskUnits="userSpaceOnUse" x="1" y="0" width="14" height="16">
<g id="clip0_4057_1924">
<path id="Vector" d="M14.7899 0H1.21008V15.3277H14.7899V0Z" fill="white"/>
</g>
</mask>
<g mask="url(#mask0_1169_731)">
<g id="Group">
<path id="Vector_2" d="M1.72559 4.65934V10.6684C1.72559 11.0521 1.93054 11.4068 2.26249 11.598L7.46434 14.6032C7.79624 14.7944 8.20491 14.7944 8.53688 14.6032L13.7387 11.598C14.0707 11.4068 14.2756 11.0521 14.2756 10.6684V4.65934C14.2756 4.27567 14.0707 3.92094 13.7387 3.72973L8.53688 0.724567C8.20491 0.53336 7.79624 0.53336 7.46434 0.724567L2.26123 3.72973C1.92928 3.92094 1.72559 4.27567 1.72559 4.65934Z" fill="#213147"/>
<path id="Vector_3" d="M9.13541 8.82931L8.39349 10.8646C8.37339 10.9212 8.37339 10.9829 8.39349 11.0395L9.6698 14.5415L11.146 13.6887L9.37427 8.82931C9.33407 8.71738 9.17561 8.71738 9.13541 8.82931Z" fill="#12AAFF"/>
<path id="Vector_4" d="M10.6229 5.40652C10.5826 5.29457 10.4241 5.29457 10.3839 5.40652L9.64208 7.44181C9.62191 7.49841 9.62191 7.56006 9.64208 7.61666L11.7331 13.3502L13.2093 12.4974L10.6229 5.40652Z" fill="#12AAFF"/>
<path id="Vector_5" d="M8 0.949728C8.03644 0.949728 8.07294 0.959792 8.10561 0.977405L13.735 4.22912C13.8003 4.26686 13.8406 4.3373 13.8406 4.41152V10.9137C13.8406 10.9892 13.8003 11.0584 13.735 11.0961L8.10561 14.3478C8.07422 14.3667 8.03644 14.3755 8 14.3755C7.96356 14.3755 7.92706 14.3654 7.89439 14.3478L2.26503 11.0986C2.19965 11.0608 2.15941 10.9905 2.15941 10.9162V4.41277C2.15941 4.3373 2.19965 4.26811 2.26503 4.23038L7.89439 0.978662C7.92706 0.959792 7.96356 0.949728 8 0.949728ZM8 0C7.80007 0 7.59892 0.0515745 7.41909 0.155982L1.791 3.40644C1.43139 3.614 1.21008 3.99766 1.21008 4.41277V10.915C1.21008 11.3301 1.43139 11.7137 1.791 11.9213L7.42037 15.173C7.60013 15.2762 7.80007 15.329 8.00128 15.329C8.20121 15.329 8.40235 15.2774 8.58218 15.173L14.2115 11.9213C14.5712 11.7137 14.7924 11.3301 14.7924 10.915V4.41277C14.7924 3.99766 14.5712 3.614 14.2115 3.40644L8.58091 0.155982C8.40107 0.0515745 8.19993 0 8 0Z" fill="#9DCCED"/>
<path id="Vector_6" d="M4.27686 13.3578L4.79491 11.9389L5.83728 12.8056L4.86281 13.6962L4.27686 13.3578Z" fill="#213147"/>
<path id="Vector_7" d="M7.52596 3.94734H6.0988C5.99191 3.94734 5.89636 4.01401 5.85989 4.11464L2.80066 12.5049L4.27683 13.3578L7.64542 4.11842C7.67681 4.0354 7.61523 3.94734 7.52596 3.94734Z" fill="white"/>
<path id="Vector_8" d="M10.0232 3.94734H8.59607C8.48918 3.94734 8.39365 4.01401 8.35714 4.11464L4.86414 13.6949L6.34032 14.5478L10.1427 4.11842C10.1729 4.0354 10.1112 3.94734 10.0232 3.94734Z" fill="white"/>
</g>
</g>
</g>
</g>
</svg>
