<svg width="28" height="28" viewBox="0 0 28 28" fill="none" xmlns="http://www.w3.org/2000/svg">
<path d="M1.73788 11.8015C1.92157 11.4983 2.26106 11.3115 2.62845 11.3115H5.82865C6.19605 11.3115 6.53554 11.4983 6.71924 11.8015L8.31934 14.4425C8.50304 14.7458 8.50304 15.1193 8.31934 15.4225L6.71924 18.0634C6.53554 18.3667 6.19605 18.5535 5.82865 18.5535H2.62845C2.26106 18.5535 1.92157 18.3667 1.73788 18.0634L0.137773 15.4225C-0.0459245 15.1193 -0.0459245 14.7458 0.137773 14.4425L1.73788 11.8015Z" fill="#EBEBEB"/>
<path d="M10.1093 7.19573C10.293 6.89253 10.6325 6.70576 10.9999 6.70576H14.2002C14.5675 6.70576 14.907 6.89253 15.0907 7.19573L16.6908 9.83674C16.8745 10.1399 16.8745 10.5135 16.6908 10.8167L15.0907 13.4577C14.907 13.761 14.5675 13.9477 14.2002 13.9477H10.9999C10.6325 13.9477 10.293 13.761 10.1093 13.4577L8.50922 10.8167C8.32553 10.5135 8.32553 10.1399 8.50922 9.83674L10.1093 7.19573Z" fill="#EBEBEB"/>
<path d="M9.96846 16.1748C10.1522 15.8715 10.4916 15.6848 10.8591 15.6848H14.0593C14.4266 15.6848 14.7661 15.8715 14.9498 16.1748L16.5499 18.8158C16.7336 19.1189 16.7336 19.4926 16.5499 19.7957L14.9498 22.4367C14.7661 22.74 14.4266 22.9267 14.0593 22.9267H10.8591C10.4916 22.9267 10.1522 22.74 9.96846 22.4367L8.36836 19.7957C8.18466 19.4926 8.18466 19.1189 8.36836 18.8158L9.96846 16.1748Z" fill="#EBEBEB"/>
<path d="M18.4808 2.58995C18.6644 2.28675 19.004 2.09998 19.3714 2.09998L22.5715 2.09998C22.939 2.09998 23.2785 2.28675 23.4622 2.58995L25.0623 5.23096C25.2459 5.53416 25.2459 5.90772 25.0623 6.21092L23.4622 8.85193C23.2785 9.15513 22.939 9.3419 22.5715 9.3419H19.3714C19.004 9.3419 18.6644 9.15513 18.4808 8.85193L16.8807 6.21092C16.697 5.90772 16.697 5.53416 16.8807 5.23096L18.4808 2.58995Z" fill="#EBEBEB"/>
<path d="M18.3399 11.569C18.5236 11.2658 18.8631 11.079 19.2305 11.079H22.4306C22.7981 11.079 23.1376 11.2658 23.3213 11.569L24.9214 14.21C25.1051 14.5132 25.1051 14.8867 24.9214 15.19L23.3213 17.831C23.1376 18.1341 22.7981 18.321 22.4306 18.321H19.2305C18.8631 18.321 18.5236 18.1341 18.3399 17.831L16.7398 15.19C16.5561 14.8867 16.5561 14.5132 16.7398 14.21L18.3399 11.569Z" fill="#EBEBEB"/>
<path d="M18.199 20.5481C18.3827 20.2448 18.7222 20.058 19.0897 20.058H22.2899C22.6572 20.058 22.9967 20.2448 23.1804 20.5481L24.7805 23.189C24.9642 23.4922 24.9642 23.8658 24.7805 24.169L23.1804 26.81C22.9967 27.1132 22.6572 27.3 22.2899 27.3H19.0897C18.7222 27.3 18.3827 27.1132 18.199 26.81L16.5989 24.169C16.4152 23.8658 16.4152 23.4922 16.5989 23.189L18.199 20.5481Z" fill="#EBEBEB"/>
<path d="M8.45905 6.28643C8.64275 5.98323 8.64275 5.60968 8.45905 5.30648L6.85895 2.66546C6.67525 2.36226 6.33577 2.17549 5.96837 2.17549L2.76817 2.17549C2.40077 2.17549 2.06128 2.36227 1.87759 2.66546L0.986491 3.9962H4.78041C5.14781 3.9962 5.4873 4.18298 5.67099 4.48618L7.56795 7.61716L8.45905 6.28643Z" fill="#EBEBEB"/>
</svg>
