<svg width="16" height="20" viewBox="0 0 16 20" fill="none" xmlns="http://www.w3.org/2000/svg">
<path d="M8.55475 5.83214C8.39601 5.93817 8.20522 5.99999 8 5.99999C7.79477 5.99999 7.60398 5.93817 7.44523 5.83212L5.99999 7.99999L2.80004 5.60003C2.68342 5.75527 2.52267 5.87546 2.33642 5.94199L4.5 12C4.5 12 5.5 13 8 13C10.5 13 11.5 12 11.5 12L13.6636 5.94199C13.4773 5.87546 13.3166 5.75526 13.1999 5.60002L9.99999 7.99999L8.55475 5.83214Z" fill="#CEB13B"/>
<path fill-rule="evenodd" clip-rule="evenodd" d="M2 6C2.55228 6 3 5.55228 3 5C3 4.44772 2.55228 4 2 4C1.44772 4 1 4.44772 1 5C1 5.55228 1.44772 6 2 6ZM2 5.5C2.27614 5.5 2.5 5.27614 2.5 5C2.5 4.72386 2.27614 4.5 2 4.5C1.72386 4.5 1.5 4.72386 1.5 5C1.5 5.27614 1.72386 5.5 2 5.5Z" fill="#DAC46C"/>
<path fill-rule="evenodd" clip-rule="evenodd" d="M8 6C8.55228 6 9 5.55228 9 5C9 4.44772 8.55228 4 8 4C7.44772 4 7 4.44772 7 5C7 5.55228 7.44772 6 8 6ZM8 5.5C8.27614 5.5 8.5 5.27614 8.5 5C8.5 4.72386 8.27614 4.5 8 4.5C7.72386 4.5 7.5 4.72386 7.5 5C7.5 5.27614 7.72386 5.5 8 5.5Z" fill="#DAC46C"/>
<path fill-rule="evenodd" clip-rule="evenodd" d="M14 6C14.5523 6 15 5.55228 15 5C15 4.44772 14.5523 4 14 4C13.4477 4 13 4.44772 13 5C13 5.55228 13.4477 6 14 6ZM14 5.5C14.2761 5.5 14.5 5.27614 14.5 5C14.5 4.72386 14.2761 4.5 14 4.5C13.7239 4.5 13.5 4.72386 13.5 5C13.5 5.27614 13.7239 5.5 14 5.5Z" fill="#DAC46C"/>
</svg>
