<svg width="60" height="44" viewBox="0 0 60 44" fill="none" xmlns="http://www.w3.org/2000/svg">
<path d="M42.6923 22.6754H43.8462H45V34.2544H42.6923V22.6754Z" fill="white"/>
<path d="M42.6923 20.3596C42.6923 19.7202 43.2089 19.2017 43.8462 19.2017C44.4834 19.2017 45 19.7202 45 20.3596C45 20.9991 44.4834 21.5175 43.8462 21.5175C43.2089 21.5175 42.6923 20.9991 42.6923 20.3596Z" fill="white"/>
<path d="M47.3077 28.4649C47.3077 25.2675 49.6154 22.6754 53.6538 22.6754C56.5385 22.6754 59.2974 24.334 59.999 26.6659L57.7428 27.2726C57.1681 25.7321 55.1319 24.9912 53.6538 24.9912C51.6703 24.9912 49.6154 26.1491 49.6154 28.4649C49.6154 30.7807 51.6703 31.9386 53.6538 31.9386C55.1319 31.9386 57.1705 31.1378 57.7441 29.5951L60 30.2017C59.2995 32.5354 56.5385 34.2544 53.6538 34.2544C49.6154 34.2544 47.3077 31.6623 47.3077 28.4649Z" fill="white"/>
<path fill-rule="evenodd" clip-rule="evenodd" d="M35.7692 38.886C38.3112 38.886 40.3733 36.8237 40.3846 34.2755C40.3802 33.276 40.0602 32.3365 39.5196 31.5817C40.0874 30.682 40.3846 29.6124 40.3846 28.4649C40.3846 25.2675 38.0769 22.6754 34.0385 22.6754C30 22.6754 27.6923 25.2675 27.6923 28.4649C27.6923 31.6623 30 34.2544 34.0385 34.2544C35.5615 34.2544 36.8384 33.8857 37.8381 33.255C37.9901 33.5629 38.0761 33.8877 38.0769 34.2544C38.0652 35.5233 37.0364 36.5701 35.7692 36.5702H29.4631L28.8462 38.881L35.7692 38.886ZM34.0385 24.9912C32.1267 24.9912 30 26.1491 30 28.4649C30 30.7807 32.1267 31.9386 34.0385 31.9386C35.9502 31.9386 38.0769 30.7807 38.0769 28.4649C38.0769 26.1491 35.9502 24.9912 34.0385 24.9912Z" fill="white"/>
<path d="M0 18.0439H2.30769V24.9912H9.23077V18.0439H11.5385V34.2544H9.23077V27.307H2.30769V34.2544H0V18.0439Z" fill="white"/>
<path fill-rule="evenodd" clip-rule="evenodd" d="M13.8462 28.4649C13.8462 25.2675 16.1538 22.6754 20.1923 22.6754C23.0769 22.6754 26.2402 24.9506 26.511 27.8672L16.8365 30.4729C17.6179 31.45 18.9505 31.9386 20.1923 31.9386C21.4599 31.9386 22.822 31.4295 23.596 30.4114L26.428 29.6499C25.9243 32.279 23.0769 34.2544 20.1923 34.2544C16.1538 34.2544 13.8462 31.6623 13.8462 28.4649ZM20.1923 24.9912C21.9231 24.9912 23.0769 25.5702 23.419 26.3054L16.1597 28.2574C16.2827 26.0799 18.4615 24.9912 20.1923 24.9912Z" fill="white"/>
<path d="M49.6154 9.35964L43.8461 15.1491V18.0439L49.6154 12.2544L51.9231 14.5702L60 3.57017L51.9231 11.6754L49.6154 9.35964Z" fill="#16CA83"/>
</svg>
