<svg width="24" height="24" viewBox="0 0 24 24" fill="none" xmlns="http://www.w3.org/2000/svg">
<g opacity="0.64">
<path fill-rule="evenodd" clip-rule="evenodd" d="M19.8932 12.1402C19.1398 13.0443 17.8811 14 16 14C14.3066 14 12.9033 13.4385 11.6843 12.9508C11.6657 12.9433 11.6471 12.9359 11.6286 12.9285C10.3605 12.4212 9.2807 12 8 12C6.8811 12 6.13977 12.5443 5.64322 13.1402C5.39187 13.4418 5.21302 13.7475 5.09755 13.9785C5.04038 14.0928 5.0003 14.1857 4.97578 14.2463C4.96355 14.2765 4.95531 14.2984 4.95084 14.3106L4.94698 14.3213C4.9468 14.3218 4.94686 14.3216 4.94714 14.3208L4.94774 14.319L4.94817 14.3178L4.94842 14.317C4.94855 14.3166 4.94869 14.3162 4 14C3.05132 13.6838 3.05146 13.6833 3.05161 13.6829L3.05192 13.682L3.05263 13.6799L3.05433 13.6748L3.05895 13.6615C3.06256 13.6512 3.06726 13.6379 3.07309 13.6221C3.08473 13.5903 3.1009 13.5477 3.12188 13.4959C3.16377 13.3924 3.22525 13.2509 3.3087 13.084C3.47448 12.7525 3.73314 12.3082 4.10678 11.8598C4.86023 10.9557 6.11891 10 8 10C9.69345 10 11.0967 10.5615 12.3157 11.0492C12.3343 11.0567 12.3529 11.0641 12.3714 11.0715C13.6395 11.5788 14.7193 12 16 12C17.1189 12 17.8602 11.4557 18.3568 10.8598C18.6081 10.5582 18.787 10.2525 18.9024 10.0215C18.9596 9.90719 18.9997 9.8143 19.0242 9.75372C19.0365 9.72351 19.0447 9.70163 19.0492 9.68944L19.0529 9.6792L19.0523 9.68097L19.0518 9.68224L19.0516 9.68297C19.0515 9.68337 19.0513 9.68378 20 10C20.9487 10.3162 20.9485 10.3167 20.9484 10.3171L20.9481 10.318L20.9474 10.3201L20.9457 10.3252L20.9411 10.3385C20.9374 10.3489 20.9327 10.3621 20.9269 10.3779C20.9153 10.4097 20.8991 10.4523 20.8781 10.5041C20.8362 10.6076 20.7748 10.7491 20.6913 10.916C20.5255 11.2475 20.2669 11.6918 19.8932 12.1402ZM19.053 9.67871L19.0529 9.6792L19.053 9.67871Z" fill="#E0E0E0"/>
</g>
</svg>
