<svg width="162" height="14" viewBox="0 0 162 14" fill="none" xmlns="http://www.w3.org/2000/svg">
<path fill-rule="evenodd" clip-rule="evenodd" d="M0.235811 13.4706C0.235811 13.4056 0.308395 13.3529 0.397932 13.3529H0.714066C0.803603 13.3529 0.876186 13.4056 0.876186 13.4706C0.876186 13.5356 0.803603 13.5882 0.714066 13.5882H0.397932C0.308395 13.5882 0.235811 13.5356 0.235811 13.4706ZM1.18422 13.4706C1.18422 13.4056 1.2568 13.3529 1.34634 13.3529H1.9786C2.06814 13.3529 2.14072 13.4056 2.14072 13.4706C2.14072 13.5356 2.06814 13.5882 1.9786 13.5882H1.34634C1.2568 13.5882 1.18422 13.5356 1.18422 13.4706ZM2.44875 13.4706C2.44875 13.4056 2.52134 13.3529 2.61087 13.3529H3.24314C3.33268 13.3529 3.40526 13.4056 3.40526 13.4706C3.40526 13.5356 3.33268 13.5882 3.24314 13.5882H2.61087C2.52134 13.5882 2.44875 13.5356 2.44875 13.4706ZM3.71329 13.4706C3.71329 13.4056 3.78587 13.3529 3.87541 13.3529H4.50768C4.59722 13.3529 4.6698 13.4056 4.6698 13.4706C4.6698 13.5356 4.59722 13.5882 4.50768 13.5882H3.87541C3.78587 13.5882 3.71329 13.5356 3.71329 13.4706ZM4.97783 13.4706C4.97783 13.4056 5.05041 13.3529 5.13995 13.3529H5.77222C5.86176 13.3529 5.93434 13.4056 5.93434 13.4706C5.93434 13.5356 5.86176 13.5882 5.77222 13.5882H5.13995C5.05041 13.5882 4.97783 13.5356 4.97783 13.4706ZM6.24237 13.4706C6.24237 13.4056 6.31495 13.3529 6.40449 13.3529H7.03676C7.1263 13.3529 7.19888 13.4056 7.19888 13.4706C7.19888 13.5356 7.1263 13.5882 7.03676 13.5882H6.40449C6.31495 13.5882 6.24237 13.5356 6.24237 13.4706ZM7.50691 13.4706C7.50691 13.4056 7.57949 13.3529 7.66903 13.3529H8.3013C8.39083 13.3529 8.46342 13.4056 8.46342 13.4706C8.46342 13.5356 8.39083 13.5882 8.3013 13.5882H7.66903C7.57949 13.5882 7.50691 13.5356 7.50691 13.4706ZM8.77145 13.4706C8.77145 13.4056 8.84403 13.3529 8.93357 13.3529H9.56583C9.65537 13.3529 9.72796 13.4056 9.72796 13.4706C9.72796 13.5356 9.65537 13.5882 9.56583 13.5882H8.93357C8.84403 13.5882 8.77145 13.5356 8.77145 13.4706ZM10.036 13.4706C10.036 13.4056 10.1086 13.3529 10.1981 13.3529H10.8304C10.9199 13.3529 10.9925 13.4056 10.9925 13.4706C10.9925 13.5356 10.9199 13.5882 10.8304 13.5882H10.1981C10.1086 13.5882 10.036 13.5356 10.036 13.4706ZM11.3005 13.4706C11.3005 13.4056 11.3731 13.3529 11.4626 13.3529H12.0949C12.1844 13.3529 12.257 13.4056 12.257 13.4706C12.257 13.5356 12.1844 13.5882 12.0949 13.5882H11.4626C11.3731 13.5882 11.3005 13.5356 11.3005 13.4706ZM12.5651 13.4706C12.5651 13.4056 12.6376 13.3529 12.7272 13.3529H13.0433C13.1329 13.3529 13.2054 13.4056 13.2054 13.4706C13.2054 13.5356 13.1329 13.5882 13.0433 13.5882H12.7272C12.6376 13.5882 12.5651 13.5356 12.5651 13.4706Z" fill="#5C5C5C"/>
<path d="M7.25911 6.76471H6.76542L13.0222 0.352941H12.2622V0H13.6181V1.35294H13.2644V0.610673L7.25911 6.76471Z" fill="#999999"/>
<path d="M7.25911 6.76471H6.76542L0.32378 13.3659C0.345998 13.3576 0.371219 13.3529 0.397932 13.3529H0.714066C0.749356 13.3529 0.781994 13.3611 0.808611 13.375L7.25911 6.76471Z" fill="#5C5C5C"/>
<path fill-rule="evenodd" clip-rule="evenodd" d="M0 6.88235C0 6.81738 0.0739034 6.76471 0.165068 6.76471H0.48695C0.578115 6.76471 0.652018 6.81738 0.652018 6.88235C0.652018 6.94733 0.578115 7 0.48695 7H0.165068C0.0739034 7 0 6.94733 0 6.88235ZM0.965647 6.88235C0.965647 6.81738 1.03955 6.76471 1.13072 6.76471H1.77448C1.86564 6.76471 1.93955 6.81738 1.93955 6.88235C1.93955 6.94733 1.86564 7 1.77448 7H1.13072C1.03955 7 0.965647 6.94733 0.965647 6.88235ZM2.25318 6.88235C2.25318 6.81738 2.32708 6.76471 2.41824 6.76471H3.06201C3.15317 6.76471 3.22708 6.81738 3.22708 6.88235C3.22708 6.94733 3.15317 7 3.06201 7H2.41824C2.32708 7 2.25318 6.94733 2.25318 6.88235ZM3.54071 6.88235C3.54071 6.81738 3.61461 6.76471 3.70577 6.76471H4.34954C4.4407 6.76471 4.51461 6.81738 4.51461 6.88235C4.51461 6.94733 4.4407 7 4.34954 7H3.70577C3.61461 7 3.54071 6.94733 3.54071 6.88235ZM4.82824 6.88235C4.82824 6.81738 4.90214 6.76471 4.9933 6.76471H5.63707C5.72823 6.76471 5.80214 6.81738 5.80214 6.88235C5.80214 6.94733 5.72823 7 5.63707 7H4.9933C4.90214 7 4.82824 6.94733 4.82824 6.88235ZM6.11577 6.88235C6.11577 6.81738 6.18967 6.76471 6.28083 6.76471H6.9246C7.01576 6.76471 7.08967 6.81738 7.08967 6.88235C7.08967 6.94733 7.01576 7 6.9246 7H6.28083C6.18967 7 6.11577 6.94733 6.11577 6.88235ZM7.4033 6.88235C7.4033 6.81738 7.4772 6.76471 7.56836 6.76471H8.21213C8.30329 6.76471 8.3772 6.81738 8.3772 6.88235C8.3772 6.94733 8.30329 7 8.21213 7H7.56836C7.4772 7 7.4033 6.94733 7.4033 6.88235ZM8.69083 6.88235C8.69083 6.81738 8.76473 6.76471 8.8559 6.76471H9.49966C9.59083 6.76471 9.66473 6.81738 9.66473 6.88235C9.66473 6.94733 9.59083 7 9.49966 7H8.8559C8.76473 7 8.69083 6.94733 8.69083 6.88235ZM9.97836 6.88235C9.97836 6.81738 10.0523 6.76471 10.1434 6.76471H10.7872C10.8784 6.76471 10.9523 6.81738 10.9523 6.88235C10.9523 6.94733 10.8784 7 10.7872 7H10.1434C10.0523 7 9.97836 6.94733 9.97836 6.88235ZM11.2659 6.88235C11.2659 6.81738 11.3398 6.76471 11.431 6.76471H12.0747C12.1659 6.76471 12.2398 6.81738 12.2398 6.88235C12.2398 6.94733 12.1659 7 12.0747 7H11.431C11.3398 7 11.2659 6.94733 11.2659 6.88235ZM12.5534 6.88235C12.5534 6.81738 12.6273 6.76471 12.7185 6.76471H13.0404C13.1315 6.76471 13.2054 6.81738 13.2054 6.88235C13.2054 6.94733 13.1315 7 13.0404 7H12.7185C12.6273 7 12.5534 6.94733 12.5534 6.88235Z" fill="#999999"/>
<path d="M26.6851 6.76471H26.2512L21.5614 13.3529H21.9953L26.6851 6.76471Z" fill="#5C5C5C"/>
<path d="M26.6851 6.76471H26.2512L30.5641 0.705896H34.0014L33.5959 0.301267L33.846 0.0517004L34.6643 0.868136V0.896596L33.846 1.71303L33.5959 1.46346L34.0014 1.05884H30.7467L26.6851 6.76471Z" fill="#999999"/>
<path fill-rule="evenodd" clip-rule="evenodd" d="M21.4588 13.4706C21.4588 13.4056 21.5314 13.3529 21.621 13.3529H21.9371C22.0266 13.3529 22.0992 13.4056 22.0992 13.4706C22.0992 13.5356 22.0266 13.5882 21.9371 13.5882H21.621C21.5314 13.5882 21.4588 13.5356 21.4588 13.4706ZM22.4072 13.4706C22.4072 13.4056 22.4798 13.3529 22.5694 13.3529H23.2016C23.2912 13.3529 23.3637 13.4056 23.3637 13.4706C23.3637 13.5356 23.2912 13.5882 23.2016 13.5882H22.5694C22.4798 13.5882 22.4072 13.5356 22.4072 13.4706ZM23.6718 13.4706C23.6718 13.4056 23.7444 13.3529 23.8339 13.3529H24.4662C24.5557 13.3529 24.6283 13.4056 24.6283 13.4706C24.6283 13.5356 24.5557 13.5882 24.4662 13.5882H23.8339C23.7444 13.5882 23.6718 13.5356 23.6718 13.4706ZM24.9363 13.4706C24.9363 13.4056 25.0089 13.3529 25.0984 13.3529H25.7307C25.8202 13.3529 25.8928 13.4056 25.8928 13.4706C25.8928 13.5356 25.8202 13.5882 25.7307 13.5882H25.0984C25.0089 13.5882 24.9363 13.5356 24.9363 13.4706ZM26.2008 13.4706C26.2008 13.4056 26.2734 13.3529 26.363 13.3529H26.9952C27.0848 13.3529 27.1574 13.4056 27.1574 13.4706C27.1574 13.5356 27.0848 13.5882 26.9952 13.5882H26.363C26.2734 13.5882 26.2008 13.5356 26.2008 13.4706ZM27.4654 13.4706C27.4654 13.4056 27.538 13.3529 27.6275 13.3529H28.2598C28.3493 13.3529 28.4219 13.4056 28.4219 13.4706C28.4219 13.5356 28.3493 13.5882 28.2598 13.5882H27.6275C27.538 13.5882 27.4654 13.5356 27.4654 13.4706ZM28.7299 13.4706C28.7299 13.4056 28.8025 13.3529 28.892 13.3529H29.5243C29.6139 13.3529 29.6864 13.4056 29.6864 13.4706C29.6864 13.5356 29.6139 13.5882 29.5243 13.5882H28.892C28.8025 13.5882 28.7299 13.5356 28.7299 13.4706ZM29.9945 13.4706C29.9945 13.4056 30.067 13.3529 30.1566 13.3529H30.7889C30.8784 13.3529 30.951 13.4056 30.951 13.4706C30.951 13.5356 30.8784 13.5882 30.7889 13.5882H30.1566C30.067 13.5882 29.9945 13.5356 29.9945 13.4706ZM31.259 13.4706C31.259 13.4056 31.3316 13.3529 31.4211 13.3529H32.0534C32.1429 13.3529 32.2155 13.4056 32.2155 13.4706C32.2155 13.5356 32.1429 13.5882 32.0534 13.5882H31.4211C31.3316 13.5882 31.259 13.5356 31.259 13.4706ZM32.5235 13.4706C32.5235 13.4056 32.5961 13.3529 32.6857 13.3529H33.3179C33.4075 13.3529 33.48 13.4056 33.48 13.4706C33.48 13.5356 33.4075 13.5882 33.3179 13.5882H32.6857C32.5961 13.5882 32.5235 13.5356 32.5235 13.4706ZM33.7881 13.4706C33.7881 13.4056 33.8607 13.3529 33.9502 13.3529H34.2663C34.3559 13.3529 34.4285 13.4056 34.4285 13.4706C34.4285 13.5356 34.3559 13.5882 34.2663 13.5882H33.9502C33.8607 13.5882 33.7881 13.5356 33.7881 13.4706Z" fill="#5C5C5C"/>
<path fill-rule="evenodd" clip-rule="evenodd" d="M21.223 6.88235C21.223 6.81738 21.2969 6.76471 21.3881 6.76471H21.71C21.8011 6.76471 21.875 6.81738 21.875 6.88235C21.875 6.94733 21.8011 7 21.71 7H21.3881C21.2969 7 21.223 6.94733 21.223 6.88235ZM22.1887 6.88235C22.1887 6.81738 22.2626 6.76471 22.3537 6.76471H22.9975C23.0887 6.76471 23.1626 6.81738 23.1626 6.88235C23.1626 6.94733 23.0887 7 22.9975 7H22.3537C22.2626 7 22.1887 6.94733 22.1887 6.88235ZM23.4762 6.88235C23.4762 6.81738 23.5501 6.76471 23.6413 6.76471H24.285C24.3762 6.76471 24.4501 6.81738 24.4501 6.88235C24.4501 6.94733 24.3762 7 24.285 7H23.6413C23.5501 7 23.4762 6.94733 23.4762 6.88235ZM24.7637 6.88235C24.7637 6.81738 24.8376 6.76471 24.9288 6.76471H25.5726C25.6637 6.76471 25.7376 6.81738 25.7376 6.88235C25.7376 6.94733 25.6637 7 25.5726 7H24.9288C24.8376 7 24.7637 6.94733 24.7637 6.88235ZM26.0513 6.88235C26.0513 6.81738 26.1252 6.76471 26.2163 6.76471H26.8601C26.9513 6.76471 27.0252 6.81738 27.0252 6.88235C27.0252 6.94733 26.9513 7 26.8601 7H26.2163C26.1252 7 26.0513 6.94733 26.0513 6.88235ZM27.3388 6.88235C27.3388 6.81738 27.4127 6.76471 27.5039 6.76471H28.1476C28.2388 6.76471 28.3127 6.81738 28.3127 6.88235C28.3127 6.94733 28.2388 7 28.1476 7H27.5039C27.4127 7 27.3388 6.94733 27.3388 6.88235ZM28.6263 6.88235C28.6263 6.81738 28.7002 6.76471 28.7914 6.76471H29.4351C29.5263 6.76471 29.6002 6.81738 29.6002 6.88235C29.6002 6.94733 29.5263 7 29.4351 7H28.7914C28.7002 7 28.6263 6.94733 28.6263 6.88235ZM29.9138 6.88235C29.9138 6.81738 29.9877 6.76471 30.0789 6.76471H30.7227C30.8138 6.76471 30.8877 6.81738 30.8877 6.88235C30.8877 6.94733 30.8138 7 30.7227 7H30.0789C29.9877 7 29.9138 6.94733 29.9138 6.88235ZM31.2014 6.88235C31.2014 6.81738 31.2753 6.76471 31.3664 6.76471H32.0102C32.1014 6.76471 32.1753 6.81738 32.1753 6.88235C32.1753 6.94733 32.1014 7 32.0102 7H31.3664C31.2753 7 31.2014 6.94733 31.2014 6.88235ZM32.4889 6.88235C32.4889 6.81738 32.5628 6.76471 32.654 6.76471H33.2977C33.3889 6.76471 33.4628 6.81738 33.4628 6.88235C33.4628 6.94733 33.3889 7 33.2977 7H32.654C32.5628 7 32.4889 6.94733 32.4889 6.88235ZM33.7764 6.88235C33.7764 6.81738 33.8503 6.76471 33.9415 6.76471H34.2634C34.3545 6.76471 34.4285 6.81738 34.4285 6.88235C34.4285 6.94733 34.3545 7 34.2634 7H33.9415C33.8503 7 33.7764 6.94733 33.7764 6.88235Z" fill="#999999"/>
<path fill-rule="evenodd" clip-rule="evenodd" d="M42.446 7C42.446 6.93503 42.5199 6.88235 42.6111 6.88235H42.933C43.0242 6.88235 43.0981 6.93503 43.0981 7C43.0981 7.06497 43.0242 7.11765 42.933 7.11765H42.6111C42.5199 7.11765 42.446 7.06497 42.446 7ZM43.4117 7C43.4117 6.93503 43.4856 6.88235 43.5768 6.88235H44.2205C44.3117 6.88235 44.3856 6.93503 44.3856 7C44.3856 7.06497 44.3117 7.11765 44.2205 7.11765H43.5768C43.4856 7.11765 43.4117 7.06497 43.4117 7ZM44.6992 7C44.6992 6.93503 44.7731 6.88235 44.8643 6.88235H45.508C45.5992 6.88235 45.6731 6.93503 45.6731 7C45.6731 7.06497 45.5992 7.11765 45.508 7.11765H44.8643C44.7731 7.11765 44.6992 7.06497 44.6992 7ZM45.9867 7C45.9867 6.93503 46.0606 6.88235 46.1518 6.88235H46.7956C46.8867 6.88235 46.9606 6.93503 46.9606 7C46.9606 7.06497 46.8867 7.11765 46.7956 7.11765H46.1518C46.0606 7.11765 45.9867 7.06497 45.9867 7ZM47.2743 7C47.2743 6.93503 47.3482 6.88235 47.4393 6.88235H48.0831C48.1743 6.88235 48.2482 6.93503 48.2482 7C48.2482 7.06497 48.1743 7.11765 48.0831 7.11765H47.4393C47.3482 7.11765 47.2743 7.06497 47.2743 7ZM48.5618 7C48.5618 6.93503 48.6357 6.88235 48.7269 6.88235H49.3706C49.4618 6.88235 49.5357 6.93503 49.5357 7C49.5357 7.06497 49.4618 7.11765 49.3706 7.11765H48.7269C48.6357 7.11765 48.5618 7.06497 48.5618 7ZM49.8493 7C49.8493 6.93503 49.9232 6.88235 50.0144 6.88235H50.6582C50.7493 6.88235 50.8232 6.93503 50.8232 7C50.8232 7.06497 50.7493 7.11765 50.6582 7.11765H50.0144C49.9232 7.11765 49.8493 7.06497 49.8493 7ZM51.1369 7C51.1369 6.93503 51.2108 6.88235 51.3019 6.88235H51.9457C52.0369 6.88235 52.1108 6.93503 52.1108 7C52.1108 7.06497 52.0369 7.11765 51.9457 7.11765H51.3019C51.2108 7.11765 51.1369 7.06497 51.1369 7ZM52.4244 7C52.4244 6.93503 52.4983 6.88235 52.5895 6.88235H53.2332C53.3244 6.88235 53.3983 6.93503 53.3983 7C53.3983 7.06497 53.3244 7.11765 53.2332 7.11765H52.5895C52.4983 7.11765 52.4244 7.06497 52.4244 7ZM53.7119 7C53.7119 6.93503 53.7858 6.88235 53.877 6.88235H54.5208C54.6119 6.88235 54.6858 6.93503 54.6858 7C54.6858 7.06497 54.6119 7.11765 54.5208 7.11765H53.877C53.7858 7.11765 53.7119 7.06497 53.7119 7ZM54.9995 7C54.9995 6.93503 55.0734 6.88235 55.1645 6.88235H55.4864C55.5776 6.88235 55.6515 6.93503 55.6515 7C55.6515 7.06497 55.5776 7.11765 55.4864 7.11765H55.1645C55.0734 7.11765 54.9995 7.06497 54.9995 7Z" fill="#5C5C5C"/>
<path d="M46.957 11.2353L42.1231 6.89426L46.8923 4.64705H47.7513L42.7783 6.99028L47.5053 11.2353H46.957Z" fill="#5C5C5C"/>
<path d="M47.7513 4.64705L55.3455 1.06869L55.1144 1.76051L55.4624 1.87624L55.8872 0.604666L54.6128 0.180808L54.4968 0.528017L55.1635 0.749738L46.8923 4.64705H47.7513Z" fill="#999999"/>
<path d="M47.5053 11.2353L49.5194 13.044L49.4222 12.4622L49.784 12.402L50.003 13.7131H48.6861V13.3471H49.3086L46.957 11.2353H47.5053Z" fill="#999999"/>
<path fill-rule="evenodd" clip-rule="evenodd" d="M42.446 4.76471C42.446 4.69973 42.5199 4.64706 42.6111 4.64706H42.933C43.0242 4.64706 43.0981 4.69973 43.0981 4.76471C43.0981 4.82968 43.0242 4.88235 42.933 4.88235H42.6111C42.5199 4.88235 42.446 4.82968 42.446 4.76471ZM43.4117 4.76471C43.4117 4.69973 43.4856 4.64706 43.5768 4.64706H44.2205C44.3117 4.64706 44.3856 4.69973 44.3856 4.76471C44.3856 4.82968 44.3117 4.88235 44.2205 4.88235H43.5768C43.4856 4.88235 43.4117 4.82968 43.4117 4.76471ZM44.6992 4.76471C44.6992 4.69973 44.7731 4.64706 44.8643 4.64706H45.508C45.5992 4.64706 45.6731 4.69973 45.6731 4.76471C45.6731 4.82968 45.5992 4.88235 45.508 4.88235H44.8643C44.7731 4.88235 44.6992 4.82968 44.6992 4.76471ZM45.9867 4.76471C45.9867 4.69973 46.0606 4.64706 46.1518 4.64706H46.7956C46.8867 4.64706 46.9606 4.69973 46.9606 4.76471C46.9606 4.82968 46.8867 4.88235 46.7956 4.88235H46.1518C46.0606 4.88235 45.9867 4.82968 45.9867 4.76471ZM47.2743 4.76471C47.2743 4.69973 47.3482 4.64706 47.4393 4.64706H48.0831C48.1743 4.64706 48.2482 4.69973 48.2482 4.76471C48.2482 4.82968 48.1743 4.88235 48.0831 4.88235H47.4393C47.3482 4.88235 47.2743 4.82968 47.2743 4.76471ZM48.5618 4.76471C48.5618 4.69973 48.6357 4.64706 48.7269 4.64706H49.3706C49.4618 4.64706 49.5357 4.69973 49.5357 4.76471C49.5357 4.82968 49.4618 4.88235 49.3706 4.88235H48.7269C48.6357 4.88235 48.5618 4.82968 48.5618 4.76471ZM49.8493 4.76471C49.8493 4.69973 49.9232 4.64706 50.0144 4.64706H50.6582C50.7493 4.64706 50.8232 4.69973 50.8232 4.76471C50.8232 4.82968 50.7493 4.88235 50.6582 4.88235H50.0144C49.9232 4.88235 49.8493 4.82968 49.8493 4.76471ZM51.1369 4.76471C51.1369 4.69973 51.2108 4.64706 51.3019 4.64706H51.9457C52.0369 4.64706 52.1108 4.69973 52.1108 4.76471C52.1108 4.82968 52.0369 4.88235 51.9457 4.88235H51.3019C51.2108 4.88235 51.1369 4.82968 51.1369 4.76471ZM52.4244 4.76471C52.4244 4.69973 52.4983 4.64706 52.5895 4.64706H53.2332C53.3244 4.64706 53.3983 4.69973 53.3983 4.76471C53.3983 4.82968 53.3244 4.88235 53.2332 4.88235H52.5895C52.4983 4.88235 52.4244 4.82968 52.4244 4.76471ZM53.7119 4.76471C53.7119 4.69973 53.7858 4.64706 53.877 4.64706H54.5208C54.6119 4.64706 54.6858 4.69973 54.6858 4.76471C54.6858 4.82968 54.6119 4.88235 54.5208 4.88235H53.877C53.7858 4.88235 53.7119 4.82968 53.7119 4.76471ZM54.9995 4.76471C54.9995 4.69973 55.0734 4.64706 55.1645 4.64706H55.4864C55.5776 4.64706 55.6515 4.69973 55.6515 4.76471C55.6515 4.82968 55.5776 4.88235 55.4864 4.88235H55.1645C55.0734 4.88235 54.9995 4.82968 54.9995 4.76471Z" fill="#999999"/>
<path fill-rule="evenodd" clip-rule="evenodd" d="M42.446 11.1176C42.446 11.0527 42.5199 11 42.6111 11H42.933C43.0242 11 43.0981 11.0527 43.0981 11.1176C43.0981 11.1826 43.0242 11.2353 42.933 11.2353H42.6111C42.5199 11.2353 42.446 11.1826 42.446 11.1176ZM43.4117 11.1176C43.4117 11.0527 43.4856 11 43.5768 11H44.2205C44.3117 11 44.3856 11.0527 44.3856 11.1176C44.3856 11.1826 44.3117 11.2353 44.2205 11.2353H43.5768C43.4856 11.2353 43.4117 11.1826 43.4117 11.1176ZM44.6992 11.1176C44.6992 11.0527 44.7731 11 44.8643 11H45.508C45.5992 11 45.6731 11.0527 45.6731 11.1176C45.6731 11.1826 45.5992 11.2353 45.508 11.2353H44.8643C44.7731 11.2353 44.6992 11.1826 44.6992 11.1176ZM45.9867 11.1176C45.9867 11.0527 46.0606 11 46.1518 11H46.7956C46.8867 11 46.9606 11.0527 46.9606 11.1176C46.9606 11.1826 46.8867 11.2353 46.7956 11.2353H46.1518C46.0606 11.2353 45.9867 11.1826 45.9867 11.1176ZM47.2743 11.1176C47.2743 11.0527 47.3482 11 47.4393 11H48.0831C48.1743 11 48.2482 11.0527 48.2482 11.1176C48.2482 11.1826 48.1743 11.2353 48.0831 11.2353H47.4393C47.3482 11.2353 47.2743 11.1826 47.2743 11.1176ZM48.5618 11.1176C48.5618 11.0527 48.6357 11 48.7269 11H49.3706C49.4618 11 49.5357 11.0527 49.5357 11.1176C49.5357 11.1826 49.4618 11.2353 49.3706 11.2353H48.7269C48.6357 11.2353 48.5618 11.1826 48.5618 11.1176ZM49.8493 11.1176C49.8493 11.0527 49.9232 11 50.0144 11H50.6582C50.7493 11 50.8232 11.0527 50.8232 11.1176C50.8232 11.1826 50.7493 11.2353 50.6582 11.2353H50.0144C49.9232 11.2353 49.8493 11.1826 49.8493 11.1176ZM51.1369 11.1176C51.1369 11.0527 51.2108 11 51.3019 11H51.9457C52.0369 11 52.1108 11.0527 52.1108 11.1176C52.1108 11.1826 52.0369 11.2353 51.9457 11.2353H51.3019C51.2108 11.2353 51.1369 11.1826 51.1369 11.1176ZM52.4244 11.1176C52.4244 11.0527 52.4983 11 52.5895 11H53.2332C53.3244 11 53.3983 11.0527 53.3983 11.1176C53.3983 11.1826 53.3244 11.2353 53.2332 11.2353H52.5895C52.4983 11.2353 52.4244 11.1826 52.4244 11.1176ZM53.7119 11.1176C53.7119 11.0527 53.7858 11 53.877 11H54.5208C54.6119 11 54.6858 11.0527 54.6858 11.1176C54.6858 11.1826 54.6119 11.2353 54.5208 11.2353H53.877C53.7858 11.2353 53.7119 11.1826 53.7119 11.1176ZM54.9995 11.1176C54.9995 11.0527 55.0734 11 55.1645 11H55.4864C55.5776 11 55.6515 11.0527 55.6515 11.1176C55.6515 11.1826 55.5776 11.2353 55.4864 11.2353H55.1645C55.0734 11.2353 54.9995 11.1826 54.9995 11.1176Z" fill="#999999"/>
<path fill-rule="evenodd" clip-rule="evenodd" d="M63.9049 0.529411C63.9049 0.594385 63.9775 0.647058 64.067 0.647058H64.3831C64.4727 0.647058 64.5452 0.594385 64.5452 0.529411C64.5452 0.464436 64.4727 0.411764 64.3831 0.411764H64.067C63.9775 0.411764 63.9049 0.464436 63.9049 0.529411ZM64.8533 0.529411C64.8533 0.594385 64.9258 0.647058 65.0154 0.647058H65.6477C65.7372 0.647058 65.8098 0.594385 65.8098 0.529411C65.8098 0.464436 65.7372 0.411764 65.6477 0.411764H65.0154C64.9258 0.411764 64.8533 0.464436 64.8533 0.529411ZM66.1178 0.529411C66.1178 0.594385 66.1904 0.647058 66.2799 0.647058H66.9122C67.0017 0.647058 67.0743 0.594385 67.0743 0.529411C67.0743 0.464436 67.0017 0.411764 66.9122 0.411764H66.2799C66.1904 0.411764 66.1178 0.464436 66.1178 0.529411ZM67.3823 0.529411C67.3823 0.594385 67.4549 0.647058 67.5445 0.647058H68.1767C68.2663 0.647058 68.3389 0.594385 68.3389 0.529411C68.3389 0.464436 68.2663 0.411764 68.1767 0.411764H67.5445C67.4549 0.411764 67.3823 0.464436 67.3823 0.529411ZM68.6469 0.529411C68.6469 0.594385 68.7195 0.647058 68.809 0.647058H69.4413C69.5308 0.647058 69.6034 0.594385 69.6034 0.529411C69.6034 0.464436 69.5308 0.411764 69.4413 0.411764H68.809C68.7195 0.411764 68.6469 0.464436 68.6469 0.529411ZM69.9114 0.529411C69.9114 0.594385 69.984 0.647058 70.0735 0.647058H70.7058C70.7953 0.647058 70.8679 0.594385 70.8679 0.529411C70.8679 0.464436 70.7953 0.411764 70.7058 0.411764H70.0735C69.984 0.411764 69.9114 0.464436 69.9114 0.529411ZM71.176 0.529411C71.176 0.594385 71.2485 0.647058 71.3381 0.647058H71.9703C72.0599 0.647058 72.1325 0.594385 72.1325 0.529411C72.1325 0.464436 72.0599 0.411764 71.9703 0.411764H71.3381C71.2485 0.411764 71.176 0.464436 71.176 0.529411ZM72.4405 0.529411C72.4405 0.594385 72.5131 0.647058 72.6026 0.647058H73.2349C73.3244 0.647058 73.397 0.594385 73.397 0.529411C73.397 0.464436 73.3244 0.411764 73.2349 0.411764H72.6026C72.5131 0.411764 72.4405 0.464436 72.4405 0.529411ZM73.705 0.529411C73.705 0.594385 73.7776 0.647058 73.8672 0.647058H74.4994C74.589 0.647058 74.6616 0.594385 74.6616 0.529411C74.6616 0.464436 74.589 0.411764 74.4994 0.411764H73.8672C73.7776 0.411764 73.705 0.464436 73.705 0.529411ZM74.9696 0.529411C74.9696 0.594385 75.0422 0.647058 75.1317 0.647058H75.764C75.8535 0.647058 75.9261 0.594385 75.9261 0.529411C75.9261 0.464436 75.8535 0.411764 75.764 0.411764H75.1317C75.0422 0.411764 74.9696 0.464436 74.9696 0.529411ZM76.2341 0.529411C76.2341 0.594385 76.3067 0.647058 76.3962 0.647058H76.7124C76.8019 0.647058 76.8745 0.594385 76.8745 0.529411C76.8745 0.464436 76.8019 0.411764 76.7124 0.411764H76.3962C76.3067 0.411764 76.2341 0.464436 76.2341 0.529411Z" fill="#5C5C5C"/>
<path d="M70.9282 7.23529H70.4345L76.6912 13.6471H75.9312V14H77.2871V12.6471H76.9334V13.3893L70.9282 7.23529Z" fill="#999999"/>
<path d="M70.9282 7.23529H70.4345L63.9928 0.634066C64.0151 0.64237 64.0403 0.647058 64.067 0.647058H64.3831C64.4184 0.647058 64.451 0.638877 64.4777 0.624984L70.9282 7.23529Z" fill="#5C5C5C"/>
<path fill-rule="evenodd" clip-rule="evenodd" d="M63.6691 7.11765C63.6691 7.18262 63.743 7.23529 63.8341 7.23529H64.156C64.2472 7.23529 64.3211 7.18262 64.3211 7.11765C64.3211 7.05267 64.2472 7 64.156 7H63.8341C63.743 7 63.6691 7.05267 63.6691 7.11765ZM64.6347 7.11765C64.6347 7.18262 64.7086 7.23529 64.7998 7.23529H65.4435C65.5347 7.23529 65.6086 7.18262 65.6086 7.11765C65.6086 7.05267 65.5347 7 65.4435 7H64.7998C64.7086 7 64.6347 7.05267 64.6347 7.11765ZM65.9222 7.11765C65.9222 7.18262 65.9961 7.23529 66.0873 7.23529H66.7311C66.8222 7.23529 66.8961 7.18262 66.8961 7.11765C66.8961 7.05267 66.8222 7 66.7311 7H66.0873C65.9961 7 65.9222 7.05267 65.9222 7.11765ZM67.2098 7.11765C67.2098 7.18262 67.2837 7.23529 67.3748 7.23529H68.0186C68.1098 7.23529 68.1837 7.18262 68.1837 7.11765C68.1837 7.05267 68.1098 7 68.0186 7H67.3748C67.2837 7 67.2098 7.05267 67.2098 7.11765ZM68.4973 7.11765C68.4973 7.18262 68.5712 7.23529 68.6624 7.23529H69.3061C69.3973 7.23529 69.4712 7.18262 69.4712 7.11765C69.4712 7.05267 69.3973 7 69.3061 7H68.6624C68.5712 7 68.4973 7.05267 68.4973 7.11765ZM69.7848 7.11765C69.7848 7.18262 69.8587 7.23529 69.9499 7.23529H70.5937C70.6848 7.23529 70.7587 7.18262 70.7587 7.11765C70.7587 7.05267 70.6848 7 70.5937 7H69.9499C69.8587 7 69.7848 7.05267 69.7848 7.11765ZM71.0724 7.11765C71.0724 7.18262 71.1463 7.23529 71.2374 7.23529H71.8812C71.9724 7.23529 72.0463 7.18262 72.0463 7.11765C72.0463 7.05267 71.9724 7 71.8812 7H71.2374C71.1463 7 71.0724 7.05267 71.0724 7.11765ZM72.3599 7.11765C72.3599 7.18262 72.4338 7.23529 72.5249 7.23529H73.1687C73.2599 7.23529 73.3338 7.18262 73.3338 7.11765C73.3338 7.05267 73.2599 7 73.1687 7H72.5249C72.4338 7 72.3599 7.05267 72.3599 7.11765ZM73.6474 7.11765C73.6474 7.18262 73.7213 7.23529 73.8125 7.23529H74.4562C74.5474 7.23529 74.6213 7.18262 74.6213 7.11765C74.6213 7.05267 74.5474 7 74.4562 7H73.8125C73.7213 7 73.6474 7.05267 73.6474 7.11765ZM74.9349 7.11765C74.9349 7.18262 75.0089 7.23529 75.1 7.23529H75.7438C75.8349 7.23529 75.9088 7.18262 75.9088 7.11765C75.9088 7.05267 75.8349 7 75.7438 7H75.1C75.0089 7 74.9349 7.05267 74.9349 7.11765ZM76.2225 7.11765C76.2225 7.18262 76.2964 7.23529 76.3875 7.23529H76.7094C76.8006 7.23529 76.8745 7.18262 76.8745 7.11765C76.8745 7.05267 76.8006 7 76.7094 7H76.3875C76.2964 7 76.2225 7.05267 76.2225 7.11765Z" fill="#999999"/>
<path d="M90.3541 7.23529H89.9203L85.2305 0.647058H85.6643L90.3541 7.23529Z" fill="#5C5C5C"/>
<path d="M90.3541 7.23529H89.9203L94.2332 13.2941H97.6705L97.265 13.6987L97.5151 13.9483L98.3333 13.1319V13.1034L97.5151 12.287L97.265 12.5365L97.6705 12.9412H94.4158L90.3541 7.23529Z" fill="#999999"/>
<path fill-rule="evenodd" clip-rule="evenodd" d="M85.1279 0.529411C85.1279 0.594385 85.2005 0.647058 85.29 0.647058H85.6061C85.6957 0.647058 85.7683 0.594385 85.7683 0.529411C85.7683 0.464436 85.6957 0.411764 85.6061 0.411764H85.29C85.2005 0.411764 85.1279 0.464436 85.1279 0.529411ZM86.0763 0.529411C86.0763 0.594385 86.1489 0.647058 86.2384 0.647058H86.8707C86.9602 0.647058 87.0328 0.594385 87.0328 0.529411C87.0328 0.464436 86.9602 0.411764 86.8707 0.411764H86.2384C86.1489 0.411764 86.0763 0.464436 86.0763 0.529411ZM87.3408 0.529411C87.3408 0.594385 87.4134 0.647058 87.5029 0.647058H88.1352C88.2248 0.647058 88.2973 0.594385 88.2973 0.529411C88.2973 0.464436 88.2248 0.411764 88.1352 0.411764H87.5029C87.4134 0.411764 87.3408 0.464436 87.3408 0.529411ZM88.6054 0.529411C88.6054 0.594385 88.6779 0.647058 88.7675 0.647058H89.3998C89.4893 0.647058 89.5619 0.594385 89.5619 0.529411C89.5619 0.464436 89.4893 0.411764 89.3998 0.411764H88.7675C88.6779 0.411764 88.6054 0.464436 88.6054 0.529411ZM89.8699 0.529411C89.8699 0.594385 89.9425 0.647058 90.032 0.647058H90.6643C90.7538 0.647058 90.8264 0.594385 90.8264 0.529411C90.8264 0.464436 90.7538 0.411764 90.6643 0.411764H90.032C89.9425 0.411764 89.8699 0.464436 89.8699 0.529411ZM91.1344 0.529411C91.1344 0.594385 91.207 0.647058 91.2966 0.647058H91.9288C92.0184 0.647058 92.091 0.594385 92.091 0.529411C92.091 0.464436 92.0184 0.411764 91.9288 0.411764H91.2966C91.207 0.411764 91.1344 0.464436 91.1344 0.529411ZM92.399 0.529411C92.399 0.594385 92.4716 0.647058 92.5611 0.647058H93.1934C93.2829 0.647058 93.3555 0.594385 93.3555 0.529411C93.3555 0.464436 93.2829 0.411764 93.1934 0.411764H92.5611C92.4716 0.411764 92.399 0.464436 92.399 0.529411ZM93.6635 0.529411C93.6635 0.594385 93.7361 0.647058 93.8256 0.647058H94.4579C94.5474 0.647058 94.62 0.594385 94.62 0.529411C94.62 0.464436 94.5474 0.411764 94.4579 0.411764H93.8256C93.7361 0.411764 93.6635 0.464436 93.6635 0.529411ZM94.9281 0.529411C94.9281 0.594385 95.0006 0.647058 95.0902 0.647058H95.7225C95.812 0.647058 95.8846 0.594385 95.8846 0.529411C95.8846 0.464436 95.812 0.411764 95.7225 0.411764H95.0902C95.0006 0.411764 94.9281 0.464436 94.9281 0.529411ZM96.1926 0.529411C96.1926 0.594385 96.2652 0.647058 96.3547 0.647058H96.987C97.0765 0.647058 97.1491 0.594385 97.1491 0.529411C97.1491 0.464436 97.0765 0.411764 96.987 0.411764H96.3547C96.2652 0.411764 96.1926 0.464436 96.1926 0.529411ZM97.4571 0.529411C97.4571 0.594385 97.5297 0.647058 97.6193 0.647058H97.9354C98.0249 0.647058 98.0975 0.594385 98.0975 0.529411C98.0975 0.464436 98.0249 0.411764 97.9354 0.411764H97.6193C97.5297 0.411764 97.4571 0.464436 97.4571 0.529411Z" fill="#5C5C5C"/>
<path fill-rule="evenodd" clip-rule="evenodd" d="M84.8921 7.11765C84.8921 7.18262 84.966 7.23529 85.0571 7.23529H85.379C85.4702 7.23529 85.5441 7.18262 85.5441 7.11765C85.5441 7.05267 85.4702 7 85.379 7H85.0571C84.966 7 84.8921 7.05267 84.8921 7.11765ZM85.8577 7.11765C85.8577 7.18262 85.9316 7.23529 86.0228 7.23529H86.6666C86.7577 7.23529 86.8316 7.18262 86.8316 7.11765C86.8316 7.05267 86.7577 7 86.6666 7H86.0228C85.9316 7 85.8577 7.05267 85.8577 7.11765ZM87.1453 7.11765C87.1453 7.18262 87.2192 7.23529 87.3103 7.23529H87.9541C88.0452 7.23529 88.1191 7.18262 88.1191 7.11765C88.1191 7.05267 88.0452 7 87.9541 7H87.3103C87.2192 7 87.1453 7.05267 87.1453 7.11765ZM88.4328 7.11765C88.4328 7.18262 88.5067 7.23529 88.5979 7.23529H89.2416C89.3328 7.23529 89.4067 7.18262 89.4067 7.11765C89.4067 7.05267 89.3328 7 89.2416 7H88.5979C88.5067 7 88.4328 7.05267 88.4328 7.11765ZM89.7203 7.11765C89.7203 7.18262 89.7942 7.23529 89.8854 7.23529H90.5291C90.6203 7.23529 90.6942 7.18262 90.6942 7.11765C90.6942 7.05267 90.6203 7 90.5291 7H89.8854C89.7942 7 89.7203 7.05267 89.7203 7.11765ZM91.0078 7.11765C91.0078 7.18262 91.0817 7.23529 91.1729 7.23529H91.8167C91.9078 7.23529 91.9817 7.18262 91.9817 7.11765C91.9817 7.05267 91.9078 7 91.8167 7H91.1729C91.0817 7 91.0078 7.05267 91.0078 7.11765ZM92.2954 7.11765C92.2954 7.18262 92.3693 7.23529 92.4604 7.23529H93.1042C93.1954 7.23529 93.2693 7.18262 93.2693 7.11765C93.2693 7.05267 93.1954 7 93.1042 7H92.4604C92.3693 7 92.2954 7.05267 92.2954 7.11765ZM93.5829 7.11765C93.5829 7.18262 93.6568 7.23529 93.748 7.23529H94.3917C94.4829 7.23529 94.5568 7.18262 94.5568 7.11765C94.5568 7.05267 94.4829 7 94.3917 7H93.748C93.6568 7 93.5829 7.05267 93.5829 7.11765ZM94.8704 7.11765C94.8704 7.18262 94.9443 7.23529 95.0355 7.23529H95.6793C95.7704 7.23529 95.8443 7.18262 95.8443 7.11765C95.8443 7.05267 95.7704 7 95.6793 7H95.0355C94.9443 7 94.8704 7.05267 94.8704 7.11765ZM96.158 7.11765C96.158 7.18262 96.2319 7.23529 96.323 7.23529H96.9668C97.058 7.23529 97.1319 7.18262 97.1319 7.11765C97.1319 7.05267 97.058 7 96.9668 7H96.323C96.2319 7 96.158 7.05267 96.158 7.11765ZM97.4455 7.11765C97.4455 7.18262 97.5194 7.23529 97.6106 7.23529H97.9324C98.0236 7.23529 98.0975 7.18262 98.0975 7.11765C98.0975 7.05267 98.0236 7 97.9324 7H97.6106C97.5194 7 97.4455 7.05267 97.4455 7.11765Z" fill="#999999"/>
<path fill-rule="evenodd" clip-rule="evenodd" d="M106.115 7C106.115 6.93503 106.189 6.88235 106.28 6.88235H106.602C106.693 6.88235 106.767 6.93503 106.767 7C106.767 7.06497 106.693 7.11765 106.602 7.11765H106.28C106.189 7.11765 106.115 7.06497 106.115 7ZM107.081 7C107.081 6.93503 107.155 6.88235 107.246 6.88235H107.89C107.981 6.88235 108.055 6.93503 108.055 7C108.055 7.06497 107.981 7.11765 107.89 7.11765H107.246C107.155 7.11765 107.081 7.06497 107.081 7ZM108.368 7C108.368 6.93503 108.442 6.88235 108.533 6.88235H109.177C109.268 6.88235 109.342 6.93503 109.342 7C109.342 7.06497 109.268 7.11765 109.177 7.11765H108.533C108.442 7.11765 108.368 7.06497 108.368 7ZM109.656 7C109.656 6.93503 109.73 6.88235 109.821 6.88235H110.465C110.556 6.88235 110.63 6.93503 110.63 7C110.63 7.06497 110.556 7.11765 110.465 7.11765H109.821C109.73 7.11765 109.656 7.06497 109.656 7ZM110.943 7C110.943 6.93503 111.017 6.88235 111.108 6.88235H111.752C111.843 6.88235 111.917 6.93503 111.917 7C111.917 7.06497 111.843 7.11765 111.752 7.11765H111.108C111.017 7.11765 110.943 7.06497 110.943 7ZM112.231 7C112.231 6.93503 112.305 6.88235 112.396 6.88235H113.04C113.131 6.88235 113.205 6.93503 113.205 7C113.205 7.06497 113.131 7.11765 113.04 7.11765H112.396C112.305 7.11765 112.231 7.06497 112.231 7ZM113.518 7C113.518 6.93503 113.592 6.88235 113.683 6.88235H114.327C114.418 6.88235 114.492 6.93503 114.492 7C114.492 7.06497 114.418 7.11765 114.327 7.11765H113.683C113.592 7.11765 113.518 7.06497 113.518 7ZM114.806 7C114.806 6.93503 114.88 6.88235 114.971 6.88235H115.615C115.706 6.88235 115.78 6.93503 115.78 7C115.78 7.06497 115.706 7.11765 115.615 7.11765H114.971C114.88 7.11765 114.806 7.06497 114.806 7ZM116.093 7C116.093 6.93503 116.167 6.88235 116.259 6.88235H116.902C116.993 6.88235 117.067 6.93503 117.067 7C117.067 7.06497 116.993 7.11765 116.902 7.11765H116.259C116.167 7.11765 116.093 7.06497 116.093 7ZM117.381 7C117.381 6.93503 117.455 6.88235 117.546 6.88235H118.19C118.281 6.88235 118.355 6.93503 118.355 7C118.355 7.06497 118.281 7.11765 118.19 7.11765H117.546C117.455 7.11765 117.381 7.06497 117.381 7ZM118.669 7C118.669 6.93503 118.742 6.88235 118.834 6.88235H119.155C119.247 6.88235 119.321 6.93503 119.321 7C119.321 7.06497 119.247 7.11765 119.155 7.11765H118.834C118.742 7.11765 118.669 7.06497 118.669 7Z" fill="#5C5C5C"/>
<path d="M110.626 2.65863L105.792 6.99966L110.787 9.35293H111.645L106.447 6.90364L111.174 2.65863H110.626Z" fill="#5C5C5C"/>
<path d="M111.645 9.35293L119.015 12.8252L118.784 12.1334L119.132 12.0177L119.556 13.2892L118.282 13.7131L118.166 13.3659L118.833 13.1442L110.787 9.35293H111.645Z" fill="#999999"/>
<path d="M111.056 2.76472L113.189 0.849902L113.091 1.43172L113.453 1.49188L113.672 0.180834H112.355V0.546824H112.978L110.508 2.76472H111.056Z" fill="#999999"/>
<path fill-rule="evenodd" clip-rule="evenodd" d="M106.115 2.88235C106.115 2.81738 106.189 2.76471 106.28 2.76471H106.602C106.693 2.76471 106.767 2.81738 106.767 2.88235C106.767 2.94733 106.693 3 106.602 3H106.28C106.189 3 106.115 2.94733 106.115 2.88235ZM107.081 2.88235C107.081 2.81738 107.155 2.76471 107.246 2.76471H107.89C107.981 2.76471 108.055 2.81738 108.055 2.88235C108.055 2.94733 107.981 3 107.89 3H107.246C107.155 3 107.081 2.94733 107.081 2.88235ZM108.368 2.88235C108.368 2.81738 108.442 2.76471 108.533 2.76471H109.177C109.268 2.76471 109.342 2.81738 109.342 2.88235C109.342 2.94733 109.268 3 109.177 3H108.533C108.442 3 108.368 2.94733 108.368 2.88235ZM109.656 2.88235C109.656 2.81738 109.73 2.76471 109.821 2.76471H110.465C110.556 2.76471 110.63 2.81738 110.63 2.88235C110.63 2.94733 110.556 3 110.465 3H109.821C109.73 3 109.656 2.94733 109.656 2.88235ZM110.943 2.88235C110.943 2.81738 111.017 2.76471 111.108 2.76471H111.752C111.843 2.76471 111.917 2.81738 111.917 2.88235C111.917 2.94733 111.843 3 111.752 3H111.108C111.017 3 110.943 2.94733 110.943 2.88235ZM112.231 2.88235C112.231 2.81738 112.305 2.76471 112.396 2.76471H113.04C113.131 2.76471 113.205 2.81738 113.205 2.88235C113.205 2.94733 113.131 3 113.04 3H112.396C112.305 3 112.231 2.94733 112.231 2.88235ZM113.518 2.88235C113.518 2.81738 113.592 2.76471 113.683 2.76471H114.327C114.418 2.76471 114.492 2.81738 114.492 2.88235C114.492 2.94733 114.418 3 114.327 3H113.683C113.592 3 113.518 2.94733 113.518 2.88235ZM114.806 2.88235C114.806 2.81738 114.88 2.76471 114.971 2.76471H115.615C115.706 2.76471 115.78 2.81738 115.78 2.88235C115.78 2.94733 115.706 3 115.615 3H114.971C114.88 3 114.806 2.94733 114.806 2.88235ZM116.093 2.88235C116.093 2.81738 116.167 2.76471 116.259 2.76471H116.902C116.993 2.76471 117.067 2.81738 117.067 2.88235C117.067 2.94733 116.993 3 116.902 3H116.259C116.167 3 116.093 2.94733 116.093 2.88235ZM117.381 2.88235C117.381 2.81738 117.455 2.76471 117.546 2.76471H118.19C118.281 2.76471 118.355 2.81738 118.355 2.88235C118.355 2.94733 118.281 3 118.19 3H117.546C117.455 3 117.381 2.94733 117.381 2.88235ZM118.669 2.88235C118.669 2.81738 118.742 2.76471 118.834 2.76471H119.155C119.247 2.76471 119.321 2.81738 119.321 2.88235C119.321 2.94733 119.247 3 119.155 3H118.834C118.742 3 118.669 2.94733 118.669 2.88235Z" fill="#999999"/>
<path fill-rule="evenodd" clip-rule="evenodd" d="M106.115 9.23529C106.115 9.17032 106.189 9.11765 106.28 9.11765H106.602C106.693 9.11765 106.767 9.17032 106.767 9.23529C106.767 9.30027 106.693 9.35294 106.602 9.35294H106.28C106.189 9.35294 106.115 9.30027 106.115 9.23529ZM107.081 9.23529C107.081 9.17032 107.155 9.11765 107.246 9.11765H107.89C107.981 9.11765 108.055 9.17032 108.055 9.23529C108.055 9.30027 107.981 9.35294 107.89 9.35294H107.246C107.155 9.35294 107.081 9.30027 107.081 9.23529ZM108.368 9.23529C108.368 9.17032 108.442 9.11765 108.533 9.11765H109.177C109.268 9.11765 109.342 9.17032 109.342 9.23529C109.342 9.30027 109.268 9.35294 109.177 9.35294H108.533C108.442 9.35294 108.368 9.30027 108.368 9.23529ZM109.656 9.23529C109.656 9.17032 109.73 9.11765 109.821 9.11765H110.465C110.556 9.11765 110.63 9.17032 110.63 9.23529C110.63 9.30027 110.556 9.35294 110.465 9.35294H109.821C109.73 9.35294 109.656 9.30027 109.656 9.23529ZM110.943 9.23529C110.943 9.17032 111.017 9.11765 111.108 9.11765H111.752C111.843 9.11765 111.917 9.17032 111.917 9.23529C111.917 9.30027 111.843 9.35294 111.752 9.35294H111.108C111.017 9.35294 110.943 9.30027 110.943 9.23529ZM112.231 9.23529C112.231 9.17032 112.305 9.11765 112.396 9.11765H113.04C113.131 9.11765 113.205 9.17032 113.205 9.23529C113.205 9.30027 113.131 9.35294 113.04 9.35294H112.396C112.305 9.35294 112.231 9.30027 112.231 9.23529ZM113.518 9.23529C113.518 9.17032 113.592 9.11765 113.683 9.11765H114.327C114.418 9.11765 114.492 9.17032 114.492 9.23529C114.492 9.30027 114.418 9.35294 114.327 9.35294H113.683C113.592 9.35294 113.518 9.30027 113.518 9.23529ZM114.806 9.23529C114.806 9.17032 114.88 9.11765 114.971 9.11765H115.615C115.706 9.11765 115.78 9.17032 115.78 9.23529C115.78 9.30027 115.706 9.35294 115.615 9.35294H114.971C114.88 9.35294 114.806 9.30027 114.806 9.23529ZM116.093 9.23529C116.093 9.17032 116.167 9.11765 116.259 9.11765H116.902C116.993 9.11765 117.067 9.17032 117.067 9.23529C117.067 9.30027 116.993 9.35294 116.902 9.35294H116.259C116.167 9.35294 116.093 9.30027 116.093 9.23529ZM117.381 9.23529C117.381 9.17032 117.455 9.11765 117.546 9.11765H118.19C118.281 9.11765 118.355 9.17032 118.355 9.23529C118.355 9.30027 118.281 9.35294 118.19 9.35294H117.546C117.455 9.35294 117.381 9.30027 117.381 9.23529ZM118.669 9.23529C118.669 9.17032 118.742 9.11765 118.834 9.11765H119.155C119.247 9.11765 119.321 9.17032 119.321 9.23529C119.321 9.30027 119.247 9.35294 119.155 9.35294H118.834C118.742 9.35294 118.669 9.30027 118.669 9.23529Z" fill="#999999"/>
<path fill-rule="evenodd" clip-rule="evenodd" d="M127.338 7C127.338 6.93503 127.412 6.88235 127.503 6.88235H127.825C127.916 6.88235 127.99 6.93503 127.99 7C127.99 7.06497 127.916 7.11765 127.825 7.11765H127.503C127.412 7.11765 127.338 7.06497 127.338 7ZM128.304 7C128.304 6.93503 128.378 6.88235 128.469 6.88235H129.113C129.204 6.88235 129.278 6.93503 129.278 7C129.278 7.06497 129.204 7.11765 129.113 7.11765H128.469C128.378 7.11765 128.304 7.06497 128.304 7ZM129.591 7C129.591 6.93503 129.665 6.88235 129.756 6.88235H130.4C130.491 6.88235 130.565 6.93503 130.565 7C130.565 7.06497 130.491 7.11765 130.4 7.11765H129.756C129.665 7.11765 129.591 7.06497 129.591 7ZM130.879 7C130.879 6.93503 130.953 6.88235 131.044 6.88235H131.688C131.779 6.88235 131.853 6.93503 131.853 7C131.853 7.06497 131.779 7.11765 131.688 7.11765H131.044C130.953 7.11765 130.879 7.06497 130.879 7ZM132.166 7C132.166 6.93503 132.24 6.88235 132.331 6.88235H132.975C133.066 6.88235 133.14 6.93503 133.14 7C133.14 7.06497 133.066 7.11765 132.975 7.11765H132.331C132.24 7.11765 132.166 7.06497 132.166 7ZM133.454 7C133.454 6.93503 133.528 6.88235 133.619 6.88235H134.263C134.354 6.88235 134.428 6.93503 134.428 7C134.428 7.06497 134.354 7.11765 134.263 7.11765H133.619C133.528 7.11765 133.454 7.06497 133.454 7ZM134.741 7C134.741 6.93503 134.815 6.88235 134.906 6.88235H135.55C135.641 6.88235 135.715 6.93503 135.715 7C135.715 7.06497 135.641 7.11765 135.55 7.11765H134.906C134.815 7.11765 134.741 7.06497 134.741 7ZM136.029 7C136.029 6.93503 136.103 6.88235 136.194 6.88235H136.838C136.929 6.88235 137.003 6.93503 137.003 7C137.003 7.06497 136.929 7.11765 136.838 7.11765H136.194C136.103 7.11765 136.029 7.06497 136.029 7ZM137.316 7C137.316 6.93503 137.39 6.88235 137.482 6.88235H138.125C138.216 6.88235 138.29 6.93503 138.29 7C138.29 7.06497 138.216 7.11765 138.125 7.11765H137.482C137.39 7.11765 137.316 7.06497 137.316 7ZM138.604 7C138.604 6.93503 138.678 6.88235 138.769 6.88235H139.413C139.504 6.88235 139.578 6.93503 139.578 7C139.578 7.06497 139.504 7.11765 139.413 7.11765H138.769C138.678 7.11765 138.604 7.06497 138.604 7ZM139.892 7C139.892 6.93503 139.965 6.88235 140.057 6.88235H140.378C140.47 6.88235 140.544 6.93503 140.544 7C140.544 7.06497 140.47 7.11765 140.378 7.11765H140.057C139.965 7.11765 139.892 7.06497 139.892 7Z" fill="#5C5C5C"/>
<path d="M134.076 10.2941L127.062 6.98906L134.03 3.70588H134.88L127.912 6.98906L134.926 10.2941H134.076Z" fill="#5C5C5C"/>
<path d="M134.88 3.70588L140.244 1.17851L140.015 1.8629L140.359 1.9774L140.779 0.719462L139.519 0.300149L139.404 0.643634L140.063 0.862977L134.03 3.70588H134.88Z" fill="#999999"/>
<path d="M134.926 10.2941L140.244 12.7996L140.015 12.1152L140.359 12.0007L140.779 13.2587L139.519 13.678L139.404 13.3345L140.063 13.1151L134.076 10.2941H134.926Z" fill="#999999"/>
<path fill-rule="evenodd" clip-rule="evenodd" d="M127.338 3.82353C127.338 3.75855 127.412 3.70588 127.503 3.70588H127.825C127.916 3.70588 127.99 3.75855 127.99 3.82353C127.99 3.8885 127.916 3.94118 127.825 3.94118H127.503C127.412 3.94118 127.338 3.8885 127.338 3.82353ZM128.304 3.82353C128.304 3.75855 128.378 3.70588 128.469 3.70588H129.113C129.204 3.70588 129.278 3.75855 129.278 3.82353C129.278 3.8885 129.204 3.94118 129.113 3.94118H128.469C128.378 3.94118 128.304 3.8885 128.304 3.82353ZM129.591 3.82353C129.591 3.75855 129.665 3.70588 129.756 3.70588H130.4C130.491 3.70588 130.565 3.75855 130.565 3.82353C130.565 3.8885 130.491 3.94118 130.4 3.94118H129.756C129.665 3.94118 129.591 3.8885 129.591 3.82353ZM130.879 3.82353C130.879 3.75855 130.953 3.70588 131.044 3.70588H131.688C131.779 3.70588 131.853 3.75855 131.853 3.82353C131.853 3.8885 131.779 3.94118 131.688 3.94118H131.044C130.953 3.94118 130.879 3.8885 130.879 3.82353ZM132.166 3.82353C132.166 3.75855 132.24 3.70588 132.331 3.70588H132.975C133.066 3.70588 133.14 3.75855 133.14 3.82353C133.14 3.8885 133.066 3.94118 132.975 3.94118H132.331C132.24 3.94118 132.166 3.8885 132.166 3.82353ZM133.454 3.82353C133.454 3.75855 133.528 3.70588 133.619 3.70588H134.263C134.354 3.70588 134.428 3.75855 134.428 3.82353C134.428 3.8885 134.354 3.94118 134.263 3.94118H133.619C133.528 3.94118 133.454 3.8885 133.454 3.82353ZM134.741 3.82353C134.741 3.75855 134.815 3.70588 134.906 3.70588H135.55C135.641 3.70588 135.715 3.75855 135.715 3.82353C135.715 3.8885 135.641 3.94118 135.55 3.94118H134.906C134.815 3.94118 134.741 3.8885 134.741 3.82353ZM136.029 3.82353C136.029 3.75855 136.103 3.70588 136.194 3.70588H136.838C136.929 3.70588 137.003 3.75855 137.003 3.82353C137.003 3.8885 136.929 3.94118 136.838 3.94118H136.194C136.103 3.94118 136.029 3.8885 136.029 3.82353ZM137.316 3.82353C137.316 3.75855 137.39 3.70588 137.482 3.70588H138.125C138.216 3.70588 138.29 3.75855 138.29 3.82353C138.29 3.8885 138.216 3.94118 138.125 3.94118H137.482C137.39 3.94118 137.316 3.8885 137.316 3.82353ZM138.604 3.82353C138.604 3.75855 138.678 3.70588 138.769 3.70588H139.413C139.504 3.70588 139.578 3.75855 139.578 3.82353C139.578 3.8885 139.504 3.94118 139.413 3.94118H138.769C138.678 3.94118 138.604 3.8885 138.604 3.82353ZM139.892 3.82353C139.892 3.75855 139.965 3.70588 140.057 3.70588H140.378C140.47 3.70588 140.544 3.75855 140.544 3.82353C140.544 3.8885 140.47 3.94118 140.378 3.94118H140.057C139.965 3.94118 139.892 3.8885 139.892 3.82353Z" fill="#999999"/>
<path fill-rule="evenodd" clip-rule="evenodd" d="M127.338 10.1765C127.338 10.2414 127.412 10.2941 127.503 10.2941H127.825C127.916 10.2941 127.99 10.2414 127.99 10.1765C127.99 10.1115 127.916 10.0588 127.825 10.0588H127.503C127.412 10.0588 127.338 10.1115 127.338 10.1765ZM128.304 10.1765C128.304 10.2414 128.378 10.2941 128.469 10.2941H129.113C129.204 10.2941 129.278 10.2414 129.278 10.1765C129.278 10.1115 129.204 10.0588 129.113 10.0588H128.469C128.378 10.0588 128.304 10.1115 128.304 10.1765ZM129.591 10.1765C129.591 10.2414 129.665 10.2941 129.756 10.2941H130.4C130.491 10.2941 130.565 10.2414 130.565 10.1765C130.565 10.1115 130.491 10.0588 130.4 10.0588H129.756C129.665 10.0588 129.591 10.1115 129.591 10.1765ZM130.879 10.1765C130.879 10.2414 130.953 10.2941 131.044 10.2941H131.688C131.779 10.2941 131.853 10.2414 131.853 10.1765C131.853 10.1115 131.779 10.0588 131.688 10.0588H131.044C130.953 10.0588 130.879 10.1115 130.879 10.1765ZM132.166 10.1765C132.166 10.2414 132.24 10.2941 132.331 10.2941H132.975C133.066 10.2941 133.14 10.2414 133.14 10.1765C133.14 10.1115 133.066 10.0588 132.975 10.0588H132.331C132.24 10.0588 132.166 10.1115 132.166 10.1765ZM133.454 10.1765C133.454 10.2414 133.528 10.2941 133.619 10.2941H134.263C134.354 10.2941 134.428 10.2414 134.428 10.1765C134.428 10.1115 134.354 10.0588 134.263 10.0588H133.619C133.528 10.0588 133.454 10.1115 133.454 10.1765ZM134.741 10.1765C134.741 10.2414 134.815 10.2941 134.906 10.2941H135.55C135.641 10.2941 135.715 10.2414 135.715 10.1765C135.715 10.1115 135.641 10.0588 135.55 10.0588H134.906C134.815 10.0588 134.741 10.1115 134.741 10.1765ZM136.029 10.1765C136.029 10.2414 136.103 10.2941 136.194 10.2941H136.838C136.929 10.2941 137.003 10.2414 137.003 10.1765C137.003 10.1115 136.929 10.0588 136.838 10.0588H136.194C136.103 10.0588 136.029 10.1115 136.029 10.1765ZM137.316 10.1765C137.316 10.2414 137.39 10.2941 137.482 10.2941H138.125C138.216 10.2941 138.29 10.2414 138.29 10.1765C138.29 10.1115 138.216 10.0588 138.125 10.0588H137.482C137.39 10.0588 137.316 10.1115 137.316 10.1765ZM138.604 10.1765C138.604 10.2414 138.678 10.2941 138.769 10.2941H139.413C139.504 10.2941 139.578 10.2414 139.578 10.1765C139.578 10.1115 139.504 10.0588 139.413 10.0588H138.769C138.678 10.0588 138.604 10.1115 138.604 10.1765ZM139.892 10.1765C139.892 10.2414 139.965 10.2941 140.057 10.2941H140.378C140.47 10.2941 140.544 10.2414 140.544 10.1765C140.544 10.1115 140.47 10.0588 140.378 10.0588H140.057C139.965 10.0588 139.892 10.1115 139.892 10.1765Z" fill="#999999"/>
<path fill-rule="evenodd" clip-rule="evenodd" d="M148.561 5.58823C148.561 5.52326 148.635 5.47059 148.726 5.47059H149.048C149.139 5.47059 149.213 5.52326 149.213 5.58823C149.213 5.65321 149.139 5.70588 149.048 5.70588H148.726C148.635 5.70588 148.561 5.65321 148.561 5.58823ZM149.527 5.58823C149.527 5.52326 149.601 5.47059 149.692 5.47059H150.336C150.427 5.47059 150.501 5.52326 150.501 5.58823C150.501 5.65321 150.427 5.70588 150.336 5.70588H149.692C149.601 5.70588 149.527 5.65321 149.527 5.58823ZM150.814 5.58823C150.814 5.52326 150.888 5.47059 150.979 5.47059H151.623C151.714 5.47059 151.788 5.52326 151.788 5.58823C151.788 5.65321 151.714 5.70588 151.623 5.70588H150.979C150.888 5.70588 150.814 5.65321 150.814 5.58823ZM152.102 5.58823C152.102 5.52326 152.176 5.47059 152.267 5.47059H152.911C153.002 5.47059 153.076 5.52326 153.076 5.58823C153.076 5.65321 153.002 5.70588 152.911 5.70588H152.267C152.176 5.70588 152.102 5.65321 152.102 5.58823ZM153.389 5.58823C153.389 5.52326 153.463 5.47059 153.554 5.47059H154.198C154.289 5.47059 154.363 5.52326 154.363 5.58823C154.363 5.65321 154.289 5.70588 154.198 5.70588H153.554C153.463 5.70588 153.389 5.65321 153.389 5.58823ZM154.677 5.58823C154.677 5.52326 154.751 5.47059 154.842 5.47059H155.486C155.577 5.47059 155.651 5.52326 155.651 5.58823C155.651 5.65321 155.577 5.70588 155.486 5.70588H154.842C154.751 5.70588 154.677 5.65321 154.677 5.58823ZM155.964 5.58823C155.964 5.52326 156.038 5.47059 156.129 5.47059H156.773C156.864 5.47059 156.938 5.52326 156.938 5.58823C156.938 5.65321 156.864 5.70588 156.773 5.70588H156.129C156.038 5.70588 155.964 5.65321 155.964 5.58823ZM157.252 5.58823C157.252 5.52326 157.326 5.47059 157.417 5.47059H158.061C158.152 5.47059 158.226 5.52326 158.226 5.58823C158.226 5.65321 158.152 5.70588 158.061 5.70588H157.417C157.326 5.70588 157.252 5.65321 157.252 5.58823ZM158.539 5.58823C158.539 5.52326 158.613 5.47059 158.705 5.47059H159.348C159.439 5.47059 159.513 5.52326 159.513 5.58823C159.513 5.65321 159.439 5.70588 159.348 5.70588H158.705C158.613 5.70588 158.539 5.65321 158.539 5.58823ZM159.827 5.58823C159.827 5.52326 159.901 5.47059 159.992 5.47059H160.636C160.727 5.47059 160.801 5.52326 160.801 5.58823C160.801 5.65321 160.727 5.70588 160.636 5.70588H159.992C159.901 5.70588 159.827 5.65321 159.827 5.58823ZM161.115 5.58823C161.115 5.52326 161.188 5.47059 161.28 5.47059H161.602C161.693 5.47059 161.767 5.52326 161.767 5.58823C161.767 5.65321 161.693 5.70588 161.602 5.70588H161.28C161.188 5.70588 161.115 5.65321 161.115 5.58823Z" fill="#5C5C5C"/>
<path fill-rule="evenodd" clip-rule="evenodd" d="M148.561 8.41176C148.561 8.34679 148.635 8.29412 148.726 8.29412H149.048C149.139 8.29412 149.213 8.34679 149.213 8.41176C149.213 8.47674 149.139 8.52941 149.048 8.52941H148.726C148.635 8.52941 148.561 8.47674 148.561 8.41176ZM149.527 8.41176C149.527 8.34679 149.601 8.29412 149.692 8.29412H150.336C150.427 8.29412 150.501 8.34679 150.501 8.41176C150.501 8.47674 150.427 8.52941 150.336 8.52941H149.692C149.601 8.52941 149.527 8.47674 149.527 8.41176ZM150.814 8.41176C150.814 8.34679 150.888 8.29412 150.979 8.29412H151.623C151.714 8.29412 151.788 8.34679 151.788 8.41176C151.788 8.47674 151.714 8.52941 151.623 8.52941H150.979C150.888 8.52941 150.814 8.47674 150.814 8.41176ZM152.102 8.41176C152.102 8.34679 152.176 8.29412 152.267 8.29412H152.911C153.002 8.29412 153.076 8.34679 153.076 8.41176C153.076 8.47674 153.002 8.52941 152.911 8.52941H152.267C152.176 8.52941 152.102 8.47674 152.102 8.41176ZM153.389 8.41176C153.389 8.34679 153.463 8.29412 153.554 8.29412H154.198C154.289 8.29412 154.363 8.34679 154.363 8.41176C154.363 8.47674 154.289 8.52941 154.198 8.52941H153.554C153.463 8.52941 153.389 8.47674 153.389 8.41176ZM154.677 8.41176C154.677 8.34679 154.751 8.29412 154.842 8.29412H155.486C155.577 8.29412 155.651 8.34679 155.651 8.41176C155.651 8.47674 155.577 8.52941 155.486 8.52941H154.842C154.751 8.52941 154.677 8.47674 154.677 8.41176ZM155.964 8.41176C155.964 8.34679 156.038 8.29412 156.129 8.29412H156.773C156.864 8.29412 156.938 8.34679 156.938 8.41176C156.938 8.47674 156.864 8.52941 156.773 8.52941H156.129C156.038 8.52941 155.964 8.47674 155.964 8.41176ZM157.252 8.41176C157.252 8.34679 157.326 8.29412 157.417 8.29412H158.061C158.152 8.29412 158.226 8.34679 158.226 8.41176C158.226 8.47674 158.152 8.52941 158.061 8.52941H157.417C157.326 8.52941 157.252 8.47674 157.252 8.41176ZM158.539 8.41176C158.539 8.34679 158.613 8.29412 158.705 8.29412H159.348C159.439 8.29412 159.513 8.34679 159.513 8.41176C159.513 8.47674 159.439 8.52941 159.348 8.52941H158.705C158.613 8.52941 158.539 8.47674 158.539 8.41176ZM159.827 8.41176C159.827 8.34679 159.901 8.29412 159.992 8.29412H160.636C160.727 8.29412 160.801 8.34679 160.801 8.41176C160.801 8.47674 160.727 8.52941 160.636 8.52941H159.992C159.901 8.52941 159.827 8.47674 159.827 8.41176ZM161.115 8.41176C161.115 8.34679 161.188 8.29412 161.28 8.29412H161.602C161.693 8.29412 161.767 8.34679 161.767 8.41176C161.767 8.47674 161.693 8.52941 161.602 8.52941H161.28C161.188 8.52941 161.115 8.47674 161.115 8.41176Z" fill="#5C5C5C"/>
<path d="M162 0.792777L160.777 0.250517L160.634 0.573039L161.291 0.864509L154.638 3.23529H155.69L161.437 1.18709L161.133 1.86952L161.457 2.01286L162 0.792777Z" fill="#999999"/>
<path d="M155.69 10.7647H154.638L161.291 13.1355L160.634 13.427L160.777 13.7495L162 13.2072L161.457 11.9872L161.133 12.1305L161.437 12.8129L155.69 10.7647Z" fill="#999999"/>
<path d="M154.638 10.7647L148.384 8.53614V5.46389L154.638 3.23529H155.69L148.738 5.71261V8.28742L155.69 10.7647H154.638Z" fill="#5C5C5C"/>
<path fill-rule="evenodd" clip-rule="evenodd" d="M148.561 3.35294C148.561 3.28797 148.635 3.23529 148.726 3.23529H149.048C149.139 3.23529 149.213 3.28797 149.213 3.35294C149.213 3.41792 149.139 3.47059 149.048 3.47059H148.726C148.635 3.47059 148.561 3.41792 148.561 3.35294ZM149.527 3.35294C149.527 3.28797 149.601 3.23529 149.692 3.23529H150.336C150.427 3.23529 150.501 3.28797 150.501 3.35294C150.501 3.41792 150.427 3.47059 150.336 3.47059H149.692C149.601 3.47059 149.527 3.41792 149.527 3.35294ZM150.814 3.35294C150.814 3.28797 150.888 3.23529 150.979 3.23529H151.623C151.714 3.23529 151.788 3.28797 151.788 3.35294C151.788 3.41792 151.714 3.47059 151.623 3.47059H150.979C150.888 3.47059 150.814 3.41792 150.814 3.35294ZM152.102 3.35294C152.102 3.28797 152.176 3.23529 152.267 3.23529H152.911C153.002 3.23529 153.076 3.28797 153.076 3.35294C153.076 3.41792 153.002 3.47059 152.911 3.47059H152.267C152.176 3.47059 152.102 3.41792 152.102 3.35294ZM153.389 3.35294C153.389 3.28797 153.463 3.23529 153.554 3.23529H154.198C154.289 3.23529 154.363 3.28797 154.363 3.35294C154.363 3.41792 154.289 3.47059 154.198 3.47059H153.554C153.463 3.47059 153.389 3.41792 153.389 3.35294ZM154.677 3.35294C154.677 3.28797 154.751 3.23529 154.842 3.23529H155.486C155.577 3.23529 155.651 3.28797 155.651 3.35294C155.651 3.41792 155.577 3.47059 155.486 3.47059H154.842C154.751 3.47059 154.677 3.41792 154.677 3.35294ZM155.964 3.35294C155.964 3.28797 156.038 3.23529 156.129 3.23529H156.773C156.864 3.23529 156.938 3.28797 156.938 3.35294C156.938 3.41792 156.864 3.47059 156.773 3.47059H156.129C156.038 3.47059 155.964 3.41792 155.964 3.35294ZM157.252 3.35294C157.252 3.28797 157.326 3.23529 157.417 3.23529H158.061C158.152 3.23529 158.226 3.28797 158.226 3.35294C158.226 3.41792 158.152 3.47059 158.061 3.47059H157.417C157.326 3.47059 157.252 3.41792 157.252 3.35294ZM158.539 3.35294C158.539 3.28797 158.613 3.23529 158.705 3.23529H159.348C159.439 3.23529 159.513 3.28797 159.513 3.35294C159.513 3.41792 159.439 3.47059 159.348 3.47059H158.705C158.613 3.47059 158.539 3.41792 158.539 3.35294ZM159.827 3.35294C159.827 3.28797 159.901 3.23529 159.992 3.23529H160.636C160.727 3.23529 160.801 3.28797 160.801 3.35294C160.801 3.41792 160.727 3.47059 160.636 3.47059H159.992C159.901 3.47059 159.827 3.41792 159.827 3.35294ZM161.115 3.35294C161.115 3.28797 161.188 3.23529 161.28 3.23529H161.602C161.693 3.23529 161.767 3.28797 161.767 3.35294C161.767 3.41792 161.693 3.47059 161.602 3.47059H161.28C161.188 3.47059 161.115 3.41792 161.115 3.35294Z" fill="#999999"/>
<path fill-rule="evenodd" clip-rule="evenodd" d="M148.561 10.6471C148.561 10.712 148.635 10.7647 148.726 10.7647H149.048C149.139 10.7647 149.213 10.712 149.213 10.6471C149.213 10.5821 149.139 10.5294 149.048 10.5294H148.726C148.635 10.5294 148.561 10.5821 148.561 10.6471ZM149.527 10.6471C149.527 10.712 149.601 10.7647 149.692 10.7647H150.336C150.427 10.7647 150.501 10.712 150.501 10.6471C150.501 10.5821 150.427 10.5294 150.336 10.5294H149.692C149.601 10.5294 149.527 10.5821 149.527 10.6471ZM150.814 10.6471C150.814 10.712 150.888 10.7647 150.979 10.7647H151.623C151.714 10.7647 151.788 10.712 151.788 10.6471C151.788 10.5821 151.714 10.5294 151.623 10.5294H150.979C150.888 10.5294 150.814 10.5821 150.814 10.6471ZM152.102 10.6471C152.102 10.712 152.176 10.7647 152.267 10.7647H152.911C153.002 10.7647 153.076 10.712 153.076 10.6471C153.076 10.5821 153.002 10.5294 152.911 10.5294H152.267C152.176 10.5294 152.102 10.5821 152.102 10.6471ZM153.389 10.6471C153.389 10.712 153.463 10.7647 153.554 10.7647H154.198C154.289 10.7647 154.363 10.712 154.363 10.6471C154.363 10.5821 154.289 10.5294 154.198 10.5294H153.554C153.463 10.5294 153.389 10.5821 153.389 10.6471ZM154.677 10.6471C154.677 10.712 154.751 10.7647 154.842 10.7647H155.486C155.577 10.7647 155.651 10.712 155.651 10.6471C155.651 10.5821 155.577 10.5294 155.486 10.5294H154.842C154.751 10.5294 154.677 10.5821 154.677 10.6471ZM155.964 10.6471C155.964 10.712 156.038 10.7647 156.129 10.7647H156.773C156.864 10.7647 156.938 10.712 156.938 10.6471C156.938 10.5821 156.864 10.5294 156.773 10.5294H156.129C156.038 10.5294 155.964 10.5821 155.964 10.6471ZM157.252 10.6471C157.252 10.712 157.326 10.7647 157.417 10.7647H158.061C158.152 10.7647 158.226 10.712 158.226 10.6471C158.226 10.5821 158.152 10.5294 158.061 10.5294H157.417C157.326 10.5294 157.252 10.5821 157.252 10.6471ZM158.539 10.6471C158.539 10.712 158.613 10.7647 158.705 10.7647H159.348C159.439 10.7647 159.513 10.712 159.513 10.6471C159.513 10.5821 159.439 10.5294 159.348 10.5294H158.705C158.613 10.5294 158.539 10.5821 158.539 10.6471ZM159.827 10.6471C159.827 10.712 159.901 10.7647 159.992 10.7647H160.636C160.727 10.7647 160.801 10.712 160.801 10.6471C160.801 10.5821 160.727 10.5294 160.636 10.5294H159.992C159.901 10.5294 159.827 10.5821 159.827 10.6471ZM161.115 10.6471C161.115 10.712 161.188 10.7647 161.28 10.7647H161.602C161.693 10.7647 161.767 10.712 161.767 10.6471C161.767 10.5821 161.693 10.5294 161.602 10.5294H161.28C161.188 10.5294 161.115 10.5821 161.115 10.6471Z" fill="#999999"/>
</svg>
