<svg width="20" height="20" viewBox="0 0 20 20" fill="none" xmlns="http://www.w3.org/2000/svg">
<path fill-rule="evenodd" clip-rule="evenodd" d="M15 5V4C15 3.44772 14.5523 3 14 3H6C5.44772 3 5 3.44772 5 4V5H3C2.44772 5 2 5.44772 2 6V7C2 8.86384 3.27477 10.4299 5 10.874C5.04622 10.8859 5.09277 10.897 5.13963 10.9072C5.52413 12.1206 6.65937 13 8 13H9.25V16H7.75C7.33579 16 7 16.3358 7 16.75C7 17.1642 7.33579 17.5 7.75 17.5H12.25C12.6642 17.5 13 17.1642 13 16.75C13 16.3358 12.6642 16 12.25 16H10.75V13H12C13.3406 13 14.4759 12.1206 14.8604 10.9072C14.9072 10.897 14.9538 10.8859 15 10.874C16.7252 10.4299 18 8.86384 18 7V6C18 5.44772 17.5523 5 17 5H15ZM6.5 4.5V10C6.5 10.8284 7.17157 11.5 8 11.5H12C12.8284 11.5 13.5 10.8284 13.5 10V4.5H6.5ZM15 6.5V9.29198C15.883 8.9062 16.5 8.02516 16.5 7V6.5H15ZM3.5 6.5H5V9.29198C4.11705 8.9062 3.5 8.02516 3.5 7V6.5Z" fill="url(#paint0_linear_464_887)"/>
<defs>
<linearGradient id="paint0_linear_464_887" x1="10" y1="3" x2="10" y2="17.5" gradientUnits="userSpaceOnUse">
<stop stop-color="#338464"/>
<stop offset="1" stop-color="#338449"/>
</linearGradient>
</defs>
</svg>
