<svg width="24" height="36" viewBox="0 0 24 36" fill="none" xmlns="http://www.w3.org/2000/svg">
<path fill-rule="evenodd" clip-rule="evenodd" d="M4.4881 9.45455H7.63636V11.6364H1.09091V5.08132H3.27273V7.55249C5.71318 4.99334 8.4945 4 12 4C18.6274 4 24 9.37258 24 16C24 22.6274 18.6274 28 12 28C5.37258 28 0 22.6274 0 16H2.18182C2.18182 21.4224 6.57757 25.8182 12 25.8182C17.4224 25.8182 21.8182 21.4224 21.8182 16C21.8182 10.5776 17.4224 6.18182 12 6.18182C8.90096 6.18182 6.59417 7.04514 4.4881 9.45455ZM13.0909 14.9091H17.4545V17.0909H10.9091V9.45455H13.0909V14.9091Z" fill="#7A7A7A"/>
</svg>
