<svg width="16" height="16" viewBox="0 0 16 16" fill="none" xmlns="http://www.w3.org/2000/svg">
<g id="tabler-icon-hand-click">
<path id="Vector" d="M8.17647 9V4.5C8.17647 4.26131 8.07421 4.03239 7.89219 3.8636C7.71017 3.69482 7.4633 3.6 7.20588 3.6C6.94847 3.6 6.70159 3.69482 6.51957 3.8636C6.33755 4.03239 6.23529 4.26131 6.23529 4.5V9.6L5.28412 8.718C5.09358 8.54153 4.84492 8.42915 4.57763 8.39871C4.31034 8.36827 4.03974 8.42152 3.80882 8.55C3.59203 8.67053 3.43449 8.86472 3.36972 9.09129C3.30495 9.31786 3.33806 9.55892 3.462 9.7632C4.67782 11.7672 5.38635 12.9126 5.58824 13.2L5.71506 13.38C6.06869 13.8779 6.55014 14.2866 7.11619 14.5694C7.68224 14.8521 8.31516 15.0001 8.95812 15H8.82353H10.1176C11.1473 15 12.1348 14.6207 12.8629 13.9456C13.591 13.2705 14 12.3548 14 11.4V8.7C14 8.46131 13.8977 8.23239 13.7157 8.0636C13.5337 7.89482 13.2868 7.8 13.0294 7.8C12.772 7.8 12.5251 7.89482 12.3431 8.0636C12.1611 8.23239 12.0588 8.46131 12.0588 8.7M8.17647 8.7V7.5C8.17647 7.26131 8.27873 7.03239 8.46075 6.8636C8.64277 6.69482 8.88964 6.6 9.14706 6.6C9.40448 6.6 9.65135 6.69482 9.83337 6.8636C10.0154 7.03239 10.1176 7.26131 10.1176 7.5V9M10.1176 8.1C10.1176 7.86131 10.2199 7.63239 10.4019 7.4636C10.5839 7.29482 10.8308 7.2 11.0882 7.2C11.3457 7.2 11.5925 7.29482 11.7745 7.4636C11.9566 7.63239 12.0588 7.86131 12.0588 8.1V9M4.29412 3.6L3.64706 3M3.64706 6H3M10.1176 3.6L10.7647 3M10.7647 5.4H11.4118" stroke="#7A7A7A" stroke-width="0.5" stroke-linecap="round" stroke-linejoin="round"/>
</g>
</svg>
