<svg width="32" height="32" viewBox="0 0 32 32" fill="none" xmlns="http://www.w3.org/2000/svg">
<path fill-rule="evenodd" clip-rule="evenodd" d="M15.5 16V7H16.5V16H15.5Z" fill="#B7666C"/>
<path fill-rule="evenodd" clip-rule="evenodd" d="M13 7.51212C9.50442 8.74763 7 12.0813 7 16C7 20.9706 11.0294 25 16 25C20.9706 25 25 20.9706 25 16C25 12.0813 22.4956 8.74763 19 7.51212V8.58152C21.9318 9.76829 24 12.6426 24 16C24 20.4183 20.4183 24 16 24C11.5817 24 8 20.4183 8 16C8 12.6426 10.0682 9.76829 13 8.58152V7.51212Z" fill="#B7666C"/>
</svg>
