<svg width="76" height="14" viewBox="0 0 76 14" fill="none" xmlns="http://www.w3.org/2000/svg">
<path fill-rule="evenodd" clip-rule="evenodd" d="M0.232373 13.5187C0.232373 13.4533 0.303898 13.4002 0.392129 13.4002H0.703654C0.791885 13.4002 0.86341 13.4533 0.86341 13.5187C0.86341 13.5842 0.791885 13.6372 0.703654 13.6372H0.392129C0.303898 13.6372 0.232373 13.5842 0.232373 13.5187ZM1.16695 13.5187C1.16695 13.4533 1.23847 13.4002 1.3267 13.4002H1.94975C2.03798 13.4002 2.10951 13.4533 2.10951 13.5187C2.10951 13.5842 2.03798 13.6372 1.94975 13.6372H1.3267C1.23847 13.6372 1.16695 13.5842 1.16695 13.5187ZM2.41305 13.5187C2.41305 13.4533 2.48457 13.4002 2.5728 13.4002H3.19585C3.28408 13.4002 3.35561 13.4533 3.35561 13.5187C3.35561 13.5842 3.28408 13.6372 3.19585 13.6372H2.5728C2.48457 13.6372 2.41305 13.5842 2.41305 13.5187ZM3.65915 13.5187C3.65915 13.4533 3.73067 13.4002 3.8189 13.4002H4.44195C4.53018 13.4002 4.60171 13.4533 4.60171 13.5187C4.60171 13.5842 4.53018 13.6372 4.44195 13.6372H3.8189C3.73067 13.6372 3.65915 13.5842 3.65915 13.5187ZM4.90524 13.5187C4.90524 13.4533 4.97677 13.4002 5.065 13.4002H5.68805C5.77628 13.4002 5.84781 13.4533 5.84781 13.5187C5.84781 13.5842 5.77628 13.6372 5.68805 13.6372H5.065C4.97677 13.6372 4.90524 13.5842 4.90524 13.5187ZM6.15134 13.5187C6.15134 13.4533 6.22287 13.4002 6.3111 13.4002H6.93415C7.02238 13.4002 7.09391 13.4533 7.09391 13.5187C7.09391 13.5842 7.02238 13.6372 6.93415 13.6372H6.3111C6.22287 13.6372 6.15134 13.5842 6.15134 13.5187ZM7.39744 13.5187C7.39744 13.4533 7.46897 13.4002 7.5572 13.4002H8.18025C8.26848 13.4002 8.34001 13.4533 8.34001 13.5187C8.34001 13.5842 8.26848 13.6372 8.18025 13.6372H7.5572C7.46897 13.6372 7.39744 13.5842 7.39744 13.5187ZM8.64354 13.5187C8.64354 13.4533 8.71507 13.4002 8.8033 13.4002H9.42635C9.51458 13.4002 9.58611 13.4533 9.58611 13.5187C9.58611 13.5842 9.51458 13.6372 9.42635 13.6372H8.8033C8.71507 13.6372 8.64354 13.5842 8.64354 13.5187ZM9.88964 13.5187C9.88964 13.4533 9.96117 13.4002 10.0494 13.4002H10.6724C10.7607 13.4002 10.8322 13.4533 10.8322 13.5187C10.8322 13.5842 10.7607 13.6372 10.6724 13.6372H10.0494C9.96117 13.6372 9.88964 13.5842 9.88964 13.5187ZM11.1357 13.5187C11.1357 13.4533 11.2073 13.4002 11.2955 13.4002H11.9185C12.0068 13.4002 12.0783 13.4533 12.0783 13.5187C12.0783 13.5842 12.0068 13.6372 11.9185 13.6372H11.2955C11.2073 13.6372 11.1357 13.5842 11.1357 13.5187ZM12.3818 13.5187C12.3818 13.4533 12.4534 13.4002 12.5416 13.4002H12.8531C12.9414 13.4002 13.0129 13.4533 13.0129 13.5187C13.0129 13.5842 12.9414 13.6372 12.8531 13.6372H12.5416C12.4534 13.6372 12.3818 13.5842 12.3818 13.5187Z" fill="#5C5C5C"/>
<path d="M6.77563 7H6.39361L9.18208 0.659062H12.5921L12.1925 0.251424L12.439 2.38426e-08L13.2593 0.836845L12.439 1.67369L12.1925 1.42227L12.5921 1.01463H9.40774L6.77563 7Z" fill="#5C5C5C"/>
<path d="M6.87987 6.76296L3.8308 13.6965H0V13.3409H3.60513L6.49785 6.76296H6.87987Z" fill="#999999"/>
<path fill-rule="evenodd" clip-rule="evenodd" d="M0 6.88148C0 6.81602 0.0728258 6.76296 0.162661 6.76296H0.47985C0.569685 6.76296 0.642511 6.81602 0.642511 6.88148C0.642511 6.94694 0.569685 7 0.47985 7H0.162661C0.0728258 7 0 6.94694 0 6.88148ZM0.951567 6.88148C0.951567 6.81602 1.02439 6.76296 1.11423 6.76296H1.74861C1.83844 6.76296 1.91127 6.81602 1.91127 6.88148C1.91127 6.94694 1.83844 7 1.74861 7H1.11423C1.02439 7 0.951567 6.94694 0.951567 6.88148ZM2.22032 6.88148C2.22032 6.81602 2.29315 6.76296 2.38298 6.76296H3.01736C3.1072 6.76296 3.18002 6.81602 3.18002 6.88148C3.18002 6.94694 3.1072 7 3.01736 7H2.38298C2.29315 7 2.22032 6.94694 2.22032 6.88148ZM3.48908 6.88148C3.48908 6.81602 3.5619 6.76296 3.65174 6.76296H4.28612C4.37595 6.76296 4.44878 6.81602 4.44878 6.88148C4.44878 6.94694 4.37595 7 4.28612 7H3.65174C3.5619 7 3.48908 6.94694 3.48908 6.88148ZM4.75783 6.88148C4.75783 6.81602 4.83066 6.76296 4.92049 6.76296H5.55487C5.64471 6.76296 5.71753 6.81602 5.71753 6.88148C5.71753 6.94694 5.64471 7 5.55487 7H4.92049C4.83066 7 4.75783 6.94694 4.75783 6.88148ZM6.02659 6.88148C6.02659 6.81602 6.09941 6.76296 6.18925 6.76296H6.82363C6.91346 6.76296 6.98629 6.81602 6.98629 6.88148C6.98629 6.94694 6.91346 7 6.82363 7H6.18925C6.09941 7 6.02659 6.94694 6.02659 6.88148ZM7.29534 6.88148C7.29534 6.81602 7.36817 6.76296 7.458 6.76296H8.09238C8.18222 6.76296 8.25504 6.81602 8.25504 6.88148C8.25504 6.94694 8.18222 7 8.09238 7H7.458C7.36817 7 7.29534 6.94694 7.29534 6.88148ZM8.5641 6.88148C8.5641 6.81602 8.63693 6.76296 8.72676 6.76296H9.36114C9.45097 6.76296 9.5238 6.81602 9.5238 6.88148C9.5238 6.94694 9.45097 7 9.36114 7H8.72676C8.63693 7 8.5641 6.94694 8.5641 6.88148ZM9.83286 6.88148C9.83286 6.81602 9.90568 6.76296 9.99552 6.76296H10.6299C10.7197 6.76296 10.7926 6.81602 10.7926 6.88148C10.7926 6.94694 10.7197 7 10.6299 7H9.99552C9.90568 7 9.83286 6.94694 9.83286 6.88148ZM11.1016 6.88148C11.1016 6.81602 11.1744 6.76296 11.2643 6.76296H11.8987C11.9885 6.76296 12.0613 6.81602 12.0613 6.88148C12.0613 6.94694 11.9885 7 11.8987 7H11.2643C11.1744 7 11.1016 6.94694 11.1016 6.88148ZM12.3704 6.88148C12.3704 6.81602 12.4432 6.76296 12.533 6.76296H12.8502C12.9401 6.76296 13.0129 6.81602 13.0129 6.88148C13.0129 6.94694 12.9401 7 12.8502 7H12.533C12.4432 7 12.3704 6.94694 12.3704 6.88148Z" fill="#5C5C5C"/>
<path fill-rule="evenodd" clip-rule="evenodd" d="M21.1459 0.481277C21.1459 0.546735 21.2174 0.5998 21.3057 0.5998H21.6172C21.7054 0.5998 21.777 0.546735 21.777 0.481277C21.777 0.415819 21.7054 0.362755 21.6172 0.362755H21.3057C21.2174 0.362755 21.1459 0.415819 21.1459 0.481277ZM22.0805 0.481277C22.0805 0.546735 22.152 0.5998 22.2403 0.5998H22.8633C22.9515 0.5998 23.0231 0.546735 23.0231 0.481277C23.0231 0.415819 22.9515 0.362755 22.8633 0.362755H22.2403C22.152 0.362755 22.0805 0.415819 22.0805 0.481277ZM23.3266 0.481277C23.3266 0.546735 23.3981 0.5998 23.4864 0.5998H24.1094C24.1976 0.5998 24.2692 0.546735 24.2692 0.481277C24.2692 0.415819 24.1976 0.362755 24.1094 0.362755H23.4864C23.3981 0.362755 23.3266 0.415819 23.3266 0.481277ZM24.5727 0.481277C24.5727 0.546735 24.6442 0.5998 24.7325 0.5998H25.3555C25.4437 0.5998 25.5153 0.546735 25.5153 0.481277C25.5153 0.415819 25.4437 0.362755 25.3555 0.362755H24.7325C24.6442 0.362755 24.5727 0.415819 24.5727 0.481277ZM25.8188 0.481277C25.8188 0.546735 25.8903 0.5998 25.9786 0.5998H26.6016C26.6898 0.5998 26.7614 0.546735 26.7614 0.481277C26.7614 0.415819 26.6898 0.362755 26.6016 0.362755H25.9786C25.8903 0.362755 25.8188 0.415819 25.8188 0.481277ZM27.0649 0.481277C27.0649 0.546735 27.1364 0.5998 27.2247 0.5998H27.8477C27.9359 0.5998 28.0075 0.546735 28.0075 0.481277C28.0075 0.415819 27.9359 0.362755 27.8477 0.362755H27.2247C27.1364 0.362755 27.0649 0.415819 27.0649 0.481277ZM28.311 0.481277C28.311 0.546735 28.3825 0.5998 28.4708 0.5998H29.0938C29.182 0.5998 29.2536 0.546735 29.2536 0.481277C29.2536 0.415819 29.182 0.362755 29.0938 0.362755H28.4708C28.3825 0.362755 28.311 0.415819 28.311 0.481277ZM29.5571 0.481277C29.5571 0.546735 29.6286 0.5998 29.7169 0.5998H30.3399C30.4281 0.5998 30.4997 0.546735 30.4997 0.481277C30.4997 0.415819 30.4281 0.362755 30.3399 0.362755H29.7169C29.6286 0.362755 29.5571 0.415819 29.5571 0.481277ZM30.8032 0.481277C30.8032 0.546735 30.8747 0.5998 30.9629 0.5998H31.586C31.6742 0.5998 31.7458 0.546735 31.7458 0.481277C31.7458 0.415819 31.6742 0.362755 31.586 0.362755H30.9629C30.8747 0.362755 30.8032 0.415819 30.8032 0.481277ZM32.0493 0.481277C32.0493 0.546735 32.1208 0.5998 32.209 0.5998H32.8321C32.9203 0.5998 32.9919 0.546735 32.9919 0.481277C32.9919 0.415819 32.9203 0.362755 32.8321 0.362755H32.209C32.1208 0.362755 32.0493 0.415819 32.0493 0.481277ZM33.2954 0.481277C33.2954 0.546735 33.3669 0.5998 33.4552 0.5998H33.7667C33.8549 0.5998 33.9264 0.546735 33.9264 0.481277C33.9264 0.415819 33.8549 0.362755 33.7667 0.362755H33.4552C33.3669 0.362755 33.2954 0.415819 33.2954 0.481277Z" fill="#5C5C5C"/>
<path d="M20.9136 0.659061H24.5187L27.3072 7H27.6892L24.7443 0.303494H20.9136V0.659061Z" fill="#999999"/>
<path d="M27.6892 7L30.3213 12.9854H33.5057L33.1061 12.5777L33.3525 12.3263L34.1729 13.1632L33.3525 14L33.1061 13.7486L33.5057 13.3409H30.0956L27.3072 7H27.6892Z" fill="#5C5C5C"/>
<path fill-rule="evenodd" clip-rule="evenodd" d="M20.9136 7.11852C20.9136 7.18398 20.9864 7.23704 21.0762 7.23704H21.3934C21.4832 7.23704 21.5561 7.18398 21.5561 7.11852C21.5561 7.05306 21.4832 7 21.3934 7H21.0762C20.9864 7 20.9136 7.05306 20.9136 7.11852ZM21.8651 7.11852C21.8651 7.18398 21.9379 7.23704 22.0278 7.23704H22.6622C22.752 7.23704 22.8248 7.18398 22.8248 7.11852C22.8248 7.05306 22.752 7 22.6622 7H22.0278C21.9379 7 21.8651 7.05306 21.8651 7.11852ZM23.1339 7.11852C23.1339 7.18398 23.2067 7.23704 23.2965 7.23704H23.9309C24.0207 7.23704 24.0936 7.18398 24.0936 7.11852C24.0936 7.05306 24.0207 7 23.9309 7H23.2965C23.2067 7 23.1339 7.05306 23.1339 7.11852ZM24.4026 7.11852C24.4026 7.18398 24.4755 7.23704 24.5653 7.23704H25.1997C25.2895 7.23704 25.3623 7.18398 25.3623 7.11852C25.3623 7.05306 25.2895 7 25.1997 7H24.5653C24.4755 7 24.4026 7.05306 24.4026 7.11852ZM25.6714 7.11852C25.6714 7.18398 25.7442 7.23704 25.834 7.23704H26.4684C26.5583 7.23704 26.6311 7.18398 26.6311 7.11852C26.6311 7.05306 26.5583 7 26.4684 7H25.834C25.7442 7 25.6714 7.05306 25.6714 7.11852ZM26.9401 7.11852C26.9401 7.18398 27.013 7.23704 27.1028 7.23704H27.7372C27.827 7.23704 27.8998 7.18398 27.8998 7.11852C27.8998 7.05306 27.827 7 27.7372 7H27.1028C27.013 7 26.9401 7.05306 26.9401 7.11852ZM28.2089 7.11852C28.2089 7.18398 28.2817 7.23704 28.3716 7.23704H29.0059C29.0958 7.23704 29.1686 7.18398 29.1686 7.11852C29.1686 7.05306 29.0958 7 29.0059 7H28.3716C28.2817 7 28.2089 7.05306 28.2089 7.11852ZM29.4776 7.11852C29.4776 7.18398 29.5505 7.23704 29.6403 7.23704H30.2747C30.3645 7.23704 30.4374 7.18398 30.4374 7.11852C30.4374 7.05306 30.3645 7 30.2747 7H29.6403C29.5505 7 29.4776 7.05306 29.4776 7.11852ZM30.7464 7.11852C30.7464 7.18398 30.8192 7.23704 30.9091 7.23704H31.5434C31.6333 7.23704 31.7061 7.18398 31.7061 7.11852C31.7061 7.05306 31.6333 7 31.5434 7H30.9091C30.8192 7 30.7464 7.05306 30.7464 7.11852ZM32.0152 7.11852C32.0152 7.18398 32.088 7.23704 32.1778 7.23704H32.8122C32.902 7.23704 32.9749 7.18398 32.9749 7.11852C32.9749 7.05306 32.902 7 32.8122 7H32.1778C32.088 7 32.0152 7.05306 32.0152 7.11852ZM33.2839 7.11852C33.2839 7.18398 33.3567 7.23704 33.4466 7.23704H33.7638C33.8536 7.23704 33.9264 7.18398 33.9264 7.11852C33.9264 7.05306 33.8536 7 33.7638 7H33.4466C33.3567 7 33.2839 7.05306 33.2839 7.11852Z" fill="#5C5C5C"/>
<path fill-rule="evenodd" clip-rule="evenodd" d="M41.8271 7C41.8271 6.93454 41.8999 6.88148 41.9898 6.88148H42.307C42.3968 6.88148 42.4696 6.93454 42.4696 7C42.4696 7.06546 42.3968 7.11852 42.307 7.11852H41.9898C41.8999 7.11852 41.8271 7.06546 41.8271 7ZM42.7787 7C42.7787 6.93454 42.8515 6.88148 42.9413 6.88148H43.5757C43.6655 6.88148 43.7384 6.93454 43.7384 7C43.7384 7.06546 43.6655 7.11852 43.5757 7.11852H42.9413C42.8515 7.11852 42.7787 7.06546 42.7787 7ZM44.0474 7C44.0474 6.93454 44.1203 6.88148 44.2101 6.88148H44.8445C44.9343 6.88148 45.0071 6.93454 45.0071 7C45.0071 7.06546 44.9343 7.11852 44.8445 7.11852H44.2101C44.1203 7.11852 44.0474 7.06546 44.0474 7ZM45.3162 7C45.3162 6.93454 45.389 6.88148 45.4788 6.88148H46.1132C46.2031 6.88148 46.2759 6.93454 46.2759 7C46.2759 7.06546 46.2031 7.11852 46.1132 7.11852H45.4788C45.389 7.11852 45.3162 7.06546 45.3162 7ZM46.5849 7C46.5849 6.93454 46.6578 6.88148 46.7476 6.88148H47.382C47.4718 6.88148 47.5446 6.93454 47.5446 7C47.5446 7.06546 47.4718 7.11852 47.382 7.11852H46.7476C46.6578 7.11852 46.5849 7.06546 46.5849 7ZM47.8537 7C47.8537 6.93454 47.9265 6.88148 48.0163 6.88148H48.6507C48.7406 6.88148 48.8134 6.93454 48.8134 7C48.8134 7.06546 48.7406 7.11852 48.6507 7.11852H48.0163C47.9265 7.11852 47.8537 7.06546 47.8537 7ZM49.1224 7C49.1224 6.93454 49.1953 6.88148 49.2851 6.88148H49.9195C50.0093 6.88148 50.0821 6.93454 50.0821 7C50.0821 7.06546 50.0093 7.11852 49.9195 7.11852H49.2851C49.1953 7.11852 49.1224 7.06546 49.1224 7ZM50.3912 7C50.3912 6.93454 50.464 6.88148 50.5539 6.88148H51.1882C51.2781 6.88148 51.3509 6.93454 51.3509 7C51.3509 7.06546 51.2781 7.11852 51.1882 7.11852H50.5539C50.464 7.11852 50.3912 7.06546 50.3912 7ZM51.66 7C51.66 6.93454 51.7328 6.88148 51.8226 6.88148H52.457C52.5468 6.88148 52.6197 6.93454 52.6197 7C52.6197 7.06546 52.5468 7.11852 52.457 7.11852H51.8226C51.7328 7.11852 51.66 7.06546 51.66 7ZM52.9287 7C52.9287 6.93454 53.0015 6.88148 53.0914 6.88148H53.7258C53.8156 6.88148 53.8884 6.93454 53.8884 7C53.8884 7.06546 53.8156 7.11852 53.7258 7.11852H53.0914C53.0015 7.11852 52.9287 7.06546 52.9287 7ZM54.1975 7C54.1975 6.93454 54.2703 6.88148 54.3601 6.88148H54.6773C54.7672 6.88148 54.84 6.93454 54.84 7C54.84 7.06546 54.7672 7.11852 54.6773 7.11852H54.3601C54.2703 7.11852 54.1975 7.06546 54.1975 7Z" fill="#5C5C5C"/>
<path d="M46.6774 10.7927L41.5294 7L46.6774 3.20729H47.2727L42.1248 7L47.2727 10.7927H46.6774Z" fill="#999999"/>
<path d="M47.2727 3.20729L50.2489 1.01463H54.4192L54.0196 1.42227L54.2661 1.67369L55.0864 0.836845L54.2661 3.17901e-08L54.0196 0.251424L54.4192 0.659062H50.1362L46.6774 3.20729H47.2727Z" fill="#5C5C5C"/>
<path d="M47.2727 10.7927L50.2489 12.9854H54.4192L54.0196 12.5777L54.2661 12.3263L55.0864 13.1632L54.2661 14L54.0196 13.7486L54.4192 13.3409H50.1362L46.6774 10.7927H47.2727Z" fill="#5C5C5C"/>
<path fill-rule="evenodd" clip-rule="evenodd" d="M41.8271 3.32581C41.8271 3.26035 41.8999 3.20729 41.9898 3.20729H42.307C42.3968 3.20729 42.4696 3.26035 42.4696 3.32581C42.4696 3.39127 42.3968 3.44433 42.307 3.44433H41.9898C41.8999 3.44433 41.8271 3.39127 41.8271 3.32581ZM42.7787 3.32581C42.7787 3.26035 42.8515 3.20729 42.9413 3.20729H43.5757C43.6655 3.20729 43.7384 3.26035 43.7384 3.32581C43.7384 3.39127 43.6655 3.44433 43.5757 3.44433H42.9413C42.8515 3.44433 42.7787 3.39127 42.7787 3.32581ZM44.0474 3.32581C44.0474 3.26035 44.1203 3.20729 44.2101 3.20729H44.8445C44.9343 3.20729 45.0071 3.26035 45.0071 3.32581C45.0071 3.39127 44.9343 3.44433 44.8445 3.44433H44.2101C44.1203 3.44433 44.0474 3.39127 44.0474 3.32581ZM45.3162 3.32581C45.3162 3.26035 45.389 3.20729 45.4788 3.20729H46.1132C46.2031 3.20729 46.2759 3.26035 46.2759 3.32581C46.2759 3.39127 46.2031 3.44433 46.1132 3.44433H45.4788C45.389 3.44433 45.3162 3.39127 45.3162 3.32581ZM46.5849 3.32581C46.5849 3.26035 46.6578 3.20729 46.7476 3.20729H47.382C47.4718 3.20729 47.5446 3.26035 47.5446 3.32581C47.5446 3.39127 47.4718 3.44433 47.382 3.44433H46.7476C46.6578 3.44433 46.5849 3.39127 46.5849 3.32581ZM47.8537 3.32581C47.8537 3.26035 47.9265 3.20729 48.0163 3.20729H48.6507C48.7406 3.20729 48.8134 3.26035 48.8134 3.32581C48.8134 3.39127 48.7406 3.44433 48.6507 3.44433H48.0163C47.9265 3.44433 47.8537 3.39127 47.8537 3.32581ZM49.1224 3.32581C49.1224 3.26035 49.1953 3.20729 49.2851 3.20729H49.9195C50.0093 3.20729 50.0821 3.26035 50.0821 3.32581C50.0821 3.39127 50.0093 3.44433 49.9195 3.44433H49.2851C49.1953 3.44433 49.1224 3.39127 49.1224 3.32581ZM50.3912 3.32581C50.3912 3.26035 50.464 3.20729 50.5539 3.20729H51.1882C51.2781 3.20729 51.3509 3.26035 51.3509 3.32581C51.3509 3.39127 51.2781 3.44433 51.1882 3.44433H50.5539C50.464 3.44433 50.3912 3.39127 50.3912 3.32581ZM51.66 3.32581C51.66 3.26035 51.7328 3.20729 51.8226 3.20729H52.457C52.5468 3.20729 52.6197 3.26035 52.6197 3.32581C52.6197 3.39127 52.5468 3.44433 52.457 3.44433H51.8226C51.7328 3.44433 51.66 3.39127 51.66 3.32581ZM52.9287 3.32581C52.9287 3.26035 53.0015 3.20729 53.0914 3.20729H53.7258C53.8156 3.20729 53.8884 3.26035 53.8884 3.32581C53.8884 3.39127 53.8156 3.44433 53.7258 3.44433H53.0914C53.0015 3.44433 52.9287 3.39127 52.9287 3.32581ZM54.1975 3.32581C54.1975 3.26035 54.2703 3.20729 54.3601 3.20729H54.6773C54.7672 3.20729 54.84 3.26035 54.84 3.32581C54.84 3.39127 54.7672 3.44433 54.6773 3.44433H54.3601C54.2703 3.44433 54.1975 3.39127 54.1975 3.32581Z" fill="#5C5C5C"/>
<path fill-rule="evenodd" clip-rule="evenodd" d="M41.8271 10.6742C41.8271 10.7396 41.8999 10.7927 41.9898 10.7927H42.307C42.3968 10.7927 42.4696 10.7396 42.4696 10.6742C42.4696 10.6087 42.3968 10.5557 42.307 10.5557H41.9898C41.8999 10.5557 41.8271 10.6087 41.8271 10.6742ZM42.7787 10.6742C42.7787 10.7396 42.8515 10.7927 42.9413 10.7927H43.5757C43.6655 10.7927 43.7384 10.7396 43.7384 10.6742C43.7384 10.6087 43.6655 10.5557 43.5757 10.5557H42.9413C42.8515 10.5557 42.7787 10.6087 42.7787 10.6742ZM44.0474 10.6742C44.0474 10.7396 44.1203 10.7927 44.2101 10.7927H44.8445C44.9343 10.7927 45.0071 10.7396 45.0071 10.6742C45.0071 10.6087 44.9343 10.5557 44.8445 10.5557H44.2101C44.1203 10.5557 44.0474 10.6087 44.0474 10.6742ZM45.3162 10.6742C45.3162 10.7396 45.389 10.7927 45.4788 10.7927H46.1132C46.2031 10.7927 46.2759 10.7396 46.2759 10.6742C46.2759 10.6087 46.2031 10.5557 46.1132 10.5557H45.4788C45.389 10.5557 45.3162 10.6087 45.3162 10.6742ZM46.5849 10.6742C46.5849 10.7396 46.6578 10.7927 46.7476 10.7927H47.382C47.4718 10.7927 47.5446 10.7396 47.5446 10.6742C47.5446 10.6087 47.4718 10.5557 47.382 10.5557H46.7476C46.6578 10.5557 46.5849 10.6087 46.5849 10.6742ZM47.8537 10.6742C47.8537 10.7396 47.9265 10.7927 48.0163 10.7927H48.6507C48.7406 10.7927 48.8134 10.7396 48.8134 10.6742C48.8134 10.6087 48.7406 10.5557 48.6507 10.5557H48.0163C47.9265 10.5557 47.8537 10.6087 47.8537 10.6742ZM49.1224 10.6742C49.1224 10.7396 49.1953 10.7927 49.2851 10.7927H49.9195C50.0093 10.7927 50.0821 10.7396 50.0821 10.6742C50.0821 10.6087 50.0093 10.5557 49.9195 10.5557H49.2851C49.1953 10.5557 49.1224 10.6087 49.1224 10.6742ZM50.3912 10.6742C50.3912 10.7396 50.464 10.7927 50.5539 10.7927H51.1882C51.2781 10.7927 51.3509 10.7396 51.3509 10.6742C51.3509 10.6087 51.2781 10.5557 51.1882 10.5557H50.5539C50.464 10.5557 50.3912 10.6087 50.3912 10.6742ZM51.66 10.6742C51.66 10.7396 51.7328 10.7927 51.8226 10.7927H52.457C52.5468 10.7927 52.6197 10.7396 52.6197 10.6742C52.6197 10.6087 52.5468 10.5557 52.457 10.5557H51.8226C51.7328 10.5557 51.66 10.6087 51.66 10.6742ZM52.9287 10.6742C52.9287 10.7396 53.0015 10.7927 53.0914 10.7927H53.7258C53.8156 10.7927 53.8884 10.7396 53.8884 10.6742C53.8884 10.6087 53.8156 10.5557 53.7258 10.5557H53.0914C53.0015 10.5557 52.9287 10.6087 52.9287 10.6742ZM54.1975 10.6742C54.1975 10.7396 54.2703 10.7927 54.3601 10.7927H54.6773C54.7672 10.7927 54.84 10.7396 54.84 10.6742C54.84 10.6087 54.7672 10.5557 54.6773 10.5557H54.3601C54.2703 10.5557 54.1975 10.6087 54.1975 10.6742Z" fill="#5C5C5C"/>
<path fill-rule="evenodd" clip-rule="evenodd" d="M62.7407 5.57773C62.7407 5.51228 62.8135 5.45921 62.9033 5.45921H63.2205C63.3103 5.45921 63.3832 5.51228 63.3832 5.57773C63.3832 5.64319 63.3103 5.69626 63.2205 5.69626H62.9033C62.8135 5.69626 62.7407 5.64319 62.7407 5.57773ZM63.6922 5.57773C63.6922 5.51228 63.765 5.45921 63.8549 5.45921H64.4893C64.5791 5.45921 64.6519 5.51228 64.6519 5.57773C64.6519 5.64319 64.5791 5.69626 64.4893 5.69626H63.8549C63.765 5.69626 63.6922 5.64319 63.6922 5.57773ZM64.961 5.57773C64.961 5.51228 65.0338 5.45921 65.1236 5.45921H65.758C65.8478 5.45921 65.9207 5.51228 65.9207 5.57773C65.9207 5.64319 65.8478 5.69626 65.758 5.69626H65.1236C65.0338 5.69626 64.961 5.64319 64.961 5.57773ZM66.2297 5.57773C66.2297 5.51228 66.3026 5.45921 66.3924 5.45921H67.0268C67.1166 5.45921 67.1894 5.51228 67.1894 5.57773C67.1894 5.64319 67.1166 5.69626 67.0268 5.69626H66.3924C66.3026 5.69626 66.2297 5.64319 66.2297 5.57773ZM67.4985 5.57773C67.4985 5.51228 67.5713 5.45921 67.6611 5.45921H68.2955C68.3854 5.45921 68.4582 5.51228 68.4582 5.57773C68.4582 5.64319 68.3854 5.69626 68.2955 5.69626H67.6611C67.5713 5.69626 67.4985 5.64319 67.4985 5.57773ZM68.7672 5.57773C68.7672 5.51228 68.8401 5.45921 68.9299 5.45921H69.5643C69.6541 5.45921 69.7269 5.51228 69.7269 5.57773C69.7269 5.64319 69.6541 5.69626 69.5643 5.69626H68.9299C68.8401 5.69626 68.7672 5.64319 68.7672 5.57773ZM70.036 5.57773C70.036 5.51228 70.1088 5.45921 70.1987 5.45921H70.833C70.9229 5.45921 70.9957 5.51228 70.9957 5.57773C70.9957 5.64319 70.9229 5.69626 70.833 5.69626H70.1987C70.1088 5.69626 70.036 5.64319 70.036 5.57773ZM71.3048 5.57773C71.3048 5.51228 71.3776 5.45921 71.4674 5.45921H72.1018C72.1916 5.45921 72.2645 5.51228 72.2645 5.57773C72.2645 5.64319 72.1916 5.69626 72.1018 5.69626H71.4674C71.3776 5.69626 71.3048 5.64319 71.3048 5.57773ZM72.5735 5.57773C72.5735 5.51228 72.6463 5.45921 72.7362 5.45921H73.3705C73.4604 5.45921 73.5332 5.51228 73.5332 5.57773C73.5332 5.64319 73.4604 5.69626 73.3705 5.69626H72.7362C72.6463 5.69626 72.5735 5.64319 72.5735 5.57773ZM73.8423 5.57773C73.8423 5.51228 73.9151 5.45921 74.0049 5.45921H74.6393C74.7291 5.45921 74.802 5.51228 74.802 5.57773C74.802 5.64319 74.7291 5.69626 74.6393 5.69626H74.0049C73.9151 5.69626 73.8423 5.64319 73.8423 5.57773ZM75.111 5.57773C75.111 5.51228 75.1838 5.45921 75.2737 5.45921H75.5909C75.6807 5.45921 75.7535 5.51228 75.7535 5.57773C75.7535 5.64319 75.6807 5.69626 75.5909 5.69626H75.2737C75.1838 5.69626 75.111 5.64319 75.111 5.57773Z" fill="#5C5C5C"/>
<path fill-rule="evenodd" clip-rule="evenodd" d="M62.7407 8.42227C62.7407 8.35681 62.8135 8.30374 62.9033 8.30374H63.2205C63.3103 8.30374 63.3832 8.35681 63.3832 8.42227C63.3832 8.48772 63.3103 8.54079 63.2205 8.54079H62.9033C62.8135 8.54079 62.7407 8.48772 62.7407 8.42227ZM63.6922 8.42227C63.6922 8.35681 63.765 8.30374 63.8549 8.30374H64.4893C64.5791 8.30374 64.6519 8.35681 64.6519 8.42227C64.6519 8.48772 64.5791 8.54079 64.4893 8.54079H63.8549C63.765 8.54079 63.6922 8.48772 63.6922 8.42227ZM64.961 8.42227C64.961 8.35681 65.0338 8.30374 65.1236 8.30374H65.758C65.8478 8.30374 65.9207 8.35681 65.9207 8.42227C65.9207 8.48772 65.8478 8.54079 65.758 8.54079H65.1236C65.0338 8.54079 64.961 8.48772 64.961 8.42227ZM66.2297 8.42227C66.2297 8.35681 66.3026 8.30374 66.3924 8.30374H67.0268C67.1166 8.30374 67.1894 8.35681 67.1894 8.42227C67.1894 8.48772 67.1166 8.54079 67.0268 8.54079H66.3924C66.3026 8.54079 66.2297 8.48772 66.2297 8.42227ZM67.4985 8.42227C67.4985 8.35681 67.5713 8.30374 67.6611 8.30374H68.2955C68.3854 8.30374 68.4582 8.35681 68.4582 8.42227C68.4582 8.48772 68.3854 8.54079 68.2955 8.54079H67.6611C67.5713 8.54079 67.4985 8.48772 67.4985 8.42227ZM68.7672 8.42227C68.7672 8.35681 68.8401 8.30374 68.9299 8.30374H69.5643C69.6541 8.30374 69.7269 8.35681 69.7269 8.42227C69.7269 8.48772 69.6541 8.54079 69.5643 8.54079H68.9299C68.8401 8.54079 68.7672 8.48772 68.7672 8.42227ZM70.036 8.42227C70.036 8.35681 70.1088 8.30374 70.1987 8.30374H70.833C70.9229 8.30374 70.9957 8.35681 70.9957 8.42227C70.9957 8.48772 70.9229 8.54079 70.833 8.54079H70.1987C70.1088 8.54079 70.036 8.48772 70.036 8.42227ZM71.3048 8.42227C71.3048 8.35681 71.3776 8.30374 71.4674 8.30374H72.1018C72.1916 8.30374 72.2645 8.35681 72.2645 8.42227C72.2645 8.48772 72.1916 8.54079 72.1018 8.54079H71.4674C71.3776 8.54079 71.3048 8.48772 71.3048 8.42227ZM72.5735 8.42227C72.5735 8.35681 72.6463 8.30374 72.7362 8.30374H73.3705C73.4604 8.30374 73.5332 8.35681 73.5332 8.42227C73.5332 8.48772 73.4604 8.54079 73.3705 8.54079H72.7362C72.6463 8.54079 72.5735 8.48772 72.5735 8.42227ZM73.8423 8.42227C73.8423 8.35681 73.9151 8.30374 74.0049 8.30374H74.6393C74.7291 8.30374 74.802 8.35681 74.802 8.42227C74.802 8.48772 74.7291 8.54079 74.6393 8.54079H74.0049C73.9151 8.54079 73.8423 8.48772 73.8423 8.42227ZM75.111 8.42227C75.111 8.35681 75.1838 8.30374 75.2737 8.30374H75.5909C75.6807 8.30374 75.7535 8.35681 75.7535 8.42227C75.7535 8.48772 75.6807 8.54079 75.5909 8.54079H75.2737C75.1838 8.54079 75.111 8.48772 75.111 8.42227Z" fill="#5C5C5C"/>
<path d="M68.8574 11.7409L62.5664 8.53214V5.46786L68.8574 2.25911H69.6368L62.9149 5.68761V8.31239L69.6368 11.7409H68.8574Z" fill="#999999"/>
<path d="M69.6368 2.25911L72.0767 1.01463H75.3328L74.9332 1.42227L75.1796 1.67369L76 0.836845L75.1796 0L74.9332 0.251423L75.3328 0.659062H71.9944L68.8574 2.25911H69.6368Z" fill="#5C5C5C"/>
<path d="M69.6368 11.7409L72.0767 12.9854H75.3328L74.9332 12.5777L75.1796 12.3263L76 13.1632L75.1796 14L74.9332 13.7486L75.3328 13.3409H71.9944L68.8574 11.7409H69.6368Z" fill="#5C5C5C"/>
<path fill-rule="evenodd" clip-rule="evenodd" d="M62.7407 2.37763C62.7407 2.31218 62.8135 2.25911 62.9033 2.25911H63.2205C63.3103 2.25911 63.3832 2.31218 63.3832 2.37763C63.3832 2.44309 63.3103 2.49616 63.2205 2.49616H62.9033C62.8135 2.49616 62.7407 2.44309 62.7407 2.37763ZM63.6922 2.37763C63.6922 2.31218 63.765 2.25911 63.8549 2.25911H64.4893C64.5791 2.25911 64.6519 2.31218 64.6519 2.37763C64.6519 2.44309 64.5791 2.49616 64.4893 2.49616H63.8549C63.765 2.49616 63.6922 2.44309 63.6922 2.37763ZM64.961 2.37763C64.961 2.31218 65.0338 2.25911 65.1236 2.25911H65.758C65.8478 2.25911 65.9207 2.31218 65.9207 2.37763C65.9207 2.44309 65.8478 2.49616 65.758 2.49616H65.1236C65.0338 2.49616 64.961 2.44309 64.961 2.37763ZM66.2297 2.37763C66.2297 2.31218 66.3026 2.25911 66.3924 2.25911H67.0268C67.1166 2.25911 67.1894 2.31218 67.1894 2.37763C67.1894 2.44309 67.1166 2.49616 67.0268 2.49616H66.3924C66.3026 2.49616 66.2297 2.44309 66.2297 2.37763ZM67.4985 2.37763C67.4985 2.31218 67.5713 2.25911 67.6611 2.25911H68.2955C68.3854 2.25911 68.4582 2.31218 68.4582 2.37763C68.4582 2.44309 68.3854 2.49616 68.2955 2.49616H67.6611C67.5713 2.49616 67.4985 2.44309 67.4985 2.37763ZM68.7672 2.37763C68.7672 2.31218 68.8401 2.25911 68.9299 2.25911H69.5643C69.6541 2.25911 69.7269 2.31218 69.7269 2.37763C69.7269 2.44309 69.6541 2.49616 69.5643 2.49616H68.9299C68.8401 2.49616 68.7672 2.44309 68.7672 2.37763ZM70.036 2.37763C70.036 2.31218 70.1088 2.25911 70.1987 2.25911H70.833C70.9229 2.25911 70.9957 2.31218 70.9957 2.37763C70.9957 2.44309 70.9229 2.49616 70.833 2.49616H70.1987C70.1088 2.49616 70.036 2.44309 70.036 2.37763ZM71.3048 2.37763C71.3048 2.31218 71.3776 2.25911 71.4674 2.25911H72.1018C72.1916 2.25911 72.2645 2.31218 72.2645 2.37763C72.2645 2.44309 72.1916 2.49616 72.1018 2.49616H71.4674C71.3776 2.49616 71.3048 2.44309 71.3048 2.37763ZM72.5735 2.37763C72.5735 2.31218 72.6463 2.25911 72.7362 2.25911H73.3705C73.4604 2.25911 73.5332 2.31218 73.5332 2.37763C73.5332 2.44309 73.4604 2.49616 73.3705 2.49616H72.7362C72.6463 2.49616 72.5735 2.44309 72.5735 2.37763ZM73.8423 2.37763C73.8423 2.31218 73.9151 2.25911 74.0049 2.25911H74.6393C74.7291 2.25911 74.802 2.31218 74.802 2.37763C74.802 2.44309 74.7291 2.49616 74.6393 2.49616H74.0049C73.9151 2.49616 73.8423 2.44309 73.8423 2.37763ZM75.111 2.37763C75.111 2.31218 75.1838 2.25911 75.2737 2.25911H75.5909C75.6807 2.25911 75.7535 2.31218 75.7535 2.37763C75.7535 2.44309 75.6807 2.49616 75.5909 2.49616H75.2737C75.1838 2.49616 75.111 2.44309 75.111 2.37763Z" fill="#5C5C5C"/>
<path fill-rule="evenodd" clip-rule="evenodd" d="M62.7407 11.6224C62.7407 11.6878 62.8135 11.7409 62.9033 11.7409H63.2205C63.3103 11.7409 63.3832 11.6878 63.3832 11.6224C63.3832 11.5569 63.3103 11.5038 63.2205 11.5038H62.9033C62.8135 11.5038 62.7407 11.5569 62.7407 11.6224ZM63.6922 11.6224C63.6922 11.6878 63.765 11.7409 63.8549 11.7409H64.4893C64.5791 11.7409 64.6519 11.6878 64.6519 11.6224C64.6519 11.5569 64.5791 11.5038 64.4893 11.5038H63.8549C63.765 11.5038 63.6922 11.5569 63.6922 11.6224ZM64.961 11.6224C64.961 11.6878 65.0338 11.7409 65.1236 11.7409H65.758C65.8478 11.7409 65.9207 11.6878 65.9207 11.6224C65.9207 11.5569 65.8478 11.5038 65.758 11.5038H65.1236C65.0338 11.5038 64.961 11.5569 64.961 11.6224ZM66.2297 11.6224C66.2297 11.6878 66.3026 11.7409 66.3924 11.7409H67.0268C67.1166 11.7409 67.1894 11.6878 67.1894 11.6224C67.1894 11.5569 67.1166 11.5038 67.0268 11.5038H66.3924C66.3026 11.5038 66.2297 11.5569 66.2297 11.6224ZM67.4985 11.6224C67.4985 11.6878 67.5713 11.7409 67.6611 11.7409H68.2955C68.3854 11.7409 68.4582 11.6878 68.4582 11.6224C68.4582 11.5569 68.3854 11.5038 68.2955 11.5038H67.6611C67.5713 11.5038 67.4985 11.5569 67.4985 11.6224ZM68.7672 11.6224C68.7672 11.6878 68.8401 11.7409 68.9299 11.7409H69.5643C69.6541 11.7409 69.7269 11.6878 69.7269 11.6224C69.7269 11.5569 69.6541 11.5038 69.5643 11.5038H68.9299C68.8401 11.5038 68.7672 11.5569 68.7672 11.6224ZM70.036 11.6224C70.036 11.6878 70.1088 11.7409 70.1987 11.7409H70.833C70.9229 11.7409 70.9957 11.6878 70.9957 11.6224C70.9957 11.5569 70.9229 11.5038 70.833 11.5038H70.1987C70.1088 11.5038 70.036 11.5569 70.036 11.6224ZM71.3048 11.6224C71.3048 11.6878 71.3776 11.7409 71.4674 11.7409H72.1018C72.1916 11.7409 72.2645 11.6878 72.2645 11.6224C72.2645 11.5569 72.1916 11.5038 72.1018 11.5038H71.4674C71.3776 11.5038 71.3048 11.5569 71.3048 11.6224ZM72.5735 11.6224C72.5735 11.6878 72.6463 11.7409 72.7362 11.7409H73.3705C73.4604 11.7409 73.5332 11.6878 73.5332 11.6224C73.5332 11.5569 73.4604 11.5038 73.3705 11.5038H72.7362C72.6463 11.5038 72.5735 11.5569 72.5735 11.6224ZM73.8423 11.6224C73.8423 11.6878 73.9151 11.7409 74.0049 11.7409H74.6393C74.7291 11.7409 74.802 11.6878 74.802 11.6224C74.802 11.5569 74.7291 11.5038 74.6393 11.5038H74.0049C73.9151 11.5038 73.8423 11.5569 73.8423 11.6224ZM75.111 11.6224C75.111 11.6878 75.1838 11.7409 75.2737 11.7409H75.5909C75.6807 11.7409 75.7535 11.6878 75.7535 11.6224C75.7535 11.5569 75.6807 11.5038 75.5909 11.5038H75.2737C75.1838 11.5038 75.111 11.5569 75.111 11.6224Z" fill="#5C5C5C"/>
</svg>
