<svg width="20" height="20" viewBox="0 0 20 20" fill="none" xmlns="http://www.w3.org/2000/svg">
<rect width="20" height="20" rx="10" fill="#A78D25"/>
<path fill-rule="evenodd" clip-rule="evenodd" d="M5.0716 9.81549C5.38867 8.86428 6.11252 7.66663 7.66667 7.66663C9.14861 7.66663 9.89479 8.78851 10.4387 9.60622C10.4544 9.62987 10.47 9.65327 10.4854 9.67638C11.104 10.6044 11.5248 11.1666 12.3333 11.1666C13.1125 11.1666 13.5553 10.6143 13.8216 9.81549C13.9502 9.42968 14.0168 9.03563 14.0504 8.73242C14.0671 8.58229 14.0754 8.45795 14.0794 8.3726C14.0815 8.33001 14.0824 8.29735 14.0829 8.27631L14.0833 8.25373L14.0833 8.24962C14.0833 8.24978 14.0833 8.24996 14.6667 8.24996C15.25 8.24996 15.25 8.25016 15.25 8.25038L15.25 8.25213L15.25 8.25558L15.2499 8.26627C15.2498 8.27505 15.2496 8.28711 15.2493 8.30223C15.2486 8.33245 15.2473 8.37499 15.2448 8.4281C15.2397 8.53416 15.2298 8.68325 15.21 8.86125C15.1707 9.21429 15.0915 9.69523 14.9284 10.1844C14.6113 11.1356 13.8875 12.3333 12.3333 12.3333C10.8514 12.3333 10.1052 11.2114 9.56134 10.3937C9.54561 10.37 9.53004 10.3466 9.51464 10.3235C8.89599 9.39556 8.47519 8.83329 7.66667 8.83329C6.88748 8.83329 6.44466 9.38564 6.1784 10.1844C6.0498 10.5702 5.98325 10.9643 5.94956 11.2675C5.93288 11.4176 5.92463 11.542 5.92056 11.6273C5.91854 11.6699 5.91756 11.7026 5.91709 11.7236L5.9167 11.7462L5.91667 11.7503C5.91667 11.7501 5.91667 11.75 5.33333 11.75C4.75 11.75 4.75 11.7498 4.75 11.7495L4.75 11.7478L4.75002 11.7443L4.7501 11.7336C4.7502 11.7249 4.75038 11.7128 4.75071 11.6977C4.75139 11.6675 4.75269 11.6249 4.75522 11.5718C4.76027 11.4658 4.77025 11.3167 4.79003 11.1387C4.82925 10.7856 4.90854 10.3047 5.0716 9.81549Z" fill="#E9D99B"/>
</svg>
