<svg width="16" height="20" viewBox="0 0 16 20" fill="none" xmlns="http://www.w3.org/2000/svg">
<path d="M8.37892 8.08101H7.61859L7.01266 9.70069C6.99439 9.74952 6.94772 9.78189 6.89558 9.78189H4.12522C3.99992 9.78189 3.95255 9.94573 4.05852 10.0126L6.26806 11.4069C6.31815 11.4385 6.33918 11.5009 6.31843 11.5564L5.4676 13.8307C5.42565 13.9428 5.55013 14.0441 5.65138 13.9802L7.93204 12.5411C7.9728 12.5153 8.0247 12.5153 8.06546 12.5411L10.3461 13.9802C10.4474 14.0441 10.5719 13.9428 10.5299 13.8307L9.67907 11.5564C9.65832 11.5009 9.67935 11.4385 9.72944 11.4069L11.939 10.0126C12.045 9.94573 11.9976 9.78189 11.8723 9.78189H9.10192C9.04978 9.78189 9.00312 9.74952 8.98485 9.70069L8.37892 8.08101Z" fill="#BC8662"/>
<rect x="7.46074" y="6.5567" width="1.07596" height="1.0162" fill="#9D6743"/>
<path d="M4.5 2.5H11.5V4L8.49756 6H7.49756L4.5 4V2.5Z" fill="#AB7149"/>
</svg>
