<svg width="21" height="24" viewBox="0 0 21 24" fill="none" xmlns="http://www.w3.org/2000/svg">
<path d="M20.3257 13.4191C18.9899 18.7763 13.5634 22.0365 8.20501 20.7006C2.84882 19.365 -0.411841 13.9388 0.92455 8.58198C2.25969 3.22422 7.68621 -0.0363659 13.043 1.29925C18.4011 2.63486 21.6614 8.06168 20.3257 13.4191Z" fill="#DB8013"/>
<path d="M15.0345 9.57542C15.2336 8.24481 14.2203 7.5295 12.8349 7.05232L13.2843 5.24983L12.187 4.9764L11.7495 6.73138C11.461 6.65951 11.1647 6.5917 10.8703 6.52451L11.311 4.75796L10.2143 4.48453L9.76455 6.28638C9.52578 6.23201 9.29138 6.17826 9.06385 6.1217L9.0651 6.11608L7.55182 5.73826L7.25992 6.91013C7.25992 6.91013 8.07407 7.09669 8.05688 7.10825C8.5013 7.21919 8.58162 7.51324 8.56818 7.74637L8.05625 9.79979C8.08688 9.8076 8.12657 9.81885 8.17033 9.83635C8.13376 9.82729 8.09469 9.81729 8.05438 9.8076L7.3368 12.6841C7.28241 12.8191 7.14459 13.0216 6.83394 12.9448C6.84487 12.9607 6.03635 12.7457 6.03635 12.7457L5.4916 14.0016L6.91957 14.3576C7.18522 14.4241 7.44556 14.4938 7.70183 14.5594L7.24773 16.3825L8.34378 16.656L8.79352 14.8522C9.09292 14.9335 9.38358 15.0085 9.66798 15.0791L9.21982 16.8744L10.3171 17.1478L10.7712 15.3282C12.6424 15.6822 14.0494 15.5394 14.6416 13.8472C15.1189 12.4848 14.6179 11.6988 13.6334 11.1863C14.3504 11.021 14.8904 10.5495 15.0345 9.57542ZM12.5273 13.0907C12.1882 14.4532 9.89394 13.7166 9.15011 13.5319L9.75268 11.1166C10.4965 11.3023 12.8818 11.6698 12.5273 13.0907ZM12.8668 9.55573C12.5573 10.7951 10.6478 10.1654 10.0283 10.011L10.5746 7.82044C11.1941 7.97481 13.189 8.26293 12.8668 9.55573Z" fill="#F5F5F5"/>
</svg>
