<svg width="20" height="20" viewBox="0 0 20 20" fill="none" xmlns="http://www.w3.org/2000/svg">
<path d="M4.375 3.25V4.375H3.25C3.11193 4.375 3 4.48693 3 4.625V5.375C3 5.51307 3.11193 5.625 3.25 5.625H4.375V6.75C4.375 6.88807 4.48693 7 4.625 7H5.375C5.51307 7 5.625 6.88807 5.625 6.75V5.625H6.75C6.88807 5.625 7 5.51307 7 5.375V4.625C7 4.48693 6.88807 4.375 6.75 4.375H5.625V3.25C5.625 3.11193 5.51307 3 5.375 3H4.625C4.48693 3 4.375 3.11193 4.375 3.25Z" fill="url(#paint0_linear_12_1015)"/>
<path d="M14.375 3.25C14.375 3.11193 14.4869 3 14.625 3H15.375C15.5131 3 15.625 3.11193 15.625 3.25V4.375H16.75C16.8881 4.375 17 4.48693 17 4.625V5.375C17 5.51307 16.8881 5.625 16.75 5.625H15.625V6.75C15.625 6.88807 15.5131 7 15.375 7H14.625C14.4869 7 14.375 6.88807 14.375 6.75V5.625H13.25C13.1119 5.625 13 5.51307 13 5.375V4.625C13 4.48693 13.1119 4.375 13.25 4.375H14.375V3.25Z" fill="url(#paint1_linear_12_1015)"/>
<path d="M14.625 13C14.4869 13 14.375 13.1119 14.375 13.25V14.375H13.25C13.1119 14.375 13 14.4869 13 14.625V15.375C13 15.5131 13.1119 15.625 13.25 15.625H14.375V16.75C14.375 16.8881 14.4869 17 14.625 17H15.375C15.5131 17 15.625 16.8881 15.625 16.75V15.625H16.75C16.8881 15.625 17 15.5131 17 15.375V14.625C17 14.4869 16.8881 14.375 16.75 14.375H15.625V13.25C15.625 13.1119 15.5131 13 15.375 13H14.625Z" fill="url(#paint2_linear_12_1015)"/>
<path d="M4.375 13.25C4.375 13.1119 4.48693 13 4.625 13H5.375C5.51307 13 5.625 13.1119 5.625 13.25V14.375H6.75C6.88807 14.375 7 14.4869 7 14.625V15.375C7 15.5131 6.88807 15.625 6.75 15.625H5.625V16.75C5.625 16.8881 5.51307 17 5.375 17H4.625C4.48693 17 4.375 16.8881 4.375 16.75V15.625H3.25C3.11193 15.625 3 15.5131 3 15.375V14.625C3 14.4869 3.11193 14.375 3.25 14.375H4.375V13.25Z" fill="url(#paint3_linear_12_1015)"/>
<path d="M9 8.875C9 8.94404 8.94404 9 8.875 9H7C6.72386 9 6.5 9.22386 6.5 9.5V10.5C6.5 10.7761 6.72386 11 7 11H8.875C8.94404 11 9 11.056 9 11.125V13C9 13.2761 9.22386 13.5 9.5 13.5H10.5C10.7761 13.5 11 13.2761 11 13V11.125C11 11.056 11.056 11 11.125 11H13C13.2761 11 13.5 10.7761 13.5 10.5V9.5C13.5 9.22386 13.2761 9 13 9H11.125C11.056 9 11 8.94404 11 8.875V7C11 6.72386 10.7761 6.5 10.5 6.5H9.5C9.22386 6.5 9 6.72386 9 7V8.875Z" fill="url(#paint4_linear_12_1015)"/>
<defs>
<linearGradient id="paint0_linear_12_1015" x1="10" y1="3" x2="10" y2="17" gradientUnits="userSpaceOnUse">
<stop stop-color="#338464"/>
<stop offset="1" stop-color="#338449"/>
</linearGradient>
<linearGradient id="paint1_linear_12_1015" x1="10" y1="3" x2="10" y2="17" gradientUnits="userSpaceOnUse">
<stop stop-color="#338464"/>
<stop offset="1" stop-color="#338449"/>
</linearGradient>
<linearGradient id="paint2_linear_12_1015" x1="10" y1="3" x2="10" y2="17" gradientUnits="userSpaceOnUse">
<stop stop-color="#338464"/>
<stop offset="1" stop-color="#338449"/>
</linearGradient>
<linearGradient id="paint3_linear_12_1015" x1="10" y1="3" x2="10" y2="17" gradientUnits="userSpaceOnUse">
<stop stop-color="#338464"/>
<stop offset="1" stop-color="#338449"/>
</linearGradient>
<linearGradient id="paint4_linear_12_1015" x1="10" y1="3" x2="10" y2="17" gradientUnits="userSpaceOnUse">
<stop stop-color="#338464"/>
<stop offset="1" stop-color="#338449"/>
</linearGradient>
</defs>
</svg>
