<svg width="22" height="24" viewBox="0 0 22 24" fill="none" xmlns="http://www.w3.org/2000/svg">
<path d="M1 7.67162C1 7.31877 1.18596 6.99203 1.48934 6.81184L10.4893 1.46638C10.8041 1.27943 11.1959 1.27943 11.5107 1.46638L20.5107 6.81184C20.814 6.99203 21 7.31877 21 7.67162V12V16.3284C21 16.6812 20.814 17.008 20.5107 17.1882L11.5107 22.5336C11.1959 22.7206 10.8041 22.7206 10.4893 22.5336L1.48934 17.1882C1.18596 17.008 1 16.6812 1 16.3284V12V7.67162Z" fill="url(#paint0_linear_452_657)" stroke="url(#paint1_linear_452_657)" stroke-width="2"/>
<path d="M11.1586 17C10.7913 17 10.4935 16.7022 10.4935 16.3349V15.8721C9.76995 15.771 9.25604 15.6195 8.95177 15.4175C8.64156 15.2073 8.39692 14.9378 8.21783 14.6088C8.05802 14.3152 8.21556 13.9661 8.51318 13.814C8.8792 13.6269 9.30004 13.8192 9.56044 14.1373C9.56533 14.1432 9.57023 14.1491 9.57514 14.1549C9.73841 14.3494 9.93507 14.4897 10.1651 14.5758C10.3952 14.6581 10.6939 14.6992 11.0612 14.6992C11.6215 14.6992 12.0315 14.5926 12.2913 14.3793C12.5102 14.1998 12.6197 13.9566 12.6197 13.6498C12.6197 13.3056 12.4397 13.0456 12.0798 12.8698C11.8943 12.7763 11.4453 12.6154 10.7328 12.3872C10.0353 12.1665 9.50093 11.9027 9.12988 11.596C8.66234 11.2181 8.42858 10.728 8.42858 10.1257C8.42858 9.35877 8.77923 8.78451 9.48053 8.40292C9.74398 8.25701 10.0816 8.15413 10.4935 8.09428V7.66512C10.4935 7.29778 10.7913 7 11.1586 7C11.526 7 11.8238 7.29778 11.8238 7.66512V8.13356C12.3892 8.25726 12.8636 8.50659 13.2469 8.88157C13.499 9.1282 13.4058 9.5321 13.1052 9.71647C12.8121 9.89619 12.4399 9.78766 12.1728 9.57132C12.099 9.51161 12.0217 9.46072 11.9406 9.41863C11.6957 9.28769 11.3896 9.22222 11.0223 9.22222C10.6661 9.22222 10.3803 9.28956 10.1651 9.42424C9.91281 9.58137 9.78665 9.80022 9.78665 10.0808C9.78665 10.3838 9.92579 10.6195 10.2041 10.7879C10.3228 10.859 10.4341 10.9151 10.538 10.9562C10.6419 10.9936 10.9443 11.0947 11.4453 11.2593C12.2171 11.5099 12.7978 11.7643 13.1874 12.0224C13.7291 12.3816 14 12.9035 14 13.5881C14 13.9772 13.9184 14.3382 13.7551 14.6712C13.5918 15.0041 13.3692 15.2604 13.0872 15.44C12.8015 15.6233 12.3803 15.7598 11.8238 15.8496V16.3349C11.8238 16.7022 11.526 17 11.1586 17Z" fill="#8C7103"/>
<defs>
<linearGradient id="paint0_linear_452_657" x1="11" y1="0" x2="11" y2="24" gradientUnits="userSpaceOnUse">
<stop stop-color="#EBC66F"/>
<stop offset="1" stop-color="#E4B13A"/>
</linearGradient>
<linearGradient id="paint1_linear_452_657" x1="11" y1="0" x2="11" y2="24" gradientUnits="userSpaceOnUse">
<stop stop-color="#C59E1B"/>
<stop offset="1" stop-color="#907314"/>
</linearGradient>
</defs>
</svg>
