<svg width="18" height="16" viewBox="0 0 18 16" fill="none" xmlns="http://www.w3.org/2000/svg">
<path opacity="0.3" d="M14.625 12.5L16.875 9.5L12.375 9.5L14.625 12.5Z" fill="#3AA67B"/>
<path opacity="0.6" d="M14.625 8.5L16.875 5.5L12.375 5.5L14.625 8.5Z" fill="#3AA67B"/>
<path opacity="0.9" d="M14.625 4.5L16.875 1.5L12.375 1.5L14.625 4.5Z" fill="#3AA67B"/>
<path fill-rule="evenodd" clip-rule="evenodd" d="M10.125 11.5L10.125 1.5H8.01655C7.92873 1.5 7.8472 1.54598 7.79499 1.61659C7.56546 1.927 6.84213 2.75 5.625 2.75C4.40787 2.75 3.68454 1.92699 3.45502 1.61659C3.4028 1.54598 3.32127 1.5 3.23345 1.5H1.125V11.5H3.23345C3.32127 11.5 3.4028 11.454 3.45501 11.3834C3.68454 11.073 4.40787 10.25 5.625 10.25C6.84213 10.25 7.56546 11.073 7.79499 11.3834C7.8472 11.454 7.92873 11.5 8.01655 11.5H10.125ZM3.51562 5.75C4.21461 5.75 4.78125 5.24632 4.78125 4.625C4.78125 4.00368 4.21461 3.5 3.51562 3.5C2.81664 3.5 2.25 4.00368 2.25 4.625C2.25 5.24632 2.81664 5.75 3.51562 5.75ZM8.33247 5.15409C8.55622 4.9552 8.55622 4.60558 8.33247 4.40668L7.89182 4.015C7.70238 3.84661 7.4169 3.84661 7.22746 4.015L2.91756 7.84602C2.6938 8.04492 2.6938 8.39454 2.91756 8.59343L3.3582 8.98511C3.54764 9.15351 3.83312 9.15351 4.02256 8.98511L8.33247 5.15409ZM9 8.375C9 8.99632 8.43336 9.5 7.73438 9.5C7.03539 9.5 6.46875 8.99632 6.46875 8.375C6.46875 7.75368 7.03539 7.25 7.73438 7.25C8.43336 7.25 9 7.75368 9 8.375Z" fill="#3AA67B"/>
</svg>
