<svg width="20" height="20" viewBox="0 0 20 20" fill="none" xmlns="http://www.w3.org/2000/svg">
<rect width="20" height="20" rx="10" fill="#593FA2"/>
<path fill-rule="evenodd" clip-rule="evenodd" d="M14.4104 9.65859C13.9894 10.1455 13.2861 10.6601 12.235 10.6601C11.2888 10.6601 10.5047 10.3577 9.82361 10.0951C9.81321 10.0911 9.80283 10.0871 9.79248 10.0831C9.08392 9.80994 8.48056 9.58311 7.76496 9.58311C7.13977 9.58311 6.72554 9.87622 6.44809 10.1971C6.30764 10.3595 6.20771 10.5241 6.14319 10.6485C6.11125 10.7101 6.08885 10.7601 6.07515 10.7927C6.06832 10.809 6.06371 10.8208 6.06122 10.8273L6.05906 10.8331C6.0589 10.8335 6.05896 10.8334 6.05906 10.8331L6.05948 10.8319L6.05972 10.8312C6.0598 10.831 6.06001 10.8304 5.52993 10.6601C4.99984 10.4898 4.99992 10.4896 5 10.4893L5.00057 10.4877L5.00152 10.485L5.0041 10.4778C5.00612 10.4722 5.00875 10.4651 5.012 10.4566C5.01851 10.4395 5.02755 10.4165 5.03927 10.3886C5.06267 10.3329 5.09702 10.2567 5.14365 10.1668C5.23629 9.98831 5.38081 9.74906 5.58959 9.50762C6.01059 9.02075 6.71388 8.50612 7.76496 8.50612C8.71119 8.50612 9.49527 8.80848 10.1764 9.07113C10.1868 9.07514 10.1972 9.07914 10.2075 9.08313C10.9161 9.35627 11.5194 9.58311 12.235 9.58311C12.8602 9.58311 13.2745 9.28999 13.5519 8.96913C13.6924 8.8067 13.7923 8.64208 13.8568 8.51772C13.8888 8.45615 13.9111 8.40613 13.9249 8.3735C13.9317 8.35724 13.9363 8.34545 13.9388 8.33889L13.9409 8.33337L13.9405 8.33433L13.9403 8.33501C13.9402 8.33522 13.94 8.33584 14.4701 8.50612C15.0002 8.67641 15.0001 8.67664 15 8.67688L14.9994 8.67851L14.9985 8.68122L14.9959 8.68841C14.9939 8.69398 14.9913 8.70109 14.988 8.70965C14.9815 8.72675 14.9725 8.74967 14.9607 8.77758C14.9373 8.8333 14.903 8.90949 14.8563 8.99936C14.7637 9.17791 14.6192 9.41715 14.4104 9.65859Z" fill="#C3BDDB"/>
</svg>
