<svg width="28" height="28" viewBox="0 0 28 28" fill="none" xmlns="http://www.w3.org/2000/svg">
<path fill-rule="evenodd" clip-rule="evenodd" d="M13.9984 1.40002C7.04167 1.40002 1.40002 7.18424 1.40002 14.3184C1.40002 20.0251 5.00992 24.8679 10.0168 26.5764C10.6468 26.6943 10.8768 26.2954 10.8768 25.9531C10.8768 25.6463 10.8658 24.834 10.8595 23.7553C7.3551 24.5353 6.61485 22.0243 6.61485 22.0243C6.04155 20.5322 5.21625 20.1349 5.21625 20.1349C4.0728 19.334 5.30287 19.3502 5.30287 19.3502C6.5676 19.4422 7.23225 20.6807 7.23225 20.6807C8.3568 22.6556 10.1806 22.0856 10.8988 21.7546C11.0138 20.9197 11.3383 20.3497 11.6989 20.0284C8.90175 19.7022 5.95965 18.5944 5.95965 13.6434C5.95965 12.2337 6.45105 11.0808 7.25587 10.1765C7.1283 9.85028 6.69517 8.53583 7.38187 6.75793C7.38187 6.75793 8.44027 6.41075 10.8469 8.08207C11.8517 7.79625 12.929 7.65253 14 7.64769C15.0694 7.65253 16.1483 7.79625 17.1547 8.08207C19.5598 6.41075 20.6166 6.75793 20.6166 6.75793C21.3033 8.53583 20.8717 9.85028 20.7426 10.1765C21.5506 11.0791 22.0372 12.2321 22.0372 13.6434C22.0372 18.6057 19.092 19.6989 16.2838 20.0187C16.7358 20.4175 17.139 21.2056 17.139 22.4102C17.139 24.1364 17.1232 25.53 17.1232 25.9547C17.1232 26.3003 17.35 26.7023 17.9895 26.5764C22.9933 24.8631 26.6 20.0251 26.6 14.3184C26.6 7.18424 20.9584 1.40002 13.9984 1.40002Z" fill="#EBEBEB"/>
</svg>
