<svg width="28" height="28" viewBox="0 0 28 28" fill="none" xmlns="http://www.w3.org/2000/svg">
<path fill-rule="evenodd" clip-rule="evenodd" d="M3.85433 7.08426C3.88758 6.75911 3.76234 6.43837 3.5185 6.22014L1.03584 3.24423V2.80005H8.74762L14.7082 15.8004L19.9484 2.80005H27.3V3.24423L25.1764 5.26895C24.9936 5.40783 24.9027 5.63598 24.9404 5.86193V20.7393C24.9027 20.9641 24.9936 21.1923 25.1764 21.3311L27.2501 23.3559V23.8H16.8185V23.3559L18.9676 21.2815C19.1781 21.0721 19.1781 21.0104 19.1781 20.6897V8.66479L13.2053 23.7516H12.3985L5.44368 8.66479V18.7763C5.38605 19.2006 5.52791 19.6294 5.82827 19.9358L8.62238 23.3063V23.7516H0.700012V23.3063L3.49412 19.9358C3.79337 19.6283 3.92637 19.1973 3.85433 18.7763V7.08426Z" fill="#EBEBEB"/>
</svg>
