<svg width="32" height="32" viewBox="0 0 32 32" fill="none" xmlns="http://www.w3.org/2000/svg">
<g id="Type=analytics-overview">
<g id="Union">
<path d="M9.67098 9.41851C9.85069 9.18771 10.1893 9.18933 10.3962 9.39617L10.5834 9.58342C10.7903 9.79026 10.7852 10.1235 10.6189 10.3642C9.93334 11.3563 9.93334 12.6792 10.6189 13.6713C10.7852 13.912 10.7903 14.2453 10.5834 14.4521L10.3962 14.6394C10.1893 14.8462 9.85069 14.8478 9.67098 14.617C8.48385 13.0924 8.48385 10.9431 9.67098 9.41851Z" fill="#ADADAD"/>
<path fill-rule="evenodd" clip-rule="evenodd" d="M8.05546 7.05546C5.31485 9.79606 5.31485 14.2395 8.05546 16.9801C10.6382 19.5628 14.7332 19.7116 17.4901 17.4264L24.9086 24.8449C25.1154 25.0517 25.4508 25.0517 25.6576 24.8449L25.8449 24.6576C26.0517 24.4508 26.0517 24.1154 25.8449 23.9086L18.4264 16.4901C20.7116 13.7332 20.5628 9.63819 17.9801 7.05546C15.2395 4.31485 10.7961 4.31485 8.05546 7.05546ZM8.99174 16.0438C6.76823 13.8203 6.76823 10.2153 8.99174 7.99174C11.2153 5.76823 14.8203 5.76823 17.0438 7.99174C19.2673 10.2153 19.2673 13.8203 17.0438 16.0438C14.8203 18.2673 11.2153 18.2673 8.99174 16.0438Z" fill="#ADADAD"/>
</g>
</g>
</svg>
