<svg width="28" height="28" viewBox="0 0 28 28" fill="none" xmlns="http://www.w3.org/2000/svg">
<path fill-rule="evenodd" clip-rule="evenodd" d="M9.51692 12.1236C10.1677 12.1237 10.7918 12.3933 11.252 12.8731C11.7122 13.353 11.9707 14.0038 11.9707 14.6824C11.9706 15.361 11.7121 16.0118 11.2519 16.4916C10.7917 16.9714 10.1676 17.241 9.51677 17.241C8.86597 17.241 8.24182 16.9714 7.78163 16.4916C7.32144 16.0118 7.0629 15.361 7.06288 14.6824C7.06286 14.0038 7.32136 13.353 7.78152 12.8731C8.24169 12.3933 8.86612 12.1237 9.51692 12.1236ZM16.7258 12.475C17.1938 12.1987 17.7309 12.0763 18.2668 12.1236C18.6021 12.1383 18.9313 12.2216 19.2357 12.369C19.5401 12.5164 19.8136 12.7249 20.0407 12.9825C20.2678 13.2402 20.4439 13.542 20.5591 13.8707C20.6742 14.1993 20.7261 14.5485 20.7118 14.8981C20.7118 15.4588 20.5495 16.0065 20.246 16.4695C19.9426 16.9325 19.5121 17.2891 19.011 17.4927C18.5099 17.6963 17.9615 17.7375 17.4377 17.6107C16.9138 17.4839 16.4388 17.1952 16.0749 16.7823C15.711 16.3694 15.4752 15.8515 15.3983 15.2965C15.3213 14.7415 15.4069 14.1753 15.6438 13.6718C15.8806 13.1684 16.2578 12.7512 16.7258 12.475ZM20.664 23.7968C22.0911 23.8345 23.5054 23.5081 24.784 22.8459C26.0625 22.1838 27.1665 21.2059 28 19.9975C27.9222 14.9301 26.7418 9.94727 24.5478 5.42488C22.6173 3.84378 20.2635 2.9267 17.8117 2.80029L17.4762 3.20003C19.6589 3.80575 21.6934 4.88777 23.445 6.37452C21.2129 5.09166 18.7616 4.27652 16.2293 3.97504C14.6191 3.78995 12.9935 3.80668 11.3871 4.02488C11.2501 4.02912 11.1136 4.04589 10.9794 4.07502C9.09723 4.29799 7.2606 4.82941 5.53736 5.64965C4.65055 6.07461 4.12308 6.37452 4.12308 6.37452C5.96829 4.81326 8.12085 3.69528 10.4276 3.10013L10.188 2.80005C7.73618 2.92656 5.38246 3.84363 3.45185 5.42464C1.25813 9.94713 0.0778391 14.93 0 19.9974C0.82674 21.207 1.92596 22.1861 3.20091 22.8486C4.47586 23.5112 5.88746 23.8368 7.31145 23.7968C7.31145 23.7968 8.19852 22.6721 8.91745 21.7221C7.23211 21.2788 5.74822 20.2355 4.72217 18.7726C4.72217 18.7726 4.9623 18.9477 5.39361 19.1976C5.42092 19.2285 5.45342 19.2538 5.48949 19.2725C5.52538 19.2974 5.5612 19.3161 5.59702 19.3348C5.63303 19.3536 5.66905 19.3724 5.70514 19.3976C6.26912 19.7223 6.85382 20.0063 7.45511 20.2475C8.59601 20.7168 9.77562 21.0766 10.9793 21.3222C13.0294 21.7328 15.1349 21.7413 17.188 21.3471C18.3824 21.1293 19.5488 20.7686 20.664 20.2722C21.6335 19.891 22.5583 19.3962 23.4208 18.7976C22.3563 20.2919 20.8193 21.3455 19.0816 21.7721C19.8008 22.722 20.664 23.7968 20.664 23.7968Z" fill="#EBEBEB"/>
</svg>
