<svg width="24" height="24" viewBox="0 0 24 24" fill="none" xmlns="http://www.w3.org/2000/svg">
<g opacity="0.64">
<path fill-rule="evenodd" clip-rule="evenodd" d="M3.55132 11.6838C4.09487 10.0531 5.33574 8 8 8C10.5405 8 11.8196 9.92323 12.752 11.325C12.779 11.3656 12.8056 11.4057 12.8321 11.4453C13.8926 13.0361 14.614 14 16 14C17.3357 14 18.0949 13.0531 18.5513 11.6838C18.7718 11.0224 18.8859 10.3469 18.9436 9.82707C18.9722 9.56971 18.9864 9.35655 18.9933 9.21025C18.9968 9.13723 18.9985 9.08124 18.9993 9.04517L18.9999 9.00646L19 8.99942C19 8.9997 19 9 20 9C21 9 21 9.00035 21 9.00072L21 9.00372L21 9.00964L20.9998 9.02796C20.9997 9.04301 20.9994 9.06368 20.9988 9.0896C20.9976 9.14141 20.9954 9.21434 20.9911 9.30538C20.9824 9.4872 20.9653 9.74279 20.9314 10.0479C20.8641 10.6531 20.7282 11.4776 20.4487 12.3162C19.9051 13.9469 18.6643 16 16 16C13.4595 16 12.1804 14.0768 11.248 12.675C11.221 12.6344 11.1944 12.5943 11.1679 12.5547C10.1074 10.9639 9.38604 10 8 10C6.66426 10 5.90513 10.9469 5.44868 12.3162C5.22822 12.9776 5.11414 13.6531 5.05638 14.1729C5.02779 14.4303 5.01365 14.6434 5.00668 14.7898C5.0032 14.8628 5.00153 14.9188 5.00073 14.9548L5.00006 14.9935L5 15.0006C5 15.0003 5 15 4 15C3 15 3 14.9997 3 14.9993L3.00001 14.9963L3.00003 14.9904L3.00018 14.972C3.00034 14.957 3.00065 14.9363 3.00122 14.9104C3.00237 14.8586 3.00461 14.7857 3.00894 14.6946C3.0176 14.5128 3.03471 14.2572 3.06862 13.9521C3.13586 13.3469 3.27178 12.5224 3.55132 11.6838Z" fill="#E0E0E0"/>
</g>
</svg>
