<svg width="40" height="40" viewBox="0 0 40 40" fill="none" xmlns="http://www.w3.org/2000/svg">
<rect x="0.5" y="0.5" width="39" height="39" rx="11.5" stroke="#333333"/>
<path fill-rule="evenodd" clip-rule="evenodd" d="M20.5189 26.5012C19.8728 26.6637 19.1965 26.75 18.5 26.75C13.9437 26.75 10.25 23.0563 10.25 18.5C10.25 13.9437 13.9437 10.25 18.5 10.25C23.0563 10.25 26.75 13.9437 26.75 18.5C26.75 19.1965 26.6637 19.8728 26.5012 20.5189C26.6658 20.5064 26.8322 20.5 27 20.5C27.2637 20.5 27.5236 20.5157 27.7791 20.5462C27.9238 19.8872 28 19.2025 28 18.5C28 13.2533 23.7467 9 18.5 9C13.2533 9 9 13.2533 9 18.5C9 23.7467 13.2533 28 18.5 28C19.2025 28 19.8872 27.9238 20.5462 27.7791C20.5157 27.5236 20.5 27.2637 20.5 27C20.5 26.8322 20.5064 26.6658 20.5189 26.5012ZM17.8592 23V22.0101C17.223 21.9158 16.7493 21.7744 16.4383 21.5859C15.9879 21.3098 15.6752 20.8838 15.5 20.3081L16.937 19.6111C17.0478 19.8805 17.1568 20.0842 17.2641 20.2222C17.3928 20.3906 17.5536 20.5118 17.7466 20.5859C17.9433 20.6566 18.2024 20.6919 18.5241 20.6919C19.3999 20.6919 19.8378 20.4512 19.8378 19.9697C19.8378 19.7239 19.6948 19.5337 19.4088 19.399C19.2373 19.3182 18.819 19.1785 18.1542 18.9798C17.4786 18.7811 16.9531 18.5303 16.5777 18.2273C16.1381 17.8737 15.9182 17.4226 15.9182 16.8737C15.9182 16.1734 16.2489 15.6397 16.9102 15.2727C17.1711 15.1279 17.4875 15.0253 17.8592 14.9646V14H19.4571V15.0101C20.1899 15.202 20.7601 15.6094 21.1676 16.2323L19.87 16.9747C19.7127 16.7054 19.5286 16.5135 19.3177 16.399C19.1068 16.2845 18.828 16.2273 18.4812 16.2273C18.1917 16.2273 17.9629 16.2811 17.7949 16.3889C17.6305 16.4966 17.5483 16.6414 17.5483 16.8232C17.5483 17.0522 17.6644 17.2256 17.8968 17.3434C18.0255 17.4108 18.399 17.5337 19.0174 17.7121C19.7574 17.9276 20.34 18.1801 20.7654 18.4697C21.2551 18.7963 21.5 19.2778 21.5 19.9141C21.5 20.2677 21.4231 20.5943 21.2694 20.8939C21.1157 21.1902 20.9048 21.4242 20.6367 21.596C20.3615 21.7677 19.9683 21.8956 19.4571 21.9798V23H17.8592ZM32 27C32 29.7614 29.7614 32 27 32C24.2386 32 22 29.7614 22 27C22 24.2386 24.2386 22 27 22C29.7614 22 32 24.2386 32 27ZM26.2045 27L24.6023 25.3978L25.3978 24.6023L27 26.2045L28.6023 24.6023L29.3978 25.3978L27.7955 27L29.3978 28.6023L28.6023 29.3978L27 27.7955L25.3978 29.3978L24.6023 28.6023L26.2045 27Z" fill="#333333"/>
</svg>
