<svg width="24" height="24" viewBox="0 0 24 24" fill="none" xmlns="http://www.w3.org/2000/svg">
<g id="Frame 124" clip-path="url(#clip0_2785_4158)">
<path id="Vector" d="M23.7749 23.9996H18.792C18.714 23.9996 18.6392 23.9679 18.5841 23.9116C18.529 23.8552 18.498 23.7788 18.498 23.6991V15.5391C18.498 15.2478 18.8724 15.1401 19.0211 15.3885L23.9668 23.65C23.9877 23.6848 23.9991 23.7247 23.9999 23.7656C24.0006 23.8064 23.9907 23.8467 23.9712 23.8823C23.9516 23.9179 23.9231 23.9476 23.8886 23.9682C23.8541 23.9888 23.8148 23.9996 23.7749 23.9996Z" fill="white"/>
<path id="Vector_2" d="M16.9614 12.5808V23.7055C16.9614 23.7441 16.954 23.7824 16.9395 23.818C16.925 23.8537 16.9038 23.8861 16.8771 23.9135C16.8504 23.9408 16.8186 23.9624 16.7837 23.9772C16.7488 23.992 16.7113 23.9996 16.6736 23.9996H13.1354C13.0976 23.9996 13.0602 23.992 13.0253 23.9772C12.9904 23.9624 12.9586 23.9408 12.9319 23.9134C12.9052 23.8861 12.884 23.8537 12.8696 23.818C12.8551 23.7824 12.8477 23.7441 12.8477 23.7055L13.1134 7.51474C13.1134 7.2087 13.4979 7.08327 13.6713 7.33273L16.8861 12.3396C16.9351 12.41 16.9614 12.4943 16.9614 12.5808Z" fill="white"/>
<path id="Vector_3" d="M11.1606 15.3717V23.7168C11.1606 23.7918 11.1314 23.8637 11.0795 23.9168C11.0277 23.9698 10.9573 23.9996 10.8839 23.9996H6.93042C6.8941 23.9996 6.85813 23.9923 6.82458 23.978C6.79102 23.9638 6.76053 23.943 6.73485 23.9168C6.70917 23.8905 6.6888 23.8593 6.67492 23.825C6.66103 23.7907 6.65388 23.754 6.6539 23.7168V11.9568C6.6539 11.6955 6.95435 11.5552 7.1479 11.7253L11.0768 15.1854C11.103 15.2085 11.1241 15.2371 11.1386 15.2692C11.153 15.3013 11.1606 15.3363 11.1606 15.3717Z" fill="white"/>
<path id="Vector_4" d="M5.13786 15.7925L4.84239 23.6157C4.83851 23.7189 4.79565 23.8167 4.72281 23.8884C4.64996 23.96 4.5528 24 4.4517 24H0.231727C0.191059 24 0.151106 23.9891 0.115884 23.9684C0.0806608 23.9476 0.0514083 23.9176 0.0310666 23.8816C0.010725 23.8457 1.04651e-05 23.8048 7.66239e-09 23.7632C-1.04498e-05 23.7217 0.0106834 23.6808 0.031007 23.6448L4.56078 15.6227C4.72233 15.3365 5.15034 15.4628 5.13786 15.7925Z" fill="white"/>
<path id="Vector_5" d="M11.7815 3.55546L11.0603 12.8082C11.0603 12.8413 11.0515 12.8737 11.0348 12.9016C11.0182 12.9295 10.9944 12.9518 10.9663 12.9657C10.9383 12.9797 10.907 12.9848 10.8763 12.9804C10.8455 12.976 10.8167 12.9624 10.793 12.941L7.18652 9.70048C7.14603 9.66408 7.09857 9.6376 7.04747 9.62296C6.99637 9.60824 6.94289 9.60576 6.89077 9.61552C6.83865 9.62528 6.78918 9.64712 6.74582 9.67952C6.70247 9.71192 6.66629 9.75408 6.63985 9.80304L5.16077 12.538L3.33634 15.9602C3.29145 16.0445 3.17163 15.982 3.20618 15.8923L6.66977 6.91274C6.69271 6.85321 6.72907 6.80064 6.77561 6.75971C6.82215 6.71879 6.87743 6.69078 6.93655 6.67816C6.99567 6.66554 7.05679 6.66872 7.11449 6.6874C7.17218 6.70608 7.22465 6.7397 7.26726 6.78525L9.39697 9.35832C9.54025 9.51136 9.78577 9.4228 9.81273 9.20888L11.211 0.477209C11.3187 -0.178107 12.021 -0.0656685 12.1998 0.262219L14.3911 6.77789C14.4282 6.84584 14.3405 6.91182 14.2931 6.8517L12.3483 3.33462C12.1555 3.08985 11.7815 3.23551 11.7815 3.55546Z" fill="#6988FF"/>
</g>
<defs>
<clipPath id="clip0_2785_4158">
<rect width="24" height="24" fill="white"/>
</clipPath>
</defs>
</svg>
