<svg width="22" height="24" viewBox="0 0 22 24" fill="none" xmlns="http://www.w3.org/2000/svg">
<path d="M1 7.67162C1 7.31877 1.18596 6.99203 1.48934 6.81184L10.4893 1.46638C10.8041 1.27943 11.1959 1.27943 11.5107 1.46638L20.5107 6.81184C20.814 6.99203 21 7.31877 21 7.67162V12V16.3284C21 16.6812 20.814 17.008 20.5107 17.1882L11.5107 22.5336C11.1959 22.7206 10.8041 22.7206 10.4893 22.5336L1.48934 17.1882C1.18596 17.008 1 16.6812 1 16.3284V12V7.67162Z" fill="url(#paint0_linear_448_571)" stroke="url(#paint1_linear_448_571)" stroke-width="2"/>
<path fill-rule="evenodd" clip-rule="evenodd" d="M6.5 8.84848C6.5 9.11626 6.73108 9.33333 7.01613 9.33333H7.40323C7.68828 9.33333 7.91935 9.11626 7.91935 8.84848V8.48485C7.91935 8.21707 7.68828 8 7.40323 8H7.01613C6.73108 8 6.5 8.21707 6.5 8.48485V8.84848ZM9.01613 8.66667C9.01613 9.03486 9.33386 9.33333 9.72581 9.33333H14.7903C15.1823 9.33333 15.5 9.03486 15.5 8.66667C15.5 8.29848 15.1823 8 14.7903 8H9.72581C9.33386 8 9.01613 8.29848 9.01613 8.66667ZM6.5 12.1818C6.5 12.4496 6.73108 12.6667 7.01613 12.6667H7.40323C7.68828 12.6667 7.91935 12.4496 7.91935 12.1818V11.8182C7.91935 11.5504 7.68828 11.3333 7.40323 11.3333H7.01613C6.73108 11.3333 6.5 11.5504 6.5 11.8182V12.1818ZM9.01613 12C9.01613 12.3682 9.33386 12.6667 9.72581 12.6667L14.7903 12.6667C15.1823 12.6667 15.5 12.3682 15.5 12C15.5 11.6318 15.1823 11.3333 14.7903 11.3333H9.72581C9.33386 11.3333 9.01613 11.6318 9.01613 12ZM7.01613 16C6.73108 16 6.5 15.7829 6.5 15.5152V15.1515C6.5 14.8837 6.73108 14.6667 7.01613 14.6667H7.40323C7.68828 14.6667 7.91935 14.8837 7.91935 15.1515V15.5152C7.91935 15.7829 7.68828 16 7.40323 16H7.01613ZM9.72581 16C9.33386 16 9.01613 15.7015 9.01613 15.3333C9.01613 14.9651 9.33386 14.6667 9.72581 14.6667H14.7903C15.1823 14.6667 15.5 14.9651 15.5 15.3333C15.5 15.7015 15.1823 16 14.7903 16H9.72581Z" fill="#8C7103"/>
<defs>
<linearGradient id="paint0_linear_448_571" x1="11" y1="0" x2="11" y2="24" gradientUnits="userSpaceOnUse">
<stop stop-color="#EBC66F"/>
<stop offset="1" stop-color="#E4B13A"/>
</linearGradient>
<linearGradient id="paint1_linear_448_571" x1="11" y1="0" x2="11" y2="24" gradientUnits="userSpaceOnUse">
<stop stop-color="#C59E1B"/>
<stop offset="1" stop-color="#907314"/>
</linearGradient>
</defs>
</svg>
