<svg width="22" height="24" viewBox="0 0 22 24" fill="none" xmlns="http://www.w3.org/2000/svg">
<path d="M1 7.67162C1 7.31877 1.18596 6.99203 1.48934 6.81184L10.4893 1.46638C10.8041 1.27943 11.1959 1.27943 11.5107 1.46638L20.5107 6.81184C20.814 6.99203 21 7.31877 21 7.67162V12V16.3284C21 16.6812 20.814 17.008 20.5107 17.1882L11.5107 22.5336C11.1959 22.7206 10.8041 22.7206 10.4893 22.5336L1.48934 17.1882C1.18596 17.008 1 16.6812 1 16.3284V12V7.67162Z" fill="url(#paint0_linear_448_568)" stroke="url(#paint1_linear_448_568)" stroke-width="2"/>
<path fill-rule="evenodd" clip-rule="evenodd" d="M8.1875 10.875C9.11948 10.875 9.875 10.1195 9.875 9.1875C9.875 8.25552 9.11948 7.5 8.1875 7.5C7.25552 7.5 6.5 8.25552 6.5 9.1875C6.5 10.1195 7.25552 10.875 8.1875 10.875ZM8.1875 9.75C8.49816 9.75 8.75 9.49816 8.75 9.1875C8.75 8.87684 8.49816 8.625 8.1875 8.625C7.87684 8.625 7.625 8.87684 7.625 9.1875C7.625 9.49816 7.87684 9.75 8.1875 9.75Z" fill="#8C7103"/>
<path fill-rule="evenodd" clip-rule="evenodd" d="M13.8125 16.5C14.7445 16.5 15.5 15.7445 15.5 14.8125C15.5 13.8805 14.7445 13.125 13.8125 13.125C12.8805 13.125 12.125 13.8805 12.125 14.8125C12.125 15.7445 12.8805 16.5 13.8125 16.5ZM13.8125 15.375C14.1232 15.375 14.375 15.1232 14.375 14.8125C14.375 14.5018 14.1232 14.25 13.8125 14.25C13.5018 14.25 13.25 14.5018 13.25 14.8125C13.25 15.1232 13.5018 15.375 13.8125 15.375Z" fill="#8C7103"/>
<path d="M14.375 9.42054C14.5947 9.20087 14.5947 8.84471 14.375 8.62504C14.1554 8.40537 13.7992 8.40537 13.5795 8.62504L7.62504 14.5795C7.40537 14.7992 7.40537 15.1554 7.62504 15.375C7.84471 15.5947 8.20087 15.5947 8.42054 15.375L14.375 9.42054Z" fill="#8C7103"/>
<defs>
<linearGradient id="paint0_linear_448_568" x1="11" y1="0" x2="11" y2="24" gradientUnits="userSpaceOnUse">
<stop stop-color="#EBC66F"/>
<stop offset="1" stop-color="#E4B13A"/>
</linearGradient>
<linearGradient id="paint1_linear_448_568" x1="11" y1="0" x2="11" y2="24" gradientUnits="userSpaceOnUse">
<stop stop-color="#C59E1B"/>
<stop offset="1" stop-color="#907314"/>
</linearGradient>
</defs>
</svg>
