<svg width="20" height="20" viewBox="0 0 20 20" fill="none" xmlns="http://www.w3.org/2000/svg">
<path fill-rule="evenodd" clip-rule="evenodd" d="M8.46893 6.21692C8.44312 6.31785 8.39809 6.41262 8.33636 6.49587C8.22145 6.64769 8.06937 6.76608 7.89537 6.83923C7.73889 6.90787 7.57312 6.95228 7.40369 6.97088C7.36886 6.97538 7.33277 6.97814 7.29776 6.98085L7.29206 6.98129C7.18475 6.98545 7.08158 7.02447 6.99762 7.09263C6.91366 7.16084 6.85335 7.2546 6.82551 7.36017C6.81278 7.41271 6.80328 7.466 6.79715 7.51977C6.78739 7.60084 6.78239 7.68384 6.77695 7.77361C6.77306 7.83801 6.76892 7.90596 6.7627 7.97915C6.72627 8.27736 6.64153 8.56734 6.51199 8.83732C6.48553 8.89407 6.45855 8.94911 6.432 9.00314C6.28998 9.29277 6.16164 9.5544 6.19846 9.9048C6.2273 10.1748 6.36315 10.3557 6.54363 10.5423C6.62936 10.6315 6.74302 10.7078 6.86099 10.787C7.19122 11.0085 7.5553 11.2528 7.43533 11.8683C7.33717 12.367 6.52502 12.8904 5.38351 13.0732C5.49423 13.0561 5.25034 12.6324 5.22327 12.5854L5.22163 12.5825C5.19016 12.5323 5.15792 12.4829 5.12576 12.4335H5.12571C5.03282 12.291 4.94031 12.1492 4.86814 11.992C4.67742 11.5814 4.58902 11.1063 4.66715 10.6564C4.73794 10.2492 5.00239 9.92392 5.25694 9.6107C5.29847 9.55965 5.33969 9.50894 5.3798 9.45823C5.7203 9.02773 6.07755 8.46365 6.15659 7.90482C6.16328 7.85626 6.16924 7.80332 6.1755 7.74762C6.18672 7.64792 6.19889 7.53937 6.21802 7.43122C6.24638 7.24445 6.30388 7.06345 6.38827 6.8951C6.44585 6.78472 6.5217 6.68523 6.61248 6.60101C6.65979 6.55629 6.691 6.49671 6.70115 6.43178C6.71125 6.3669 6.69968 6.3004 6.66829 6.24295L4.84858 2.91072L7.46231 6.19465C7.4921 6.23271 7.5297 6.26365 7.57252 6.28521C7.61534 6.30678 7.66231 6.31851 7.71005 6.31956C7.75784 6.32061 7.80523 6.31094 7.84892 6.29121C7.8926 6.27152 7.9315 6.24225 7.96284 6.20554C7.99595 6.16626 8.01472 6.11651 8.01598 6.06471C8.01727 6.01295 8.00095 5.96233 7.96979 5.92138C7.84827 5.76327 7.72179 5.60301 7.59592 5.44345L7.59583 5.44332C7.54489 5.37879 7.49408 5.31439 7.44371 5.25029L6.78597 4.42152L5.46583 2.76674L4 1L5.63517 2.61851L7.0404 4.20032L7.74143 4.99313C7.80584 5.06698 7.87024 5.14017 7.93461 5.21332C8.10279 5.40443 8.27096 5.59553 8.43914 5.79827L8.4773 5.84561L8.48568 5.91902C8.49699 6.01855 8.49133 6.11936 8.46893 6.21692ZM15.191 7.33059L15.1937 7.33488C15.1933 6.98155 14.9784 6.39857 14.5435 5.83782L14.5332 5.82408C14.3992 5.65551 14.2533 5.49722 14.0964 5.35048C14.0671 5.32161 14.0355 5.29317 14.0034 5.26477C13.8025 5.08636 13.5828 4.931 13.3485 4.80158L13.3317 4.79305C12.5954 4.38482 11.6371 4.17455 10.4556 4.41133C10.2969 4.21519 10.126 4.02965 9.94395 3.85583C9.66509 3.58527 9.33685 3.37308 8.97783 3.23115C8.622 3.09855 8.24092 3.05121 7.8642 3.09286C8.22732 3.12615 8.58103 3.22897 8.90665 3.39596C9.22112 3.56751 9.50434 3.79274 9.74392 4.06185C9.98678 4.33656 10.215 4.62426 10.4277 4.92378L10.4811 4.99453C10.6892 5.27046 10.9011 5.55138 11.165 5.80138C11.3103 5.94055 11.4724 6.06038 11.6474 6.15799C11.6939 6.18214 11.7409 6.20484 11.7869 6.22475C11.833 6.24466 11.8762 6.26312 11.9227 6.28018C12.0125 6.31567 12.1056 6.34507 12.1986 6.37206C12.5707 6.48004 12.9517 6.51884 13.3238 6.53971C13.3756 6.54247 13.4272 6.54505 13.4787 6.54763H13.4788C13.6117 6.55433 13.7434 6.56093 13.8732 6.57047C14.0509 6.58123 14.2273 6.60945 14.3997 6.65478C14.6588 6.72355 14.8868 6.88066 15.0458 7.09994C15.0999 7.173 15.1484 7.25009 15.191 7.33059ZM14.1017 5.35105C14.083 5.33346 14.064 5.31605 14.045 5.29868C14.0328 5.28752 14.0207 5.27641 14.0087 5.2653C14.0179 5.27392 14.0272 5.28262 14.0365 5.29137C14.0584 5.31189 14.0801 5.33241 14.1017 5.35105ZM13.6366 8.8389C12.4399 8.34452 11.1881 7.82734 11.3745 6.37587C11.774 6.81018 12.4012 6.90127 13.0833 7.00036C13.7021 7.09023 14.3661 7.18665 14.9465 7.5518C16.3159 8.41281 16.1159 10.0855 15.6507 10.7012C15.6927 9.68832 14.6858 9.27238 13.6366 8.8389ZM8.81535 8.11242C9.1312 8.08162 9.80431 7.91445 9.50335 7.375C9.43859 7.26527 9.34475 7.17637 9.2326 7.11845C9.12045 7.06056 8.99453 7.03606 8.86931 7.04775C8.74226 7.06166 8.62243 7.11499 8.52617 7.20057C8.42991 7.28614 8.36179 7.39976 8.33114 7.52607C8.23764 7.87892 8.33671 8.15976 8.81535 8.11242ZM8.72457 3.84441C8.52643 3.61139 8.21895 3.4892 7.91751 3.4447C7.90624 3.52113 7.89912 3.59813 7.89614 3.67535C7.88263 4.31136 8.10451 5.00993 8.53385 5.49538C8.67121 5.65232 8.83684 5.7809 9.02182 5.87426C9.12878 5.92729 9.41257 6.05894 9.51768 5.94055C9.52566 5.9297 9.53071 5.91688 9.53227 5.9034C9.53382 5.88993 9.53184 5.87628 9.52653 5.86385C9.50909 5.81315 9.47546 5.76712 9.44205 5.72144C9.41835 5.68907 9.39478 5.65687 9.37721 5.62322C9.35943 5.58936 9.34039 5.55628 9.3214 5.5233C9.2857 5.46126 9.25008 5.39935 9.22276 5.33197C9.15067 5.15562 9.11316 4.9681 9.07573 4.78115V4.78111V4.78107L9.07569 4.78102V4.78098V4.78093C9.06822 4.74357 9.06075 4.70621 9.05298 4.66893C8.99579 4.38053 8.92275 4.07742 8.72457 3.84441ZM12.9582 8.918C12.6508 9.7914 13.1466 10.5291 13.6395 11.2624C14.1908 12.0827 14.7385 12.8976 14.1541 13.8908C15.2896 13.4134 15.8287 11.9713 15.3575 10.8271C15.0606 10.1034 14.345 9.71103 13.6807 9.34689L13.6807 9.34684C13.423 9.20557 13.173 9.06855 12.9582 8.918ZM9.63557 11.0029C9.42979 11.0883 9.23575 11.2006 9.05829 11.3368C9.46182 11.1877 9.88538 11.1026 10.3142 11.0843C10.3919 11.0796 10.4702 11.076 10.5491 11.0722H10.5492H10.5493C10.6857 11.0659 10.8241 11.0594 10.9655 11.0474C11.1972 11.0314 11.4258 10.9836 11.645 10.9053C11.8748 10.8235 12.0838 10.6908 12.2572 10.517C12.4324 10.3374 12.5552 10.112 12.6121 9.86573C12.6622 9.63306 12.6552 9.39143 12.5917 9.16222C12.5281 8.93296 12.4101 8.72322 12.2479 8.5515C12.3261 8.75354 12.3743 8.9663 12.3907 9.18282C12.4049 9.38438 12.3779 9.58673 12.3116 9.77718C12.2469 9.95769 12.141 10.12 12.0028 10.2508C11.8599 10.3829 11.6946 10.4872 11.5148 10.5586C11.265 10.6611 10.9825 10.703 10.6883 10.7466C10.5541 10.7666 10.4174 10.7869 10.2803 10.8134C10.0597 10.8545 9.84372 10.918 9.63557 11.0029ZM13.2027 14.6085L13.183 14.6246V14.6247C13.1309 14.6672 13.0781 14.7105 13.0212 14.7494C12.9486 14.7981 12.8726 14.8412 12.7937 14.8782C12.6295 14.9598 12.4489 15.0015 12.2662 15C11.7713 14.9905 11.4215 14.6154 11.2168 14.1915C11.1632 14.0805 11.1159 13.9659 11.0686 13.8514C10.993 13.6681 10.9173 13.4847 10.8154 13.3154C10.5786 12.9218 10.1735 12.605 9.69902 12.6637C9.5055 12.6883 9.32407 12.7769 9.21663 12.9479C8.9338 13.3945 9.33991 14.0201 9.85762 13.9315C9.90165 13.9247 9.94473 13.9126 9.986 13.8956C10.0271 13.8777 10.0655 13.854 10.1 13.825C10.1723 13.7637 10.2268 13.6835 10.2576 13.5929C10.2917 13.4985 10.2992 13.3964 10.2795 13.2979C10.2583 13.1949 10.1986 13.1044 10.113 13.0454C10.2125 13.0929 10.29 13.1778 10.3293 13.2822C10.37 13.3898 10.3805 13.5067 10.3595 13.6199C10.3392 13.7379 10.2881 13.8481 10.2116 13.9391C10.171 13.9859 10.124 14.0266 10.0721 14.0599C10.0206 14.0928 9.96549 14.1193 9.90787 14.139C9.79101 14.1796 9.66665 14.1928 9.5441 14.1774C9.37203 14.1524 9.20976 14.0807 9.07431 13.9699C9.04927 13.9498 9.02527 13.9287 9.002 13.9068C8.90984 13.8259 8.82618 13.7353 8.75241 13.6365C8.7193 13.5994 8.68567 13.5627 8.65053 13.5276C8.48469 13.3504 8.28901 13.2049 8.07278 13.098C7.92368 13.0314 7.76764 12.9821 7.60766 12.9512C7.52715 12.9341 7.44578 12.9218 7.36437 12.9114C7.35552 12.9105 7.33855 12.9075 7.3174 12.9038L7.31727 12.9037H7.31723H7.31718C7.24924 12.8917 7.13873 12.8722 7.11922 12.8906C7.37084 12.6547 7.64508 12.4453 7.93789 12.2654C8.23855 12.0838 8.56135 11.9432 8.89801 11.8472C9.24702 11.7472 9.61213 11.7187 9.97205 11.7634C10.1573 11.7861 10.3388 11.8339 10.5116 11.9055C10.6927 11.9791 10.8599 12.0843 11.0057 12.2162C11.1499 12.3545 11.2665 12.52 11.3489 12.7035C11.4234 12.8753 11.4789 13.0549 11.5145 13.2391C11.5336 13.3383 11.548 13.4472 11.5629 13.5599H11.5629V13.5599C11.6307 14.0737 11.709 14.6665 12.29 14.7698C12.3269 14.7771 12.3641 14.7825 12.4016 14.7859L12.5174 14.7887C12.5971 14.783 12.6762 14.7714 12.7542 14.7542C12.9158 14.7155 13.0733 14.6608 13.2244 14.5908L13.2027 14.6085ZM8.78297 13.671C8.79687 13.6872 8.81094 13.7032 8.82519 13.7191C8.81936 13.7125 8.81358 13.7059 8.80775 13.6993C8.7995 13.6898 8.79126 13.6804 8.78297 13.671Z" fill="white"/>
</svg>
