<svg width="18" height="19" viewBox="0 0 18 19" fill="none" xmlns="http://www.w3.org/2000/svg">
<g id="Union">
<path fill-rule="evenodd" clip-rule="evenodd" d="M14.3047 5.90632L14.3677 5.98137L15.3263 5.21011L15.2607 5.13191C14.924 4.73061 14.5479 4.3623 14.1381 4.03263L14.0618 3.97122L13.2737 4.91055L13.3532 4.97454C13.7006 5.25401 14.0194 5.56623 14.3047 5.90632Z" fill="url(#paint0_linear_3277_1461)"/>
<path fill-rule="evenodd" clip-rule="evenodd" d="M16.0971 6.33816L15.0041 6.91143L15.0529 7.00071C15.2632 7.38516 15.4363 7.79183 15.5676 8.21616L15.5968 8.31059L16.7828 7.9587L16.7529 7.86205C16.5976 7.35985 16.3928 6.87881 16.1442 6.42438L16.0971 6.33816Z" fill="url(#paint1_linear_3277_1461)"/>
<path fill-rule="evenodd" clip-rule="evenodd" d="M16.7529 12.4703L16.7828 12.3737L15.5968 12.0218L15.5676 12.1162C15.4363 12.5406 15.2632 12.9472 15.0529 13.3317L15.0041 13.421L16.0971 13.9942L16.1442 13.908C16.3928 13.4536 16.5976 12.9725 16.7529 12.4703Z" fill="url(#paint2_linear_3277_1461)"/>
<path fill-rule="evenodd" clip-rule="evenodd" d="M13.3532 15.3579L13.2737 15.4218L14.0618 16.3612L14.1381 16.2998C14.5479 15.9701 14.924 15.6018 15.2607 15.2005L15.3263 15.1223L14.3677 14.351L14.3047 14.4261C14.0194 14.7662 13.7006 15.0784 13.3532 15.3579Z" fill="url(#paint3_linear_3277_1461)"/>
<path fill-rule="evenodd" clip-rule="evenodd" d="M10.9156 7.51574C10.8338 7.51574 10.7575 7.55981 10.7179 7.63224L8.99979 10.7753C8.9821 10.8077 8.97278 10.844 8.97278 10.8809V11.4228C8.97278 11.5475 9.07536 11.6449 9.19746 11.6449H11.4439V12.2823C11.4439 12.407 11.5465 12.5044 11.6686 12.5044H12.424C12.5461 12.5044 12.6487 12.407 12.6487 12.2823V11.6449H13.0312C13.1533 11.6449 13.2558 11.5475 13.2558 11.4228V10.7373C13.2558 10.6127 13.1533 10.5152 13.0312 10.5152H12.6487V9.61821C12.6487 9.49359 12.5461 9.39613 12.424 9.39613H11.6686C11.5465 9.39613 11.4439 9.49359 11.4439 9.61821V10.5152H10.4008L11.9569 7.84879C12.0451 7.69758 11.9315 7.51574 11.7622 7.51574H10.9156Z" fill="url(#paint4_linear_3277_1461)"/>
<path d="M9.82947 2.66746L8.23267 5.27349L7.1693 4.64872L7.84524 3.54557C6.89887 3.70375 5.9926 4.05537 5.1874 4.58222C4.05907 5.32048 3.17997 6.36958 2.66094 7.59662C2.14191 8.82362 2.00614 10.1737 2.27071 11.4761C2.53528 12.7786 3.18838 13.9752 4.14777 14.9147C5.10717 15.8542 6.32978 16.4942 7.66109 16.7535C8.99241 17.0128 10.3723 16.8797 11.6263 16.3711L11.7176 16.3341L11.718 16.3351C11.8944 16.2606 12.0669 16.179 12.2352 16.0907L12.3222 16.0451L12.9088 17.1174L12.8186 17.1647C12.3548 17.408 11.8638 17.6084 11.3513 17.7604L11.2565 17.7885L11.2558 17.7861C10.0131 18.1391 8.69765 18.1965 7.42016 17.9476C5.84931 17.6417 4.40612 16.8864 3.27318 15.777C2.14022 14.6676 1.36842 13.2538 1.05572 11.7144C0.74301 10.175 0.903522 8.57934 1.51686 7.12937C2.13019 5.67942 3.16868 4.44046 4.50069 3.56894C5.3522 3.01179 6.29925 2.62078 7.29009 2.41117L6.48351 1.85829L7.19564 0.862091L9.82947 2.66746Z" fill="url(#paint5_linear_3277_1461)"/>
<path d="M7.18803 8.66317C7.06375 8.57862 6.90466 8.53314 6.70461 8.53314C6.4753 8.53314 6.31003 8.58594 6.19628 8.67895L6.19548 8.6796C6.10063 8.75555 6.0206 8.87693 5.96114 9.05393C5.92357 9.16576 5.80421 9.2381 5.68273 9.2058L4.95378 9.01198C4.8331 8.9799 4.7571 8.85284 4.80041 8.72889C4.92737 8.36554 5.08155 8.08847 5.26829 7.90857C5.61236 7.57867 6.10253 7.42101 6.72236 7.42101C7.32305 7.42101 7.80033 7.55731 8.13951 7.84446C8.47402 8.12462 8.64021 8.50092 8.64021 8.96288C8.64021 9.29665 8.54409 9.61224 8.35456 9.90793C8.16687 10.2008 7.83517 10.5508 7.36674 10.9573L6.90281 11.3642H8.61791C8.74001 11.3642 8.84259 11.4617 8.84259 11.5863V12.2823C8.84259 12.407 8.74001 12.5044 8.61791 12.5044H4.96883C4.84673 12.5044 4.74415 12.407 4.74415 12.2823V11.8999C4.74415 11.8374 4.77081 11.7781 4.8169 11.7363L6.29643 10.394C6.68799 10.0374 6.95862 9.75187 7.1133 9.5361L7.14298 9.49537C7.21406 9.39795 7.27556 9.31367 7.32187 9.23324C7.37407 9.14261 7.39999 9.06819 7.39999 9.00001C7.39999 8.87129 7.30444 8.74269 7.18803 8.66317Z" fill="url(#paint6_linear_3277_1461)"/>
<path d="M15.8185 9.40718L17.0517 9.28966L17.0616 9.38877C17.087 9.64471 17.1 9.90406 17.1 10.1662C17.1 10.4283 17.087 10.6877 17.0616 10.9436L17.0517 11.0427L15.8185 10.9252L15.8285 10.8253C15.85 10.6086 15.861 10.3888 15.861 10.1662C15.861 9.94363 15.85 9.72377 15.8285 9.50709L15.8185 9.40718Z" fill="url(#paint7_linear_3277_1461)"/>
<path d="M10.8961 3.70862L11.2565 2.54387L11.3513 2.57198C11.8638 2.72403 12.3548 2.92444 12.8186 3.16774L12.9088 3.21501L12.3222 4.28733L12.2352 4.24169C11.8424 4.03567 11.4268 3.86605 10.9931 3.73739L10.8961 3.70862Z" fill="url(#paint8_linear_3277_1461)"/>
</g>
<defs>
<linearGradient id="paint0_linear_3277_1461" x1="8.99999" y1="0.862091" x2="8.99999" y2="18.1" gradientUnits="userSpaceOnUse">
<stop stop-color="#338464"/>
<stop offset="1" stop-color="#338449"/>
</linearGradient>
<linearGradient id="paint1_linear_3277_1461" x1="8.99999" y1="0.862091" x2="8.99999" y2="18.1" gradientUnits="userSpaceOnUse">
<stop stop-color="#338464"/>
<stop offset="1" stop-color="#338449"/>
</linearGradient>
<linearGradient id="paint2_linear_3277_1461" x1="8.99999" y1="0.862091" x2="8.99999" y2="18.1" gradientUnits="userSpaceOnUse">
<stop stop-color="#338464"/>
<stop offset="1" stop-color="#338449"/>
</linearGradient>
<linearGradient id="paint3_linear_3277_1461" x1="8.99999" y1="0.862091" x2="8.99999" y2="18.1" gradientUnits="userSpaceOnUse">
<stop stop-color="#338464"/>
<stop offset="1" stop-color="#338449"/>
</linearGradient>
<linearGradient id="paint4_linear_3277_1461" x1="8.99999" y1="0.862091" x2="8.99999" y2="18.1" gradientUnits="userSpaceOnUse">
<stop stop-color="#338464"/>
<stop offset="1" stop-color="#338449"/>
</linearGradient>
<linearGradient id="paint5_linear_3277_1461" x1="8.99999" y1="0.862091" x2="8.99999" y2="18.1" gradientUnits="userSpaceOnUse">
<stop stop-color="#338464"/>
<stop offset="1" stop-color="#338449"/>
</linearGradient>
<linearGradient id="paint6_linear_3277_1461" x1="8.99999" y1="0.862091" x2="8.99999" y2="18.1" gradientUnits="userSpaceOnUse">
<stop stop-color="#338464"/>
<stop offset="1" stop-color="#338449"/>
</linearGradient>
<linearGradient id="paint7_linear_3277_1461" x1="8.99999" y1="0.862091" x2="8.99999" y2="18.1" gradientUnits="userSpaceOnUse">
<stop stop-color="#338464"/>
<stop offset="1" stop-color="#338449"/>
</linearGradient>
<linearGradient id="paint8_linear_3277_1461" x1="8.99999" y1="0.862091" x2="8.99999" y2="18.1" gradientUnits="userSpaceOnUse">
<stop stop-color="#338464"/>
<stop offset="1" stop-color="#338449"/>
</linearGradient>
</defs>
</svg>
