<svg width="32" height="32" viewBox="0 0 32 32" fill="none" xmlns="http://www.w3.org/2000/svg">
<path fill-rule="evenodd" clip-rule="evenodd" d="M14.75 16.5C14.6119 16.5 14.5 16.3881 14.5 16.25V9.25C14.5 9.11193 14.388 8.99956 14.25 9.00416C13.9985 9.01255 13.7482 9.03357 13.5 9.06696C12.3713 9.21881 11.2874 9.6264 10.3332 10.264C9.09986 11.0881 8.13856 12.2594 7.57091 13.6299C7.00325 15.0003 6.85472 16.5083 7.14411 17.9632C7.4335 19.418 8.14781 20.7544 9.1967 21.8033C10.2456 22.8522 11.582 23.5665 13.0368 23.8559C14.4917 24.1453 15.9997 23.9968 17.3701 23.4291C18.7406 22.8614 19.9119 21.9001 20.736 20.6668C21.3736 19.7126 21.7812 18.6287 21.933 17.5C21.9664 17.2518 21.9875 17.0015 21.9958 16.75C22.0004 16.612 21.8881 16.5 21.75 16.5H14.75ZM20.9226 17.5H14C13.7239 17.5 13.5 17.2761 13.5 17V10.0774C12.5699 10.2222 11.6781 10.568 10.8888 11.0954C9.81988 11.8097 8.98676 12.8248 8.49479 14.0126C8.00282 15.2003 7.8741 16.5072 8.1249 17.7681C8.3757 19.029 8.99477 20.1872 9.90381 21.0962C10.8129 22.0052 11.971 22.6243 13.2319 22.8751C14.4928 23.1259 15.7997 22.9972 16.9874 22.5052C18.1752 22.0132 19.1903 21.1801 19.9046 20.1112C20.432 19.3219 20.7778 18.4301 20.9226 17.5Z" fill="#ADADAD"/>
<path fill-rule="evenodd" clip-rule="evenodd" d="M19.9874 7.49478C19.5089 7.29656 19.0095 7.15671 18.5 7.07738V12.25C18.5 12.3881 18.6119 12.5 18.75 12.5L23.9226 12.5C23.8433 11.9905 23.7034 11.4911 23.5052 11.0126C23.1786 10.2239 22.6998 9.50739 22.0962 8.9038C21.4926 8.30022 20.7761 7.82144 19.9874 7.49478ZM24.933 12.5C24.9665 12.7485 24.9875 12.9988 24.9958 13.25C25.0004 13.388 24.8881 13.5 24.75 13.5H18C17.7239 13.5 17.5 13.2761 17.5 13L17.5 6.25C17.5 6.11193 17.612 5.99956 17.75 6.00416C18.0012 6.01254 18.2515 6.03354 18.5 6.06696C19.1412 6.15322 19.7699 6.32226 20.3701 6.5709C21.2801 6.94781 22.1069 7.50026 22.8033 8.1967C23.4997 8.89314 24.0522 9.71993 24.4291 10.6299C24.6777 11.2301 24.8468 11.8589 24.933 12.5Z" fill="#ADADAD"/>
</svg>
