<svg width="32" height="32" viewBox="0 0 32 32" fill="none" xmlns="http://www.w3.org/2000/svg">
<g id="menu-Icon">
<g id="Union">
<path fill-rule="evenodd" clip-rule="evenodd" d="M8.5 11C9.05228 11 9.5 10.5523 9.5 10C9.5 9.44771 9.05228 9 8.5 9C7.94772 9 7.5 9.44771 7.5 10C7.5 10.5523 7.94772 11 8.5 11ZM8.5 10.5C8.77614 10.5 9 10.2761 9 10C9 9.72386 8.77614 9.5 8.5 9.5C8.22386 9.5 8 9.72386 8 10C8 10.2761 8.22386 10.5 8.5 10.5Z" fill="#ADADAD"/>
<path fill-rule="evenodd" clip-rule="evenodd" d="M4.57168 11.6268C3.1426 11.0429 3.14277 8.95651 4.57219 8.37303C3.9743 6.94957 5.44951 5.47409 6.87323 6.07168C7.45707 4.6426 9.54349 4.64277 10.127 6.07219C11.5504 5.4743 13.0259 6.94951 12.4283 8.37323C13.8574 8.95707 13.8572 11.0435 12.4278 11.627C13.0257 13.0504 11.5505 14.5259 10.1268 13.9283C9.54293 15.3574 7.45651 15.3572 6.87303 13.9278C5.44956 14.5257 3.97409 13.0505 4.57168 11.6268ZM10.3876 12.9413C10.2846 12.8786 10.1683 12.8411 10.0481 12.8318C9.92791 12.8225 9.80721 12.8417 9.69583 12.8878C9.58445 12.9339 9.48552 13.0057 9.40709 13.0972C9.32866 13.1888 9.27293 13.2975 9.24444 13.4147C9.05511 14.1951 7.94489 14.1951 7.75556 13.4147C7.72715 13.2974 7.67146 13.1885 7.59302 13.0969C7.51458 13.0052 7.4156 12.9334 7.30415 12.8872C7.1927 12.8411 7.07193 12.8218 6.95165 12.8312C6.83138 12.8405 6.715 12.8781 6.612 12.9409C5.92622 13.3587 5.14089 12.5738 5.55867 11.8876C5.62138 11.7846 5.65891 11.6683 5.66821 11.5481C5.67752 11.4279 5.65833 11.3072 5.61221 11.1958C5.56609 11.0844 5.49434 10.9855 5.40279 10.9071C5.31124 10.8287 5.20247 10.7729 5.08533 10.7444C4.30489 10.5551 4.30489 9.44489 5.08533 9.25556C5.20258 9.22715 5.31146 9.17146 5.40311 9.09302C5.49476 9.01458 5.5666 8.9156 5.61278 8.80415C5.65895 8.6927 5.67816 8.57193 5.66883 8.45165C5.65951 8.33137 5.62191 8.215 5.55911 8.112C5.14133 7.42622 5.92622 6.64089 6.61244 7.05867C7.05689 7.32889 7.63289 7.08978 7.75556 6.58533C7.94489 5.80489 9.05511 5.80489 9.24444 6.58533C9.27285 6.70258 9.32854 6.81146 9.40698 6.90311C9.48542 6.99476 9.58439 7.0666 9.69584 7.11278C9.80729 7.15895 9.92807 7.17816 10.0483 7.16883C10.1686 7.1595 10.285 7.12191 10.388 7.05911C11.0738 6.64133 11.8591 7.42622 11.4413 8.11244C11.3786 8.2154 11.3411 8.3317 11.3318 8.4519C11.3225 8.57209 11.3417 8.69279 11.3878 8.80417C11.4339 8.91555 11.5057 9.01448 11.5972 9.09291C11.6888 9.17134 11.7975 9.22707 11.9147 9.25556C12.6951 9.44489 12.6951 10.5551 11.9147 10.7444C11.7974 10.7729 11.6885 10.8285 11.5969 10.907C11.5052 10.9854 11.4334 11.0844 11.3872 11.1958C11.3411 11.3073 11.3218 11.4281 11.3312 11.5483C11.3405 11.6686 11.3781 11.785 11.4409 11.888C11.8587 12.5738 11.0738 13.3591 10.3876 12.9413Z" fill="#ADADAD"/>
<path d="M21 16.5C21.2761 16.5 21.5 16.2761 21.5 16C21.5 15.7239 21.2761 15.5 21 15.5C20.7239 15.5 20.5 15.7239 20.5 16C20.5 16.2761 20.7239 16.5 21 16.5Z" fill="#ADADAD"/>
<path fill-rule="evenodd" clip-rule="evenodd" d="M9 16.9824C8.83485 16.9941 8.66812 17 8.5 17C8.33188 17 8.16515 16.9941 8 16.9824V20C8 22.2091 9.79086 24 12 24H24C26.2091 24 28 22.2091 28 20V12C28 9.79086 26.2091 8 24 8H15.2101C15.3066 8.32412 15.3802 8.65807 15.4291 9H24C25.6569 9 27 10.3431 27 12V13H20C18.8954 13 18 13.8954 18 15V17C18 18.1046 18.8954 19 20 19H27V20C27 21.6569 25.6569 23 24 23H12C10.3431 23 9 21.6569 9 20V16.9824ZM20 14H27V18H20C19.4477 18 19 17.5523 19 17V15C19 14.4477 19.4477 14 20 14Z" fill="#ADADAD"/>
</g>
</g>
</svg>
