<svg width="8" height="12" viewBox="0 0 8 12" fill="none" xmlns="http://www.w3.org/2000/svg">
<g id="icon-offer-badge">
<path id="Subtract" fill-rule="evenodd" clip-rule="evenodd" d="M7.5 1.5C7.5 1.36193 7.38807 1.25 7.25 1.25H5.65451C5.55982 1.25 5.47326 1.30318 5.42177 1.38265C5.24554 1.6546 4.77162 2.25 4 2.25C3.22838 2.25 2.75446 1.6546 2.57824 1.38265C2.52674 1.30318 2.44019 1.25 2.34549 1.25H0.750001C0.611929 1.25 0.5 1.36193 0.5 1.5V9C0.5 9.13807 0.611929 9.25 0.750001 9.25L2.34549 9.24999C2.44019 9.24999 2.52674 9.19681 2.57824 9.11735C2.75446 8.8454 3.22838 8.25 4 8.25C4.77162 8.25 5.24554 8.8454 5.42176 9.11735C5.47326 9.19681 5.55982 9.24999 5.65451 9.24999L7.25 9.25C7.38807 9.25 7.5 9.13807 7.5 9L7.5 1.5ZM3.375 3.68751C3.375 4.20527 2.95527 4.62501 2.4375 4.62501C1.91973 4.62501 1.5 4.20527 1.5 3.68751C1.5 3.16974 1.91973 2.75001 2.4375 2.75001C2.95527 2.75001 3.375 3.16974 3.375 3.68751ZM6.02231 3.52233C6.18503 3.68505 6.18503 3.94887 6.02231 4.11158L2.86157 7.27233C2.69885 7.43505 2.43503 7.43505 2.27231 7.27233L1.97769 6.9777C1.81497 6.81498 1.81497 6.55116 1.97769 6.38845L5.13843 3.2277C5.30115 3.06498 5.56497 3.06498 5.72769 3.2277L6.02231 3.52233ZM6.5 6.81251C6.5 7.33027 6.08027 7.75001 5.5625 7.75001C5.04473 7.75001 4.625 7.33027 4.625 6.81251C4.625 6.29474 5.04473 5.87501 5.5625 5.87501C6.08027 5.87501 6.5 6.29474 6.5 6.81251Z" fill="#66B897"/>
</g>
</svg>
