<svg width="40" height="20" viewBox="0 0 40 20" fill="none" xmlns="http://www.w3.org/2000/svg">
<path d="M15 4H9C8.44772 4 8 4.44772 8 5V5.5C8 5.77614 7.77614 6 7.5 6C7.22386 6 7 5.77614 7 5.5V5C7 3.89543 7.89543 3 9 3H15C16.1046 3 17 3.89543 17 5V11C17 12.1046 16.1046 13 15 13H14.5C14.2239 13 14 12.7761 14 12.5C14 12.2239 14.2239 12 14.5 12H15C15.5523 12 16 11.5523 16 11V5C16 4.44772 15.5523 4 15 4Z" fill="#ADADAD"/>
<path fill-rule="evenodd" clip-rule="evenodd" d="M3 9C3 7.89543 3.89543 7 5 7H11C12.1046 7 13 7.89543 13 9V15C13 16.1046 12.1046 17 11 17H5C3.89543 17 3 16.1046 3 15V9ZM4 9C4 8.44772 4.44772 8 5 8H11C11.5523 8 12 8.44772 12 9V15C12 15.5523 11.5523 16 11 16H5C4.44772 16 4 15.5523 4 15V9Z" fill="#ADADAD"/>
<path fill-rule="evenodd" clip-rule="evenodd" d="M27.1299 3.0709C28.0398 2.69399 29.0151 2.5 30 2.5C30.9849 2.5 31.9602 2.69399 32.8701 3.0709C33.7801 3.44781 34.6069 4.00026 35.3033 4.6967C35.9997 5.39314 36.5522 6.21993 36.9291 7.12987C37.306 8.03982 37.5 9.01509 37.5 10C37.5 10.9849 37.306 11.9602 36.9291 12.8701C36.5522 13.7801 35.9997 14.6069 35.3033 15.3033C34.6069 15.9997 33.7801 16.5522 32.8701 16.9291C31.9602 17.306 30.9849 17.5 30 17.5C29.0151 17.5 28.0398 17.306 27.1299 16.9291C26.2199 16.5522 25.3931 15.9997 24.6967 15.3033C24.0003 14.6069 23.4478 13.7801 23.0709 12.8701C22.694 11.9602 22.5 10.9849 22.5 10C22.5 9.01509 22.694 8.03982 23.0709 7.12987C23.4478 6.21993 24.0003 5.39314 24.6967 4.6967C25.3931 4.00026 26.2199 3.44781 27.1299 3.0709ZM30 3.5C29.1464 3.5 28.3012 3.66813 27.5126 3.99478C26.7239 4.32144 26.0074 4.80023 25.4038 5.40381C24.8002 6.00739 24.3214 6.72394 23.9948 7.51256C23.6681 8.30117 23.5 9.14641 23.5 10C23.5 10.8536 23.6681 11.6988 23.9948 12.4874C24.3214 13.2761 24.8002 13.9926 25.4038 14.5962C26.0074 15.1998 26.7239 15.6786 27.5126 16.0052C28.3012 16.3319 29.1464 16.5 30 16.5C30.8536 16.5 31.6988 16.3319 32.4874 16.0052C33.2761 15.6786 33.9926 15.1998 34.5962 14.5962C35.1998 13.9926 35.6786 13.2761 36.0052 12.4874C36.3319 11.6988 36.5 10.8536 36.5 10C36.5 9.14641 36.3319 8.30117 36.0052 7.51256C35.6786 6.72394 35.1998 6.00739 34.5962 5.40381C33.9926 4.80023 33.2761 4.32144 32.4874 3.99478C31.6988 3.66813 30.8536 3.5 30 3.5ZM32.6869 8.09089C32.8821 8.28615 32.8821 8.60274 32.6869 8.798L29.5758 11.9091C29.3805 12.1044 29.0639 12.1044 28.8687 11.9091L27.3131 10.3536C27.1179 10.1583 27.1179 9.84171 27.3131 9.64645C27.5084 9.45118 27.825 9.45118 28.0202 9.64645L29.2222 10.8484L31.9798 8.09089C32.175 7.89563 32.4916 7.89563 32.6869 8.09089Z" fill="#3AA67B"/>
</svg>
