<svg width="16" height="20" viewBox="0 0 16 20" fill="none" xmlns="http://www.w3.org/2000/svg">
<path d="M5.25 3C5.11193 3 5 3.11193 5 3.25V8L6.49784 9.19827C7.10849 9.68679 7.3784 11.4864 7.18873 12.2451L7.14867 12.4053C7.13476 12.461 7.08476 12.5 7.0274 12.5H6.5C5.94771 12.5 5.5 12.9477 5.5 13.5H10.5C10.5 12.9477 10.0523 12.5 9.5 12.5H8.9726C8.91524 12.5 8.86524 12.461 8.85133 12.4053L8.81127 12.2451C8.6216 11.4864 8.89151 9.68679 9.50216 9.19827L11 8V3.25C11 3.11193 10.8881 3 10.75 3H5.25Z" fill="#ADADAD"/>
<path d="M3.53716 4C2.82978 4 2.33028 4.6687 2.55398 5.31623L3.24489 7.31623C3.38595 7.72457 3.78199 8 4.22807 8H5V7H4.32144C4.26568 7 4.21618 6.96557 4.19854 6.91453L3.65083 5.32906C3.59491 5.16717 3.71979 5 3.89663 5H5V4H3.53716Z" fill="#999999"/>
<path d="M12.4628 4C13.1702 4 13.6697 4.6687 13.446 5.31623L12.7551 7.31623C12.614 7.72457 12.218 8 11.7719 8H11V7H11.6786C11.7343 7 11.7838 6.96557 11.8015 6.91453L12.3492 5.32906C12.4051 5.16717 12.2802 5 12.1034 5H11V4H12.4628Z" fill="#999999"/>
</svg>
