<svg width="40" height="40" viewBox="0 0 40 40" fill="none" xmlns="http://www.w3.org/2000/svg">
<rect x="1" y="1" width="38" height="38" rx="12" fill="#3AA67B" fill-opacity="0.36"/>
<g clip-path="url(#clip0_3002_900)">
<path fill-rule="evenodd" clip-rule="evenodd" d="M20.4756 25.9594C19.8834 26.1083 19.2634 26.1875 18.625 26.1875C14.4483 26.1875 11.0625 22.8016 11.0625 18.625C11.0625 14.4483 14.4483 11.0625 18.625 11.0625C22.8017 11.0625 26.1875 14.4483 26.1875 18.625C26.1875 19.2634 26.1084 19.8834 25.9594 20.4756C26.1103 20.4641 26.2628 20.4583 26.4167 20.4583C26.6584 20.4583 26.8967 20.4727 27.1308 20.5007C27.2634 19.8965 27.3333 19.2689 27.3333 18.625C27.3333 13.8155 23.4345 9.91663 18.625 9.91663C13.8155 9.91663 9.91667 13.8155 9.91667 18.625C9.91667 23.4344 13.8155 27.3333 18.625 27.3333C19.2689 27.3333 19.8966 27.2634 20.5007 27.1308C20.4727 26.8966 20.4583 26.6583 20.4583 26.4166C20.4583 26.2628 20.4642 26.1103 20.4756 25.9594ZM18.0376 22.75V21.8426C17.4544 21.7561 17.0202 21.6265 16.7351 21.4537C16.3223 21.2006 16.0356 20.8101 15.875 20.2824L17.1922 19.6435C17.2938 19.8904 17.3938 20.0771 17.4921 20.2037C17.61 20.358 17.7575 20.4691 17.9344 20.537C18.1146 20.6018 18.3522 20.6342 18.6471 20.6342C19.4499 20.6342 19.8513 20.4135 19.8513 19.9722C19.8513 19.7469 19.7202 19.5725 19.4581 19.449C19.3008 19.375 18.9174 19.2469 18.308 19.0648C17.6887 18.8827 17.207 18.6527 16.8629 18.375C16.4599 18.0509 16.2584 17.6373 16.2584 17.1342C16.2584 16.4922 16.5615 16.003 17.1677 15.6666C17.4069 15.5339 17.6969 15.4398 18.0376 15.3842V14.5H19.5023V15.4259C20.1741 15.6018 20.6967 15.9753 21.0703 16.5463L19.8808 17.2268C19.7366 16.9799 19.5679 16.804 19.3746 16.699C19.1812 16.5941 18.9256 16.5416 18.6078 16.5416C18.3424 16.5416 18.1327 16.591 17.9787 16.6898C17.8279 16.7885 17.7526 16.9213 17.7526 17.0879C17.7526 17.2978 17.8591 17.4567 18.0721 17.5648C18.19 17.6265 18.5324 17.7392 19.0993 17.9027C19.7776 18.1003 20.3117 18.3317 20.7016 18.5972C21.1505 18.8966 21.375 19.3379 21.375 19.9213C21.375 20.2453 21.3045 20.5447 21.1637 20.8194C21.0228 21.091 20.8294 21.3055 20.5837 21.4629C20.3314 21.6203 19.9709 21.7376 19.5023 21.8148V22.75H18.0376ZM31 26.4166C31 28.9479 28.948 31 26.4167 31C23.8854 31 21.8333 28.9479 21.8333 26.4166C21.8333 23.8853 23.8854 21.8333 26.4167 21.8333C28.948 21.8333 31 23.8853 31 26.4166ZM25.9011 27.1771V23.6666H26.9323V27.1771L28.3862 26.014L29.0305 26.8193L26.4167 28.9103L23.8029 26.8193L24.4471 26.014L25.9011 27.1771Z" fill="#3AA67B"/>
</g>
<defs>
<clipPath id="clip0_3002_900">
<rect width="22" height="22" fill="white" transform="translate(9 9)"/>
</clipPath>
</defs>
</svg>
