<svg width="18" height="18" viewBox="0 0 18 18" fill="none" xmlns="http://www.w3.org/2000/svg">
<path d="M9 18C13.9706 18 18 13.9706 18 9C18 4.02944 13.9706 0 9 0C4.02944 0 0 4.02944 0 9C0 13.9706 4.02944 18 9 18Z" fill="#2775CA"/>
<path d="M7.3125 15.2578C7.3125 15.4688 7.14375 15.5883 6.94688 15.525C4.21875 14.6531 2.25 12.1078 2.25 9.09141C2.25 6.08204 4.21875 3.5297 6.94688 2.65782C7.15078 2.59454 7.3125 2.71407 7.3125 2.92501V3.45235C7.3125 3.59298 7.20703 3.7547 7.07344 3.80391C4.91484 4.59845 3.375 6.67266 3.375 9.09141C3.375 11.5172 4.91484 13.5844 7.07344 14.3719C7.20703 14.4211 7.3125 14.5828 7.3125 14.7234V15.2578Z" fill="white"/>
<path d="M9.56262 13.3101C9.56262 13.4648 9.43606 13.5914 9.28137 13.5914H8.71887C8.56418 13.5914 8.43762 13.4648 8.43762 13.3101V12.4242C7.20715 12.2554 6.6095 11.5734 6.44778 10.6312C6.41965 10.4695 6.54622 10.3289 6.70793 10.3289H7.34778C7.48137 10.3289 7.59387 10.4273 7.622 10.5539C7.74153 11.1093 8.06497 11.5382 9.04934 11.5382C9.77356 11.5382 10.2939 11.1304 10.2939 10.5257C10.2939 9.92106 9.99153 9.68903 8.92278 9.51324C7.34778 9.30231 6.60247 8.82418 6.60247 7.59371C6.60247 6.64449 7.32668 5.89918 8.43762 5.74449V4.87262C8.43762 4.71793 8.56418 4.59137 8.71887 4.59137H9.28137C9.43606 4.59137 9.56262 4.71793 9.56262 4.87262V5.76559C10.4697 5.92731 11.0462 6.44059 11.2361 7.2984C11.2712 7.46012 11.1447 7.60778 10.9759 7.60778H10.3853C10.2587 7.60778 10.1532 7.5234 10.1181 7.40387C9.95637 6.86246 9.56965 6.6234 8.89465 6.6234C8.14934 6.6234 7.76262 6.98199 7.76262 7.48824C7.76262 8.02262 7.98059 8.28981 9.12668 8.45152C10.6736 8.66246 11.4751 9.10543 11.4751 10.4203C11.4751 11.4187 10.7298 12.2273 9.56965 12.4101V13.3101H9.56262Z" fill="white"/>
<path d="M11.0531 15.525C10.8492 15.5883 10.6875 15.4688 10.6875 15.2578V14.7305C10.6875 14.5758 10.7789 14.4281 10.9266 14.3789C13.0781 13.5914 14.625 11.5172 14.625 9.09844C14.625 6.67266 13.0852 4.60547 10.9266 3.81797C10.793 3.76875 10.6875 3.60703 10.6875 3.46641V2.93906C10.6875 2.72812 10.8562 2.60859 11.0531 2.67187C13.7812 3.52969 15.75 6.08203 15.75 9.09141C15.75 12.1078 13.7812 14.6531 11.0531 15.525Z" fill="white"/>
</svg>
